Recursive Sans-Linear B.ufo
<glyph name="exclam" format="2">
	<unicode hex="0021"/>
	<advance width="350"/>
	<outline>
		<contour>
			<point x="229" y="290" type="line"/>
			<point x="241" y="361"/>
			<point x="253" y="431"/>
			<point x="265" y="502" type="curve"/>
			<point x="265" y="689" type="line" smooth="yes"/>
			<point x="265" y="696"/>
			<point x="260" y="700"/>
			<point x="254" y="700" type="curve" smooth="yes"/>
			<point x="182" y="700"/>
			<point x="126" y="700"/>
			<point x="85" y="700" type="curve"/>
			<point x="85" y="662"/>
			<point x="85" y="627"/>
			<point x="85" y="590" type="curve" smooth="yes"/>
			<point x="85" y="502" type="line"/>
			<point x="118" y="299"/>
			<point x="119" y="297"/>
			<point x="123" y="293" type="curve" smooth="yes"/>
			<point x="125" y="291"/>
			<point x="127" y="290"/>
			<point x="131" y="290" type="curve"/>
		</contour>
		<contour>
			<point x="275" y="-10" type="curve"/>
			<point x="275" y="179" type="line" smooth="yes"/>
			<point x="275" y="185"/>
			<point x="270" y="190"/>
			<point x="264" y="190" type="curve" smooth="yes"/>
			<point x="201" y="190"/>
			<point x="138" y="190"/>
			<point x="75" y="190" type="curve"/>
			<point x="75" y="1" type="line" smooth="yes"/>
			<point x="75" y="-5"/>
			<point x="80" y="-10"/>
			<point x="86" y="-10" type="curve" smooth="yes"/>
			<point x="149" y="-10"/>
			<point x="212" y="-10"/>
		</contour>
	</outline>
</glyph>
<glyph name="quotesingle" format="2">
	<unicode hex="0027"/>
	<advance width="250"/>
	<outline>
		<contour>
			<point x="191.4359721901" y="450" type="curve"/>
			<point x="214.4359721901" y="737" type="line" smooth="yes"/>
			<point x="215.4359721901" y="746"/>
			<point x="210.4359721901" y="750"/>
			<point x="204.4359721901" y="750" type="curve" smooth="yes"/>
			<point x="153.4359721901" y="750"/>
			<point x="97.4359721901" y="750"/>
			<point x="35.4359721901" y="750" type="curve"/>
			<point x="38.4359721901" y="714"/>
			<point x="40.4359721901" y="683"/>
			<point x="43.4359721901" y="648" type="curve" smooth="yes"/>
			<point x="58.4359721901" y="461" type="line" smooth="yes"/>
			<point x="59.4359721901" y="454"/>
			<point x="64.4359721901" y="450"/>
			<point x="70.4359721901" y="450" type="curve" smooth="yes"/>
			<point x="111.4359721901" y="450"/>
			<point x="150.4359721901" y="450"/>
		</contour>
	</outline>
</glyph>
<glyph name="comma" format="2">
	<unicode hex="002C"/>
	<advance width="350"/>
	<outline>
		<contour>
			<point x="180" y="-190" type="curve" smooth="yes"/>
			<point x="185" y="-190"/>
			<point x="188.4294326642" y="-189"/>
			<point x="190.4294326642" y="-183" type="curve" smooth="yes"/>
			<point x="231.4294326642" y="-74"/>
			<point x="279.4294326642" y="54"/>
			<point x="312.4294326642" y="140" type="curve" smooth="yes"/>
			<point x="315.4294326642" y="148"/>
			<point x="312.4294326642" y="153"/>
			<point x="304.4294326642" y="153" type="curve" smooth="yes"/>
			<point x="233.4294326642" y="153"/>
			<point x="191.4294326642" y="153"/>
			<point x="108.4294326642" y="153" type="curve"/>
			<point x="84.4294326642" y="39"/>
			<point x="60.4294326642" y="-76"/>
			<point x="36.4294326642" y="-190" type="curve"/>
			<point x="74.4294326642" y="-190"/>
			<point x="117" y="-190"/>
		</contour>
	</outline>
</glyph>
<glyph name="colon" format="2">
	<unicode hex="003A"/>
	<advance width="300"/>
	<outline>
		<contour>
			<point x="250" y="350" type="curve"/>
			<point x="250" y="539" type="line" smooth="yes"/>
			<point x="250" y="545"/>
			<point x="245" y="550"/>
			<point x="239" y="550" type="curve" smooth="yes"/>
			<point x="176" y="550"/>
			<point x="113" y="550"/>
			<point x="50" y="550" type="curve"/>
			<point x="50" y="361" type="line" smooth="yes"/>
			<point x="50" y="355"/>
			<point x="55" y="350"/>
			<point x="61" y="350" type="curve" smooth="yes"/>
			<point x="124" y="350"/>
			<point x="187" y="350"/>
		</contour>
		<contour>
			<point x="250" y="-10" type="curve"/>
			<point x="250" y="179" type="line" smooth="yes"/>
			<point x="250" y="185"/>
			<point x="245" y="190"/>
			<point x="239" y="190" type="curve" smooth="yes"/>
			<point x="176" y="190"/>
			<point x="113" y="190"/>
			<point x="50" y="190" type="curve"/>
			<point x="50" y="1" type="line" smooth="yes"/>
			<point x="50" y="-5"/>
			<point x="55" y="-10"/>
			<point x="61" y="-10" type="curve" smooth="yes"/>
			<point x="124" y="-10"/>
			<point x="187" y="-10"/>
		</contour>
	</outline>
</glyph>
<glyph name="semicolon" format="2">
	<unicode hex="003B"/>
	<advance width="350"/>
	<outline>
		<contour>
			<point x="275" y="350" type="curve"/>
			<point x="275" y="539" type="line" smooth="yes"/>
			<point x="275" y="545"/>
			<point x="270" y="550"/>
			<point x="264" y="550" type="curve" smooth="yes"/>
			<point x="201" y="550"/>
			<point x="138" y="550"/>
			<point x="75" y="550" type="curve"/>
			<point x="75" y="361" type="line" smooth="yes"/>
			<point x="75" y="355"/>
			<point x="80" y="350"/>
			<point x="86" y="350" type="curve" smooth="yes"/>
			<point x="149" y="350"/>
			<point x="212" y="350"/>
		</contour>
		<contour>
			<point x="160" y="-240" type="curve" smooth="yes"/>
			<point x="165" y="-240"/>
			<point x="168.4294326642" y="-239"/>
			<point x="170.4294326642" y="-233" type="curve" smooth="yes"/>
			<point x="211.4294326642" y="-124"/>
			<point x="259.4294326642" y="4"/>
			<point x="292.4294326642" y="90" type="curve" smooth="yes"/>
			<point x="295.4294326642" y="98"/>
			<point x="292.4294326642" y="103"/>
			<point x="284.4294326642" y="103" type="curve" smooth="yes"/>
			<point x="213.4294326642" y="103"/>
			<point x="171.4294326642" y="103"/>
			<point x="88.4294326642" y="103" type="curve"/>
			<point x="64.4294326642" y="-11"/>
			<point x="40.4294326642" y="-126"/>
			<point x="16.4294326642" y="-240" type="curve"/>
			<point x="54.4294326642" y="-240"/>
			<point x="97" y="-240"/>
		</contour>
	</outline>
</glyph>
<glyph name="greater" format="2">
	<unicode hex="003E"/>
	<advance width="600"/>
	<outline>
		<contour>
			<point x="521" y="195" type="curve"/>
			<point x="521" y="261"/>
			<point x="521" y="327"/>
			<point x="521" y="393" type="curve" smooth="yes"/>
			<point x="521" y="403"/>
			<point x="516" y="410"/>
			<point x="506" y="414" type="curve" smooth="yes"/>
			<point x="364" y="473"/>
			<point x="223" y="534"/>
			<point x="81" y="594" type="curve"/>
			<point x="81" y="548"/>
			<point x="81" y="501"/>
			<point x="81" y="455" type="curve" smooth="yes"/>
			<point x="81" y="445"/>
			<point x="82" y="442"/>
			<point x="93" y="437" type="curve"/>
			<point x="198" y="393"/>
			<point x="302" y="348"/>
			<point x="407" y="304" type="curve"/>
			<point x="389" y="338" type="line"/>
			<point x="389" y="264" type="line"/>
			<point x="413" y="302" type="line"/>
			<point x="302" y="254"/>
			<point x="191" y="206"/>
			<point x="80" y="158" type="curve"/>
			<point x="80" y="112"/>
			<point x="80" y="66"/>
			<point x="80" y="20" type="curve"/>
			<point x="80" y="14"/>
			<point x="83" y="10"/>
			<point x="89" y="10" type="curve" smooth="yes"/>
			<point x="93" y="10"/>
			<point x="97" y="11"/>
			<point x="112" y="17" type="curve" smooth="yes"/>
			<point x="157" y="37"/>
			<point x="380" y="134"/>
		</contour>
	</outline>
</glyph>
<glyph name="I" format="2">
	<unicode hex="0049"/>
	<advance width="500"/>
	<outline>
		<contour>
			<point x="330" y="85" type="line"/>
			<point x="330" y="220"/>
			<point x="330" y="359"/>
			<point x="330" y="495" type="curve"/>
			<point x="330" y="517"/>
			<point x="330" y="547"/>
			<point x="330" y="569" type="curve"/>
			<point x="334" y="615" type="line"/>
			<point x="170" y="615" type="line"/>
			<point x="170" y="479"/>
			<point x="170" y="340"/>
			<point x="170" y="205" type="curve"/>
			<point x="170" y="184"/>
			<point x="170" y="152"/>
			<point x="170" y="131" type="curve"/>
			<point x="166" y="85" type="line"/>
		</contour>
		<contour>
			<point x="430" y="0" type="line"/>
			<point x="430" y="44"/>
			<point x="430" y="80"/>
			<point x="430" y="124" type="curve" smooth="yes"/>
			<point x="430" y="130"/>
			<point x="425" y="135"/>
			<point x="419" y="135" type="curve" smooth="yes"/>
			<point x="70" y="135" type="line"/>
			<point x="70" y="91"/>
			<point x="70" y="55"/>
			<point x="70" y="11" type="curve" smooth="yes"/>
			<point x="70" y="5"/>
			<point x="75" y="0"/>
			<point x="81" y="0" type="curve" smooth="yes"/>
		</contour>
		<contour>
			<point x="70" y="700" type="line"/>
			<point x="70" y="656"/>
			<point x="70" y="620"/>
			<point x="70" y="576" type="curve"/>
			<point x="70" y="570"/>
			<point x="75" y="565"/>
			<point x="81" y="565" type="curve" smooth="yes"/>
			<point x="430" y="565" type="line"/>
			<point x="430" y="609"/>
			<point x="430" y="645"/>
			<point x="430" y="689" type="curve" smooth="yes"/>
			<point x="430" y="695"/>
			<point x="425" y="700"/>
			<point x="419" y="700" type="curve" smooth="yes"/>
		</contour>
	</outline>
</glyph>
<glyph name="Q" format="2">
	<unicode hex="0051"/>
	<advance width="650"/>
	<outline>
		<contour>
			<point x="497" y="116" type="curve"/>
			<point x="368" y="59" type="line"/>
			<point x="392" y="12"/>
			<point x="411" y="-26"/>
			<point x="436" y="-73" type="curve"/>
			<point x="465" y="-130"/>
			<point x="495" y="-155"/>
			<point x="567" y="-155" type="curve" smooth="yes"/>
			<point x="580" y="-155"/>
			<point x="600" y="-155"/>
			<point x="609" y="-155" type="curve" smooth="yes"/>
			<point x="616" y="-155"/>
			<point x="620" y="-151"/>
			<point x="620" y="-144" type="curve" smooth="yes"/>
			<point x="620" y="-98"/>
			<point x="620" y="-46"/>
			<point x="620" y="0" type="curve"/>
			<point x="600" y="0" type="line"/>
			<point x="595" y="0"/>
			<point x="592" y="0"/>
			<point x="587" y="0" type="curve"/>
			<point x="573" y="0"/>
			<point x="562" y="2"/>
			<point x="552" y="19" type="curve" smooth="yes"/>
			<point x="530" y="58"/>
			<point x="519" y="77"/>
		</contour>
		<contour>
			<point x="325" y="720" type="curve" smooth="yes"/>
			<point x="184" y="720"/>
			<point x="55" y="623"/>
			<point x="55" y="438" type="curve" smooth="yes"/>
			<point x="55" y="250" type="line" smooth="yes"/>
			<point x="55" y="79"/>
			<point x="172" y="-20"/>
			<point x="325" y="-20" type="curve" smooth="yes"/>
			<point x="482" y="-20"/>
			<point x="595" y="79"/>
			<point x="595" y="250" type="curve" smooth="yes"/>
			<point x="595" y="438" type="line" smooth="yes"/>
			<point x="595" y="623"/>
			<point x="476" y="720"/>
		</contour>
		<contour>
			<point x="205" y="262" type="curve" smooth="yes"/>
			<point x="205" y="450" type="line" smooth="yes"/>
			<point x="205" y="533"/>
			<point x="245" y="585"/>
			<point x="327" y="585" type="curve" smooth="yes"/>
			<point x="368" y="585"/>
			<point x="395" y="575"/>
			<point x="414" y="557" type="curve" smooth="yes"/>
			<point x="436" y="537"/>
			<point x="445" y="510"/>
			<point x="445" y="450" type="curve" smooth="yes"/>
			<point x="445" y="262" type="line" smooth="yes"/>
			<point x="445" y="166"/>
			<point x="397" y="117"/>
			<point x="330" y="117" type="curve" smooth="yes"/>
			<point x="293" y="117"/>
			<point x="262" y="127"/>
			<point x="245" y="141" type="curve" smooth="yes"/>
			<point x="228" y="155"/>
			<point x="205" y="185"/>
		</contour>
	</outline>
</glyph>
<glyph name="W" format="2">
	<unicode hex="0057"/>
	<advance width="900"/>
	<outline>
		<contour>
			<point x="25" y="700" type="curve"/>
			<point x="31" y="670"/>
			<point x="38" y="636"/>
			<point x="44" y="600" type="curve" smooth="yes"/>
			<point x="86" y="362"/>
			<point x="147" y="23"/>
			<point x="149" y="10" type="curve"/>
			<point x="150" y="4"/>
			<point x="154" y="0"/>
			<point x="160" y="0" type="curve"/>
			<point x="211" y="0"/>
			<point x="303" y="0"/>
			<point x="357" y="0" type="curve"/>
			<point x="364" y="31"/>
			<point x="414" y="232"/>
			<point x="443" y="440" type="curve"/>
			<point x="415" y="415" type="line"/>
			<point x="484" y="415" type="line"/>
			<point x="456" y="440" type="line"/>
			<point x="485" y="233"/>
			<point x="537" y="33"/>
			<point x="543" y="11" type="curve" smooth="yes"/>
			<point x="545" y="4"/>
			<point x="548" y="0"/>
			<point x="554" y="0" type="curve" smooth="yes"/>
			<point x="603" y="0"/>
			<point x="698" y="0"/>
			<point x="750" y="0" type="curve"/>
			<point x="791" y="229"/>
			<point x="858" y="594"/>
			<point x="875" y="685" type="curve" smooth="yes"/>
			<point x="877" y="695"/>
			<point x="872" y="700"/>
			<point x="864" y="700" type="curve" smooth="yes"/>
			<point x="821" y="700"/>
			<point x="759" y="700"/>
			<point x="716" y="700" type="curve"/>
			<point x="686" y="522"/>
			<point x="674" y="453"/>
			<point x="645" y="167" type="curve"/>
			<point x="671" y="175" type="line"/>
			<point x="604" y="175" type="line"/>
			<point x="627" y="167" type="line"/>
			<point x="606" y="309"/>
			<point x="566" y="452"/>
			<point x="527" y="613" type="curve" smooth="yes"/>
			<point x="525" y="620"/>
			<point x="521" y="624"/>
			<point x="515" y="624" type="curve" smooth="yes"/>
			<point x="373" y="624" type="line"/>
			<point x="336" y="460"/>
			<point x="300" y="309"/>
			<point x="278" y="167" type="curve"/>
			<point x="299" y="175" type="line"/>
			<point x="232" y="175" type="line"/>
			<point x="260" y="167" type="line"/>
			<point x="234" y="433"/>
			<point x="214" y="513"/>
			<point x="185" y="686" type="curve" smooth="yes"/>
			<point x="184" y="695"/>
			<point x="179" y="700"/>
			<point x="171" y="700" type="curve" smooth="yes"/>
			<point x="128" y="700"/>
			<point x="68" y="700"/>
		</contour>
	</outline>
</glyph>
<glyph name="i" format="2">
	<unicode hex="0069"/>
	<advance width="350"/>
	<outline>
		<contour>
			<point x="110" y="11" type="curve"/>
			<point x="110" y="4"/>
			<point x="114" y="0"/>
			<point x="121" y="0" type="curve"/>
			<point x="171" y="0"/>
			<point x="210" y="0"/>
			<point x="260" y="0" type="curve"/>
			<point x="260" y="33"/>
			<point x="260" y="66"/>
			<point x="260" y="99" type="curve"/>
			<point x="260" y="223"/>
			<point x="260" y="405"/>
			<point x="260" y="529" type="curve" smooth="yes"/>
			<point x="260" y="536"/>
			<point x="256" y="540"/>
			<point x="249" y="540" type="curve" smooth="yes"/>
			<point x="207" y="540"/>
			<point x="88" y="540"/>
			<point x="30" y="540" type="curve"/>
			<point x="30" y="500"/>
			<point x="30" y="457"/>
			<point x="30" y="417" type="curve" smooth="yes"/>
			<point x="30" y="410"/>
			<point x="34" y="406"/>
			<point x="41" y="406" type="curve" smooth="yes"/>
			<point x="61" y="406"/>
			<point x="92" y="406"/>
			<point x="105" y="406" type="curve"/>
			<point x="110" y="406" type="line"/>
			<point x="110" y="325"/>
			<point x="110" y="90"/>
		</contour>
		<contour>
			<point x="82" y="802" type="curve"/>
			<point x="82" y="663" type="line" smooth="yes"/>
			<point x="82" y="656"/>
			<point x="86" y="652"/>
			<point x="93" y="652" type="curve" smooth="yes"/>
			<point x="149" y="652"/>
			<point x="216" y="652"/>
			<point x="272" y="652" type="curve"/>
			<point x="272" y="791" type="line" smooth="yes"/>
			<point x="272" y="798"/>
			<point x="268" y="802"/>
			<point x="261" y="802" type="curve" smooth="yes"/>
			<point x="205" y="802"/>
			<point x="138" y="802"/>
		</contour>
	</outline>
</glyph>
<glyph name="j" format="2">
	<unicode hex="006A"/>
	<advance width="350"/>
	<outline>
		<contour>
			<point x="264" y="540" type="curve"/>
			<point x="212" y="540"/>
			<point x="145" y="540"/>
			<point x="46" y="540" type="curve"/>
			<point x="46" y="496"/>
			<point x="46" y="453"/>
			<point x="46" y="409" type="curve" smooth="yes"/>
			<point x="46" y="402"/>
			<point x="50" y="398"/>
			<point x="57" y="398" type="curve"/>
			<point x="75" y="398"/>
			<point x="110" y="398"/>
			<point x="119" y="398" type="curve"/>
			<point x="125" y="398" type="line"/>
			<point x="125" y="281"/>
			<point x="125" y="172"/>
			<point x="125" y="-2" type="curve" smooth="yes"/>
			<point x="125" y="-18"/>
			<point x="121" y="-29"/>
			<point x="113" y="-37" type="curve" smooth="yes"/>
			<point x="105" y="-44"/>
			<point x="94" y="-48"/>
			<point x="78" y="-48" type="curve" smooth="yes"/>
			<point x="56" y="-48"/>
			<point x="41" y="-44"/>
			<point x="15" y="-30" type="curve"/>
			<point x="-5" y="-30" type="line"/>
			<point x="-5" y="-76"/>
			<point x="-5" y="-131"/>
			<point x="-5" y="-177" type="curve" smooth="yes"/>
			<point x="-5" y="-180"/>
			<point x="-4" y="-183"/>
			<point x="-2" y="-185" type="curve" smooth="yes"/>
			<point x="13" y="-200"/>
			<point x="52" y="-210"/>
			<point x="121" y="-210" type="curve" smooth="yes"/>
			<point x="224" y="-210"/>
			<point x="275" y="-163"/>
			<point x="275" y="-7" type="curve" smooth="yes"/>
			<point x="275" y="199"/>
			<point x="275" y="364"/>
			<point x="275" y="529" type="curve" smooth="yes"/>
			<point x="275" y="536"/>
			<point x="271" y="540"/>
		</contour>
		<contour>
			<point x="103" y="802" type="curve"/>
			<point x="103" y="663" type="line" smooth="yes"/>
			<point x="103" y="656"/>
			<point x="107" y="652"/>
			<point x="114" y="652" type="curve" smooth="yes"/>
			<point x="170" y="652"/>
			<point x="237" y="652"/>
			<point x="293" y="652" type="curve"/>
			<point x="293" y="791" type="line" smooth="yes"/>
			<point x="293" y="798"/>
			<point x="289" y="802"/>
			<point x="282" y="802" type="curve" smooth="yes"/>
			<point x="226" y="802"/>
			<point x="159" y="802"/>
		</contour>
	</outline>
</glyph>
<glyph name="braceleft" format="2">
	<unicode hex="007B"/>
	<advance width="500"/>
	<outline>
		<contour>
			<point x="370" y="157" type="curve" smooth="yes"/>
			<point x="370" y="223"/>
			<point x="339" y="271"/>
			<point x="260" y="290" type="curve"/>
			<point x="260" y="310" type="line"/>
			<point x="338" y="334"/>
			<point x="370" y="374"/>
			<point x="370" y="442" type="curve" smooth="yes"/>
			<point x="370" y="517"/>
			<point x="328" y="547"/>
			<point x="320" y="580" type="curve" smooth="yes"/>
			<point x="319" y="583"/>
			<point x="319" y="587"/>
			<point x="319" y="590" type="curve"/>
			<point x="319" y="613"/>
			<point x="327" y="618"/>
			<point x="351" y="618" type="curve" smooth="yes"/>
			<point x="384" y="618"/>
			<point x="416" y="618"/>
			<point x="449" y="618" type="curve"/>
			<point x="470" y="618" type="line"/>
			<point x="470" y="662"/>
			<point x="470" y="705"/>
			<point x="470" y="749" type="curve" smooth="yes"/>
			<point x="470" y="756"/>
			<point x="466" y="760"/>
			<point x="459" y="760" type="curve" smooth="yes"/>
			<point x="282" y="760" type="line" smooth="yes"/>
			<point x="198" y="760"/>
			<point x="169" y="696"/>
			<point x="169" y="657" type="curve" smooth="yes"/>
			<point x="169" y="616" type="line" smooth="yes"/>
			<point x="169" y="520"/>
			<point x="220" y="504"/>
			<point x="220" y="444" type="curve" smooth="yes"/>
			<point x="220" y="395"/>
			<point x="167" y="371"/>
			<point x="62" y="371" type="curve" smooth="yes"/>
			<point x="30" y="371" type="line"/>
			<point x="30" y="327"/>
			<point x="30" y="284"/>
			<point x="30" y="240" type="curve" smooth="yes"/>
			<point x="30" y="233"/>
			<point x="34" y="229"/>
			<point x="41" y="229" type="curve" smooth="yes"/>
			<point x="62" y="229" type="line" smooth="yes"/>
			<point x="167" y="229"/>
			<point x="220" y="201"/>
			<point x="220" y="155" type="curve" smooth="yes"/>
			<point x="220" y="95"/>
			<point x="169" y="79"/>
			<point x="169" y="-17" type="curve" smooth="yes"/>
			<point x="169" y="-58" type="line" smooth="yes"/>
			<point x="169" y="-97"/>
			<point x="198" y="-161"/>
			<point x="282" y="-161" type="curve" smooth="yes"/>
			<point x="459" y="-161" type="line" smooth="yes"/>
			<point x="466" y="-161"/>
			<point x="470" y="-157"/>
			<point x="470" y="-150" type="curve" smooth="yes"/>
			<point x="470" y="-106"/>
			<point x="470" y="-63"/>
			<point x="470" y="-19" type="curve"/>
			<point x="449" y="-19" type="line"/>
			<point x="416" y="-19"/>
			<point x="384" y="-19"/>
			<point x="351" y="-19" type="curve" smooth="yes"/>
			<point x="327" y="-19"/>
			<point x="319" y="-14"/>
			<point x="319" y="9" type="curve"/>
			<point x="319" y="15"/>
			<point x="320" y="20"/>
			<point x="322" y="26" type="curve" smooth="yes"/>
			<point x="334" y="56"/>
			<point x="370" y="87"/>
		</contour>
	</outline>
</glyph>
<glyph name="dieresis" format="2">
	<unicode hex="00A8"/>
	<advance width="600"/>
	<outline>
		<contour>
			<point x="112" y="768" type="curve"/>
			<point x="112" y="622" type="line" smooth="yes"/>
			<point x="112" y="615"/>
			<point x="116" y="611"/>
			<point x="123" y="611" type="curve" smooth="yes"/>
			<point x="171" y="611"/>
			<point x="220" y="611"/>
			<point x="268" y="611" type="curve"/>
			<point x="268" y="757" type="line" smooth="yes"/>
			<point x="268" y="764"/>
			<point x="264" y="768"/>
			<point x="257" y="768" type="curve" smooth="yes"/>
			<point x="209" y="768"/>
			<point x="160" y="768"/>
		</contour>
		<contour>
			<point x="332" y="768" type="curve"/>
			<point x="332" y="622" type="line" smooth="yes"/>
			<point x="332" y="615"/>
			<point x="336" y="611"/>
			<point x="343" y="611" type="curve" smooth="yes"/>
			<point x="391" y="611"/>
			<point x="440" y="611"/>
			<point x="488" y="611" type="curve"/>
			<point x="488" y="757" type="line" smooth="yes"/>
			<point x="488" y="764"/>
			<point x="484" y="768"/>
			<point x="477" y="768" type="curve" smooth="yes"/>
			<point x="429" y="768"/>
			<point x="380" y="768"/>
		</contour>
	</outline>
</glyph>
<glyph name="periodcentered" format="2">
	<unicode hex="00B7"/>
	<advance width="300"/>
	<outline>
		<contour>
			<point x="250" y="224" type="curve"/>
			<point x="250" y="413" type="line" smooth="yes"/>
			<point x="250" y="419"/>
			<point x="245" y="424"/>
			<point x="239" y="424" type="curve" smooth="yes"/>
			<point x="176" y="424"/>
			<point x="113" y="424"/>
			<point x="50" y="424" type="curve"/>
			<point x="50" y="235" type="line" smooth="yes"/>
			<point x="50" y="229"/>
			<point x="55" y="224"/>
			<point x="61" y="224" type="curve" smooth="yes"/>
			<point x="124" y="224"/>
			<point x="187" y="224"/>
		</contour>
	</outline>
</glyph>
<glyph name="guillemotright" format="2">
	<unicode hex="00BB"/>
	<advance width="600"/>
	<outline>
		<contour>
			<point x="264" y="502" type="line"/>
			<point x="352" y="410"/>
			<point x="400" y="359"/>
			<point x="455" y="301" type="curve"/>
			<point x="396" y="238"/>
			<point x="345" y="183"/>
			<point x="264" y="98" type="curve"/>
			<point x="264" y="78" type="line"/>
			<point x="301" y="78"/>
			<point x="337" y="78"/>
			<point x="374" y="78" type="curve" smooth="yes"/>
			<point x="386" y="78"/>
			<point x="391" y="79"/>
			<point x="400" y="88" type="curve" smooth="yes"/>
			<point x="429" y="118"/>
			<point x="515" y="209"/>
			<point x="577" y="275" type="curve"/>
			<point x="577" y="288"/>
			<point x="577" y="302"/>
			<point x="577" y="315" type="curve" smooth="yes"/>
			<point x="577" y="323"/>
			<point x="576" y="327"/>
			<point x="567" y="337" type="curve" smooth="yes"/>
			<point x="547" y="358"/>
			<point x="416" y="495"/>
			<point x="402" y="510" type="curve" smooth="yes"/>
			<point x="391" y="521"/>
			<point x="389" y="522"/>
			<point x="376" y="522" type="curve" smooth="yes"/>
			<point x="339" y="522"/>
			<point x="301" y="522"/>
			<point x="264" y="522" type="curve"/>
		</contour>
		<contour>
			<point x="34" y="502" type="line"/>
			<point x="122" y="410"/>
			<point x="170" y="359"/>
			<point x="225" y="301" type="curve"/>
			<point x="166" y="238"/>
			<point x="115" y="183"/>
			<point x="34" y="98" type="curve"/>
			<point x="34" y="78" type="line"/>
			<point x="71" y="78"/>
			<point x="107" y="78"/>
			<point x="144" y="78" type="curve" smooth="yes"/>
			<point x="156" y="78"/>
			<point x="161" y="79"/>
			<point x="170" y="88" type="curve" smooth="yes"/>
			<point x="199" y="118"/>
			<point x="285" y="209"/>
			<point x="347" y="275" type="curve"/>
			<point x="347" y="288"/>
			<point x="347" y="302"/>
			<point x="347" y="315" type="curve" smooth="yes"/>
			<point x="347" y="323"/>
			<point x="346" y="327"/>
			<point x="337" y="337" type="curve" smooth="yes"/>
			<point x="317" y="358"/>
			<point x="186" y="495"/>
			<point x="172" y="510" type="curve" smooth="yes"/>
			<point x="161" y="521"/>
			<point x="159" y="522"/>
			<point x="146" y="522" type="curve" smooth="yes"/>
			<point x="109" y="522"/>
			<point x="71" y="522"/>
			<point x="34" y="522" type="curve"/>
		</contour>
	</outline>
</glyph>
<glyph name="onequarter" format="2">
	<unicode hex="00BC"/>
	<advance width="600"/>
	<outline>
		<contour>
			<point x="357" y="405" type="curve"/>
			<point x="368" y="405"/>
			<point x="431" y="405"/>
			<point x="441" y="405" type="curve" smooth="yes"/>
			<point x="446" y="405"/>
			<point x="448" y="406"/>
			<point x="451" y="412" type="curve" smooth="yes"/>
			<point x="458" y="427"/>
			<point x="567" y="682"/>
			<point x="573" y="697" type="curve" smooth="yes"/>
			<point x="576" y="705"/>
			<point x="573" y="710"/>
			<point x="565" y="710" type="curve" smooth="yes"/>
			<point x="555" y="710"/>
			<point x="449" y="710"/>
			<point x="439" y="710" type="curve"/>
			<point x="436" y="699"/>
			<point x="361" y="419"/>
		</contour>
		<contour>
			<point x="243" y="296" type="curve"/>
			<point x="228" y="296"/>
			<point x="172" y="296"/>
			<point x="159" y="296" type="curve" smooth="yes"/>
			<point x="154" y="296"/>
			<point x="151" y="295"/>
			<point x="149" y="289" type="curve" smooth="yes"/>
			<point x="143" y="274"/>
			<point x="32" y="16"/>
			<point x="27" y="4" type="curve" smooth="yes"/>
			<point x="24" y="-4"/>
			<point x="27" y="-9"/>
			<point x="35" y="-9" type="curve" smooth="yes"/>
			<point x="53" y="-9"/>
			<point x="151" y="-9"/>
			<point x="161" y="-9" type="curve"/>
			<point x="164" y="3"/>
			<point x="238" y="280"/>
		</contour>
		<contour>
			<point x="36" y="463" type="line"/>
			<point x="36" y="419"/>
			<point x="36" y="397"/>
			<point x="36" y="377" type="curve" smooth="yes"/>
			<point x="36" y="370"/>
			<point x="40" y="366"/>
			<point x="47" y="366" type="curve" smooth="yes"/>
			<point x="304" y="366" type="line"/>
			<point x="304" y="376"/>
			<point x="304" y="442"/>
			<point x="304" y="452" type="curve" smooth="yes"/>
			<point x="304" y="459"/>
			<point x="300" y="463"/>
			<point x="293" y="463" type="curve" smooth="yes"/>
		</contour>
		<contour>
			<point x="240" y="404" type="line"/>
			<point x="240" y="414"/>
			<point x="240" y="721"/>
			<point x="240" y="731" type="curve" smooth="yes"/>
			<point x="240" y="738"/>
			<point x="236" y="742"/>
			<point x="229" y="742" type="curve" smooth="yes"/>
			<point x="219" y="742"/>
			<point x="149" y="742"/>
			<point x="136" y="742" type="curve"/>
			<point x="123" y="732"/>
			<point x="106" y="719"/>
			<point x="88" y="706" type="curve" smooth="yes"/>
			<point x="72" y="694"/>
			<point x="57" y="682"/>
			<point x="44" y="672" type="curve"/>
			<point x="44" y="567" type="line" smooth="yes"/>
			<point x="44" y="562"/>
			<point x="46" y="560"/>
			<point x="50" y="560" type="curve" smooth="yes"/>
			<point x="55" y="560"/>
			<point x="60" y="563"/>
			<point x="73" y="575" type="curve" smooth="yes"/>
			<point x="101" y="603"/>
			<point x="116" y="623"/>
			<point x="135" y="680" type="curve"/>
			<point x="110" y="654" type="line"/>
			<point x="164" y="654" type="line"/>
			<point x="144" y="684" type="line"/>
			<point x="144" y="609"/>
			<point x="144" y="458"/>
			<point x="144" y="450" type="curve" smooth="yes"/>
			<point x="144" y="442"/>
			<point x="144" y="432"/>
			<point x="144" y="422" type="curve"/>
			<point x="138" y="404" type="line"/>
		</contour>
		<contour>
			<point x="546" y="-42" type="curve"/>
			<point x="546" y="-32"/>
			<point x="546" y="-1"/>
			<point x="546" y="9" type="curve" smooth="yes"/>
			<point x="546" y="191" type="line" smooth="yes"/>
			<point x="546" y="198"/>
			<point x="543" y="202"/>
			<point x="535" y="202" type="curve" smooth="yes"/>
			<point x="480" y="202" type="line"/>
			<point x="476" y="192"/>
			<point x="450" y="125"/>
			<point x="450" y="119" type="curve" smooth="yes"/>
			<point x="450" y="-31" type="line" smooth="yes"/>
			<point x="450" y="-39"/>
			<point x="454" y="-42"/>
			<point x="461" y="-42" type="curve" smooth="yes"/>
			<point x="471" y="-42"/>
			<point x="536" y="-42"/>
		</contour>
		<contour>
			<point x="587" y="37" type="line"/>
			<point x="587" y="47"/>
			<point x="587" y="108"/>
			<point x="587" y="118" type="curve" smooth="yes"/>
			<point x="587" y="125"/>
			<point x="583" y="129"/>
			<point x="576" y="129" type="curve" smooth="yes"/>
			<point x="484" y="129" type="line" smooth="yes"/>
			<point x="438" y="129"/>
			<point x="401" y="124"/>
			<point x="360" y="104" type="curve"/>
			<point x="376" y="89" type="line"/>
			<point x="376" y="158" type="line"/>
			<point x="360" y="107" type="line"/>
			<point x="369" y="121"/>
			<point x="492" y="321"/>
			<point x="498" y="331" type="curve"/>
			<point x="498" y="343" type="line"/>
			<point x="488" y="343"/>
			<point x="407" y="343"/>
			<point x="397" y="343" type="curve" smooth="yes"/>
			<point x="392" y="343"/>
			<point x="387" y="342"/>
			<point x="383" y="335" type="curve" smooth="yes"/>
			<point x="377" y="325"/>
			<point x="269" y="117"/>
			<point x="269" y="115" type="curve" smooth="yes"/>
			<point x="269" y="48" type="line" smooth="yes"/>
			<point x="269" y="41"/>
			<point x="273" y="37"/>
			<point x="280" y="37" type="curve" smooth="yes"/>
		</contour>
	</outline>
</glyph>
<glyph name="onehalf" format="2">
	<unicode hex="00BD"/>
	<advance width="600"/>
	<outline>
		<contour>
			<point x="357" y="405" type="curve"/>
			<point x="368" y="405"/>
			<point x="431" y="405"/>
			<point x="441" y="405" type="curve" smooth="yes"/>
			<point x="446" y="405"/>
			<point x="448" y="406"/>
			<point x="451" y="412" type="curve" smooth="yes"/>
			<point x="458" y="427"/>
			<point x="567" y="682"/>
			<point x="573" y="697" type="curve" smooth="yes"/>
			<point x="576" y="705"/>
			<point x="573" y="710"/>
			<point x="565" y="710" type="curve" smooth="yes"/>
			<point x="555" y="710"/>
			<point x="449" y="710"/>
			<point x="439" y="710" type="curve"/>
			<point x="436" y="699"/>
			<point x="361" y="419"/>
		</contour>
		<contour>
			<point x="243" y="296" type="curve"/>
			<point x="228" y="296"/>
			<point x="172" y="296"/>
			<point x="159" y="296" type="curve" smooth="yes"/>
			<point x="154" y="296"/>
			<point x="151" y="295"/>
			<point x="149" y="289" type="curve" smooth="yes"/>
			<point x="143" y="274"/>
			<point x="32" y="16"/>
			<point x="27" y="4" type="curve" smooth="yes"/>
			<point x="24" y="-4"/>
			<point x="27" y="-9"/>
			<point x="35" y="-9" type="curve" smooth="yes"/>
			<point x="53" y="-9"/>
			<point x="151" y="-9"/>
			<point x="161" y="-9" type="curve"/>
			<point x="164" y="3"/>
			<point x="238" y="280"/>
		</contour>
		<contour>
			<point x="36" y="463" type="line"/>
			<point x="36" y="419"/>
			<point x="36" y="397"/>
			<point x="36" y="377" type="curve" smooth="yes"/>
			<point x="36" y="370"/>
			<point x="40" y="366"/>
			<point x="47" y="366" type="curve" smooth="yes"/>
			<point x="304" y="366" type="line"/>
			<point x="304" y="376"/>
			<point x="304" y="442"/>
			<point x="304" y="452" type="curve" smooth="yes"/>
			<point x="304" y="459"/>
			<point x="300" y="463"/>
			<point x="293" y="463" type="curve" smooth="yes"/>
		</contour>
		<contour>
			<point x="240" y="404" type="line"/>
			<point x="240" y="414"/>
			<point x="240" y="721"/>
			<point x="240" y="731" type="curve" smooth="yes"/>
			<point x="240" y="738"/>
			<point x="236" y="742"/>
			<point x="229" y="742" type="curve" smooth="yes"/>
			<point x="219" y="742"/>
			<point x="149" y="742"/>
			<point x="136" y="742" type="curve"/>
			<point x="123" y="732"/>
			<point x="106" y="719"/>
			<point x="88" y="706" type="curve" smooth="yes"/>
			<point x="72" y="694"/>
			<point x="57" y="682"/>
			<point x="44" y="672" type="curve"/>
			<point x="44" y="567" type="line" smooth="yes"/>
			<point x="44" y="562"/>
			<point x="46" y="560"/>
			<point x="50" y="560" type="curve" smooth="yes"/>
			<point x="55" y="560"/>
			<point x="60" y="563"/>
			<point x="73" y="575" type="curve" smooth="yes"/>
			<point x="101" y="603"/>
			<point x="116" y="623"/>
			<point x="135" y="680" type="curve"/>
			<point x="110" y="654" type="line"/>
			<point x="164" y="654" type="line"/>
			<point x="144" y="684" type="line"/>
			<point x="144" y="609"/>
			<point x="144" y="458"/>
			<point x="144" y="450" type="curve" smooth="yes"/>
			<point x="144" y="442"/>
			<point x="144" y="432"/>
			<point x="144" y="422" type="curve"/>
			<point x="138" y="404" type="line"/>
		</contour>
		<contour>
			<point x="565" y="-33" type="curve"/>
			<point x="565" y="-23"/>
			<point x="565" y="43"/>
			<point x="565" y="53" type="curve" smooth="yes"/>
			<point x="565" y="60"/>
			<point x="561" y="64"/>
			<point x="554" y="64" type="curve" smooth="yes"/>
			<point x="481" y="64" type="line" smooth="yes"/>
			<point x="420" y="64"/>
			<point x="382" y="56"/>
			<point x="350" y="35" type="curve"/>
			<point x="369" y="30" type="line"/>
			<point x="369" y="93" type="line"/>
			<point x="364" y="52" type="line"/>
			<point x="369" y="76"/>
			<point x="387" y="90"/>
			<point x="449" y="105" type="curve" smooth="yes"/>
			<point x="525" y="123"/>
			<point x="561" y="160"/>
			<point x="561" y="235" type="curve" smooth="yes"/>
			<point x="561" y="243" type="line" smooth="yes"/>
			<point x="561" y="310"/>
			<point x="512" y="343"/>
			<point x="415" y="343" type="curve" smooth="yes"/>
			<point x="356" y="343"/>
			<point x="316" y="335"/>
			<point x="300" y="329" type="curve" smooth="yes"/>
			<point x="292" y="326"/>
			<point x="291" y="322"/>
			<point x="291" y="318" type="curve" smooth="yes"/>
			<point x="291" y="308"/>
			<point x="291" y="240"/>
			<point x="291" y="230" type="curve"/>
			<point x="303" y="230" type="line"/>
			<point x="333" y="240"/>
			<point x="364" y="245"/>
			<point x="403" y="245" type="curve" smooth="yes"/>
			<point x="438" y="245"/>
			<point x="455" y="241"/>
			<point x="460" y="236" type="curve" smooth="yes"/>
			<point x="464" y="232"/>
			<point x="465" y="227"/>
			<point x="465" y="221" type="curve" smooth="yes"/>
			<point x="465" y="204"/>
			<point x="455" y="193"/>
			<point x="384" y="174" type="curve" smooth="yes"/>
			<point x="310" y="154"/>
			<point x="281" y="118"/>
			<point x="281" y="52" type="curve" smooth="yes"/>
			<point x="281" y="-22" type="line" smooth="yes"/>
			<point x="281" y="-29"/>
			<point x="285" y="-33"/>
			<point x="292" y="-33" type="curve" smooth="yes"/>
			<point x="302" y="-33"/>
			<point x="555" y="-33"/>
		</contour>
	</outline>
</glyph>
<glyph name="threequarters" format="2">
	<unicode hex="00BE"/>
	<advance width="600"/>
	<outline>
		<contour>
			<point x="357" y="405" type="curve"/>
			<point x="368" y="405"/>
			<point x="431" y="405"/>
			<point x="441" y="405" type="curve" smooth="yes"/>
			<point x="446" y="405"/>
			<point x="448" y="406"/>
			<point x="451" y="412" type="curve" smooth="yes"/>
			<point x="458" y="427"/>
			<point x="567" y="682"/>
			<point x="573" y="697" type="curve" smooth="yes"/>
			<point x="576" y="705"/>
			<point x="573" y="710"/>
			<point x="565" y="710" type="curve" smooth="yes"/>
			<point x="555" y="710"/>
			<point x="449" y="710"/>
			<point x="439" y="710" type="curve"/>
			<point x="436" y="699"/>
			<point x="361" y="419"/>
		</contour>
		<contour>
			<point x="243" y="296" type="curve"/>
			<point x="228" y="296"/>
			<point x="172" y="296"/>
			<point x="159" y="296" type="curve" smooth="yes"/>
			<point x="154" y="296"/>
			<point x="151" y="295"/>
			<point x="149" y="289" type="curve" smooth="yes"/>
			<point x="143" y="274"/>
			<point x="32" y="16"/>
			<point x="27" y="4" type="curve" smooth="yes"/>
			<point x="24" y="-4"/>
			<point x="27" y="-9"/>
			<point x="35" y="-9" type="curve" smooth="yes"/>
			<point x="53" y="-9"/>
			<point x="151" y="-9"/>
			<point x="161" y="-9" type="curve"/>
			<point x="164" y="3"/>
			<point x="238" y="280"/>
		</contour>
		<contour>
			<point x="326" y="644" type="curve" smooth="yes"/>
			<point x="326" y="654" type="line" smooth="yes"/>
			<point x="326" y="720"/>
			<point x="270" y="742"/>
			<point x="170" y="742" type="curve" smooth="yes"/>
			<point x="114" y="742"/>
			<point x="73" y="733"/>
			<point x="57" y="727" type="curve" smooth="yes"/>
			<point x="49" y="724"/>
			<point x="48" y="719"/>
			<point x="48" y="715" type="curve" smooth="yes"/>
			<point x="48" y="705"/>
			<point x="48" y="647"/>
			<point x="48" y="637" type="curve"/>
			<point x="60" y="637" type="line"/>
			<point x="90" y="648"/>
			<point x="122" y="654"/>
			<point x="163" y="654" type="curve" smooth="yes"/>
			<point x="209" y="654"/>
			<point x="224" y="644"/>
			<point x="224" y="621" type="curve" smooth="yes"/>
			<point x="224" y="600"/>
			<point x="204" y="588"/>
			<point x="98" y="588" type="curve"/>
			<point x="98" y="578"/>
			<point x="98" y="539"/>
			<point x="98" y="529" type="curve" smooth="yes"/>
			<point x="98" y="521"/>
			<point x="103" y="517"/>
			<point x="110" y="517" type="curve" smooth="yes"/>
			<point x="213" y="517"/>
			<point x="230" y="502"/>
			<point x="230" y="479" type="curve" smooth="yes"/>
			<point x="230" y="456"/>
			<point x="216" y="445"/>
			<point x="170" y="445" type="curve" smooth="yes"/>
			<point x="125" y="445"/>
			<point x="91" y="451"/>
			<point x="61" y="463" type="curve"/>
			<point x="49" y="463" type="line"/>
			<point x="49" y="453"/>
			<point x="49" y="402"/>
			<point x="49" y="392" type="curve" smooth="yes"/>
			<point x="49" y="384"/>
			<point x="50" y="381"/>
			<point x="55" y="377" type="curve" smooth="yes"/>
			<point x="76" y="366"/>
			<point x="113" y="357"/>
			<point x="178" y="357" type="curve" smooth="yes"/>
			<point x="280" y="357"/>
			<point x="330" y="385"/>
			<point x="330" y="456" type="curve" smooth="yes"/>
			<point x="330" y="462" type="line" smooth="yes"/>
			<point x="330" y="511"/>
			<point x="300" y="541"/>
			<point x="217" y="548" type="curve"/>
			<point x="258" y="528" type="line"/>
			<point x="258" y="575" type="line"/>
			<point x="218" y="553" type="line"/>
			<point x="303" y="566"/>
			<point x="326" y="597"/>
		</contour>
		<contour>
			<point x="546" y="-42" type="curve"/>
			<point x="546" y="-32"/>
			<point x="546" y="-1"/>
			<point x="546" y="9" type="curve" smooth="yes"/>
			<point x="546" y="191" type="line" smooth="yes"/>
			<point x="546" y="198"/>
			<point x="543" y="202"/>
			<point x="535" y="202" type="curve" smooth="yes"/>
			<point x="480" y="202" type="line"/>
			<point x="476" y="192"/>
			<point x="450" y="125"/>
			<point x="450" y="119" type="curve" smooth="yes"/>
			<point x="450" y="-31" type="line" smooth="yes"/>
			<point x="450" y="-39"/>
			<point x="454" y="-42"/>
			<point x="461" y="-42" type="curve" smooth="yes"/>
			<point x="471" y="-42"/>
			<point x="536" y="-42"/>
		</contour>
		<contour>
			<point x="587" y="37" type="line"/>
			<point x="587" y="47"/>
			<point x="587" y="108"/>
			<point x="587" y="118" type="curve" smooth="yes"/>
			<point x="587" y="125"/>
			<point x="583" y="129"/>
			<point x="576" y="129" type="curve" smooth="yes"/>
			<point x="484" y="129" type="line" smooth="yes"/>
			<point x="438" y="129"/>
			<point x="401" y="124"/>
			<point x="360" y="104" type="curve"/>
			<point x="376" y="89" type="line"/>
			<point x="376" y="158" type="line"/>
			<point x="360" y="107" type="line"/>
			<point x="369" y="121"/>
			<point x="492" y="321"/>
			<point x="498" y="331" type="curve"/>
			<point x="498" y="343" type="line"/>
			<point x="488" y="343"/>
			<point x="407" y="343"/>
			<point x="397" y="343" type="curve" smooth="yes"/>
			<point x="392" y="343"/>
			<point x="387" y="342"/>
			<point x="383" y="335" type="curve" smooth="yes"/>
			<point x="377" y="325"/>
			<point x="269" y="117"/>
			<point x="269" y="115" type="curve" smooth="yes"/>
			<point x="269" y="48" type="line" smooth="yes"/>
			<point x="269" y="41"/>
			<point x="273" y="37"/>
			<point x="280" y="37" type="curve" smooth="yes"/>
		</contour>
	</outline>
</glyph>
<glyph name="questiondown" format="2">
	<unicode hex="00BF"/>
	<advance width="600"/>
	<outline>
		<contour>
			<point x="220" y="550" type="curve"/>
			<point x="220" y="371" type="line" smooth="yes"/>
			<point x="220" y="364"/>
			<point x="224" y="360"/>
			<point x="231" y="360" type="curve" smooth="yes"/>
			<point x="294" y="360"/>
			<point x="357" y="360"/>
			<point x="420" y="360" type="curve"/>
			<point x="420" y="539" type="line" smooth="yes"/>
			<point x="420" y="546"/>
			<point x="416" y="550"/>
			<point x="409" y="550" type="curve" smooth="yes"/>
			<point x="346" y="550"/>
			<point x="283" y="550"/>
		</contour>
		<contour>
			<point x="306" y="-180" type="curve" smooth="yes"/>
			<point x="409" y="-180"/>
			<point x="496" y="-157"/>
			<point x="516" y="-137" type="curve" smooth="yes"/>
			<point x="519" y="-134"/>
			<point x="520" y="-131"/>
			<point x="520" y="-126" type="curve" smooth="yes"/>
			<point x="520" y="-79"/>
			<point x="520" y="-33"/>
			<point x="520" y="14" type="curve"/>
			<point x="500" y="14" type="line"/>
			<point x="443" y="-18"/>
			<point x="381" y="-30"/>
			<point x="307" y="-30" type="curve" smooth="yes"/>
			<point x="264" y="-30"/>
			<point x="241" y="-25"/>
			<point x="228" y="-16" type="curve"/>
			<point x="219" y="-9"/>
			<point x="216" y="1"/>
			<point x="216" y="13" type="curve" smooth="yes"/>
			<point x="216" y="48"/>
			<point x="222" y="56"/>
			<point x="277" y="94" type="curve" smooth="yes"/>
			<point x="300" y="110" type="line" smooth="yes"/>
			<point x="376" y="163"/>
			<point x="398" y="195"/>
			<point x="398" y="251" type="curve" smooth="yes"/>
			<point x="398" y="277" type="line" smooth="yes"/>
			<point x="398" y="286"/>
			<point x="395" y="288"/>
			<point x="387" y="288" type="curve" smooth="yes"/>
			<point x="246" y="288" type="line"/>
			<point x="246" y="282" type="line" smooth="yes"/>
			<point x="246" y="249"/>
			<point x="236" y="237"/>
			<point x="197" y="212" type="curve" smooth="yes"/>
			<point x="166" y="192" type="line" smooth="yes"/>
			<point x="85" y="139"/>
			<point x="66" y="94"/>
			<point x="66" y="18" type="curve" smooth="yes"/>
			<point x="66" y="-13" type="line" smooth="yes"/>
			<point x="66" y="-96"/>
			<point x="135" y="-180"/>
		</contour>
	</outline>
</glyph>
<glyph name="Agrave" format="2">
	<unicode hex="00C0"/>
	<advance width="650"/>
	<outline>
		<contour>
			<point x="149" y="280" type="line"/>
			<point x="147" y="161" type="line" smooth="yes"/>
			<point x="147" y="155"/>
			<point x="152" y="150"/>
			<point x="158" y="150" type="curve"/>
			<point x="485" y="150" type="line"/>
			<point x="454" y="289" type="line"/>
			<point x="417" y="280" type="line"/>
			<point x="395" y="280"/>
			<point x="373" y="280"/>
			<point x="351" y="280" type="curve"/>
		</contour>
		<contour>
			<point x="184" y="0" type="curve"/>
			<point x="269" y="347"/>
			<point x="305" y="498"/>
			<point x="318" y="606" type="curve"/>
			<point x="275" y="580" type="line"/>
			<point x="377" y="580" type="line"/>
			<point x="333" y="606" type="line"/>
			<point x="345" y="498"/>
			<point x="379" y="346"/>
			<point x="461" y="11" type="curve" smooth="yes"/>
			<point x="463" y="3"/>
			<point x="466" y="0"/>
			<point x="472" y="0" type="curve" smooth="yes"/>
			<point x="520" y="0"/>
			<point x="573" y="0"/>
			<point x="615" y="0" type="curve"/>
			<point x="605" y="53"/>
			<point x="593" y="104"/>
			<point x="582" y="153" type="curve" smooth="yes"/>
			<point x="533" y="367"/>
			<point x="490" y="548"/>
			<point x="457" y="689" type="curve" smooth="yes"/>
			<point x="455" y="696"/>
			<point x="452" y="700"/>
			<point x="445" y="700" type="curve" smooth="yes"/>
			<point x="374" y="700"/>
			<point x="279" y="700"/>
			<point x="195" y="700" type="curve"/>
			<point x="167" y="576"/>
			<point x="58" y="111"/>
			<point x="35" y="13" type="curve" smooth="yes"/>
			<point x="33" y="3"/>
			<point x="39" y="0"/>
			<point x="43" y="0" type="curve"/>
			<point x="90" y="0"/>
			<point x="137" y="0"/>
		</contour>
		<contour>
			<point x="284" y="957" type="curve"/>
			<point x="201" y="957"/>
			<point x="183" y="957"/>
			<point x="112" y="957" type="curve" smooth="yes"/>
			<point x="104" y="957"/>
			<point x="101" y="949"/>
			<point x="106" y="943" type="curve" smooth="yes"/>
			<point x="157" y="887"/>
			<point x="182" y="858"/>
			<point x="254" y="781" type="curve" smooth="yes"/>
			<point x="257" y="778"/>
			<point x="262" y="775"/>
			<point x="270" y="775" type="curve" smooth="yes"/>
			<point x="333" y="775"/>
			<point x="352" y="775"/>
			<point x="390" y="775" type="curve"/>
			<point x="355" y="836"/>
			<point x="319" y="896"/>
		</contour>
	</outline>
</glyph>
<glyph name="Atilde" format="2">
	<unicode hex="00C3"/>
	<advance width="650"/>
	<outline>
		<contour>
			<point x="149" y="280" type="line"/>
			<point x="147" y="161" type="line" smooth="yes"/>
			<point x="147" y="155"/>
			<point x="152" y="150"/>
			<point x="158" y="150" type="curve"/>
			<point x="485" y="150" type="line"/>
			<point x="454" y="289" type="line"/>
			<point x="417" y="280" type="line"/>
			<point x="395" y="280"/>
			<point x="373" y="280"/>
			<point x="351" y="280" type="curve"/>
		</contour>
		<contour>
			<point x="184" y="0" type="curve"/>
			<point x="269" y="347"/>
			<point x="305" y="498"/>
			<point x="318" y="606" type="curve"/>
			<point x="275" y="580" type="line"/>
			<point x="377" y="580" type="line"/>
			<point x="333" y="606" type="line"/>
			<point x="345" y="498"/>
			<point x="379" y="346"/>
			<point x="461" y="11" type="curve" smooth="yes"/>
			<point x="463" y="3"/>
			<point x="466" y="0"/>
			<point x="472" y="0" type="curve" smooth="yes"/>
			<point x="520" y="0"/>
			<point x="573" y="0"/>
			<point x="615" y="0" type="curve"/>
			<point x="605" y="53"/>
			<point x="593" y="104"/>
			<point x="582" y="153" type="curve" smooth="yes"/>
			<point x="533" y="367"/>
			<point x="490" y="548"/>
			<point x="457" y="689" type="curve" smooth="yes"/>
			<point x="455" y="696"/>
			<point x="452" y="700"/>
			<point x="445" y="700" type="curve" smooth="yes"/>
			<point x="374" y="700"/>
			<point x="279" y="700"/>
			<point x="195" y="700" type="curve"/>
			<point x="167" y="576"/>
			<point x="58" y="111"/>
			<point x="35" y="13" type="curve" smooth="yes"/>
			<point x="33" y="3"/>
			<point x="39" y="0"/>
			<point x="43" y="0" type="curve"/>
			<point x="90" y="0"/>
			<point x="137" y="0"/>
		</contour>
		<contour>
			<point x="435" y="907" type="curve" smooth="yes"/>
			<point x="362" y="907"/>
			<point x="311" y="962"/>
			<point x="221" y="962" type="curve" smooth="yes"/>
			<point x="176" y="962"/>
			<point x="146" y="948"/>
			<point x="125" y="925" type="curve" smooth="yes"/>
			<point x="118" y="917"/>
			<point x="118" y="913"/>
			<point x="118" y="902" type="curve" smooth="yes"/>
			<point x="118" y="873"/>
			<point x="118" y="817"/>
			<point x="118" y="780" type="curve"/>
			<point x="138" y="780" type="line"/>
			<point x="158" y="808"/>
			<point x="184" y="820"/>
			<point x="215" y="820" type="curve" smooth="yes"/>
			<point x="288" y="820"/>
			<point x="339" y="765"/>
			<point x="429" y="765" type="curve" smooth="yes"/>
			<point x="474" y="765"/>
			<point x="504" y="779"/>
			<point x="525" y="802" type="curve" smooth="yes"/>
			<point x="532" y="809"/>
			<point x="532" y="813"/>
			<point x="532" y="825" type="curve" smooth="yes"/>
			<point x="532" y="853"/>
			<point x="532" y="910"/>
			<point x="532" y="947" type="curve"/>
			<point x="512" y="947" type="line"/>
			<point x="492" y="918"/>
			<point x="466" y="907"/>
		</contour>
	</outline>
</glyph>
<glyph name="Ccedilla" format="2">
	<unicode hex="00C7"/>
	<advance width="600"/>
	<outline>
		<contour>
			<point x="344" y="-20" type="curve"/>
			<point x="439" y="-20"/>
			<point x="518" y="7"/>
			<point x="544" y="33" type="curve" smooth="yes"/>
			<point x="548" y="37"/>
			<point x="550" y="42"/>
			<point x="550" y="49" type="curve"/>
			<point x="550" y="94"/>
			<point x="550" y="129"/>
			<point x="550" y="172" type="curve"/>
			<point x="530" y="172" type="line"/>
			<point x="467" y="133"/>
			<point x="417" y="120"/>
			<point x="345" y="120" type="curve"/>
			<point x="302" y="120"/>
			<point x="266" y="127"/>
			<point x="243" y="150" type="curve"/>
			<point x="220" y="173"/>
			<point x="210" y="211"/>
			<point x="210" y="268" type="curve"/>
			<point x="210" y="452" type="line"/>
			<point x="210" y="540"/>
			<point x="256" y="577"/>
			<point x="328" y="577" type="curve"/>
			<point x="369" y="577"/>
			<point x="400" y="572"/>
			<point x="431" y="553" type="curve"/>
			<point x="403" y="594" type="line"/>
			<point x="403" y="532"/>
			<point x="403" y="501"/>
			<point x="403" y="469" type="curve"/>
			<point x="403" y="462"/>
			<point x="407" y="458"/>
			<point x="414" y="458" type="curve"/>
			<point x="457" y="458"/>
			<point x="500" y="458"/>
			<point x="543" y="458" type="curve"/>
			<point x="543" y="516"/>
			<point x="543" y="588"/>
			<point x="543" y="638" type="curve"/>
			<point x="543" y="646"/>
			<point x="542" y="651"/>
			<point x="537" y="656" type="curve" smooth="yes"/>
			<point x="506" y="687"/>
			<point x="433" y="720"/>
			<point x="331" y="720" type="curve"/>
			<point x="152" y="720"/>
			<point x="50" y="612"/>
			<point x="50" y="455" type="curve"/>
			<point x="50" y="256" type="line"/>
			<point x="50" y="80"/>
			<point x="146" y="-20"/>
		</contour>
		<contour>
			<point x="439" y="-127" type="curve" smooth="yes"/>
			<point x="439" y="-67"/>
			<point x="398" y="-32"/>
			<point x="334" y="-30" type="curve"/>
			<point x="336" y="-21" type="line"/>
			<point x="341" y="-2"/>
			<point x="349" y="28"/>
			<point x="356" y="56" type="curve"/>
			<point x="304" y="56"/>
			<point x="296" y="51"/>
			<point x="291" y="41" type="curve" smooth="yes"/>
			<point x="278" y="12"/>
			<point x="265" y="-19"/>
			<point x="250" y="-55" type="curve" smooth="yes"/>
			<point x="246" y="-64"/>
			<point x="251" y="-70"/>
			<point x="258" y="-70" type="curve" smooth="yes"/>
			<point x="289" y="-70"/>
			<point x="308" y="-82"/>
			<point x="308" y="-106" type="curve" smooth="yes"/>
			<point x="308" y="-131"/>
			<point x="287" y="-140"/>
			<point x="263" y="-140" type="curve" smooth="yes"/>
			<point x="238" y="-140"/>
			<point x="219" y="-135"/>
			<point x="200" y="-128" type="curve"/>
			<point x="188" y="-128" type="line"/>
			<point x="188" y="-153"/>
			<point x="188" y="-184"/>
			<point x="188" y="-218" type="curve" smooth="yes"/>
			<point x="188" y="-239"/>
			<point x="210" y="-250"/>
			<point x="286" y="-250" type="curve" smooth="yes"/>
			<point x="389" y="-250"/>
			<point x="439" y="-208"/>
		</contour>
	</outline>
</glyph>
<glyph name="Eacute" format="2">
	<unicode hex="00C9"/>
	<advance width="550"/>
	<outline>
		<contour>
			<point x="30" y="700" type="line"/>
			<point x="30" y="654"/>
			<point x="30" y="622"/>
			<point x="30" y="576" type="curve" smooth="yes"/>
			<point x="30" y="570"/>
			<point x="35" y="565"/>
			<point x="41" y="565" type="curve" smooth="yes"/>
			<point x="500" y="565" type="line"/>
			<point x="500" y="611"/>
			<point x="500" y="643"/>
			<point x="500" y="689" type="curve" smooth="yes"/>
			<point x="500" y="695"/>
			<point x="495" y="700"/>
			<point x="489" y="700" type="curve" smooth="yes"/>
		</contour>
		<contour>
			<point x="176" y="416" type="line"/>
			<point x="176" y="286" type="line"/>
			<point x="440" y="286" type="line"/>
			<point x="440" y="325"/>
			<point x="440" y="358"/>
			<point x="440" y="405" type="curve" smooth="yes"/>
			<point x="440" y="411"/>
			<point x="435" y="416"/>
			<point x="429" y="416" type="curve"/>
		</contour>
		<contour>
			<point x="86" y="0" type="curve" smooth="yes"/>
			<point x="500" y="0" type="line"/>
			<point x="500" y="44"/>
			<point x="500" y="80"/>
			<point x="500" y="124" type="curve"/>
			<point x="500" y="130"/>
			<point x="495" y="135"/>
			<point x="489" y="135" type="curve"/>
			<point x="235" y="135" type="line"/>
			<point x="235" y="253"/>
			<point x="235" y="377"/>
			<point x="235" y="495" type="curve" smooth="yes"/>
			<point x="235" y="527"/>
			<point x="235" y="560"/>
			<point x="235" y="592" type="curve"/>
			<point x="243" y="616" type="line"/>
			<point x="75" y="616" type="line"/>
			<point x="75" y="415"/>
			<point x="75" y="77"/>
			<point x="75" y="11" type="curve"/>
			<point x="75" y="5"/>
			<point x="80" y="0"/>
		</contour>
		<contour>
			<point x="301" y="957" type="curve"/>
			<point x="266" y="896"/>
			<point x="230" y="836"/>
			<point x="195" y="775" type="curve"/>
			<point x="233" y="775"/>
			<point x="252" y="775"/>
			<point x="315" y="775" type="curve" smooth="yes"/>
			<point x="323" y="775"/>
			<point x="328" y="778"/>
			<point x="331" y="781" type="curve" smooth="yes"/>
			<point x="403" y="858"/>
			<point x="428" y="887"/>
			<point x="479" y="943" type="curve" smooth="yes"/>
			<point x="484" y="949"/>
			<point x="481" y="957"/>
			<point x="473" y="957" type="curve" smooth="yes"/>
			<point x="402" y="957"/>
			<point x="384" y="957"/>
		</contour>
	</outline>
</glyph>
<glyph name="Ecircumflex" format="2">
	<unicode hex="00CA"/>
	<advance width="550"/>
	<outline>
		<contour>
			<point x="30" y="700" type="line"/>
			<point x="30" y="654"/>
			<point x="30" y="622"/>
			<point x="30" y="576" type="curve" smooth="yes"/>
			<point x="30" y="570"/>
			<point x="35" y="565"/>
			<point x="41" y="565" type="curve" smooth="yes"/>
			<point x="500" y="565" type="line"/>
			<point x="500" y="611"/>
			<point x="500" y="643"/>
			<point x="500" y="689" type="curve" smooth="yes"/>
			<point x="500" y="695"/>
			<point x="495" y="700"/>
			<point x="489" y="700" type="curve" smooth="yes"/>
		</contour>
		<contour>
			<point x="176" y="416" type="line"/>
			<point x="176" y="286" type="line"/>
			<point x="440" y="286" type="line"/>
			<point x="440" y="325"/>
			<point x="440" y="358"/>
			<point x="440" y="405" type="curve" smooth="yes"/>
			<point x="440" y="411"/>
			<point x="435" y="416"/>
			<point x="429" y="416" type="curve"/>
		</contour>
		<contour>
			<point x="86" y="0" type="curve" smooth="yes"/>
			<point x="500" y="0" type="line"/>
			<point x="500" y="44"/>
			<point x="500" y="80"/>
			<point x="500" y="124" type="curve"/>
			<point x="500" y="130"/>
			<point x="495" y="135"/>
			<point x="489" y="135" type="curve"/>
			<point x="235" y="135" type="line"/>
			<point x="235" y="253"/>
			<point x="235" y="377"/>
			<point x="235" y="495" type="curve" smooth="yes"/>
			<point x="235" y="527"/>
			<point x="235" y="560"/>
			<point x="235" y="592" type="curve"/>
			<point x="243" y="616" type="line"/>
			<point x="75" y="616" type="line"/>
			<point x="75" y="415"/>
			<point x="75" y="77"/>
			<point x="75" y="11" type="curve"/>
			<point x="75" y="5"/>
			<point x="80" y="0"/>
		</contour>
		<contour>
			<point x="178" y="947" type="curve"/>
			<point x="141" y="909"/>
			<point x="79" y="844"/>
			<point x="45" y="808" type="curve" smooth="yes"/>
			<point x="27" y="789"/>
			<point x="25" y="787"/>
			<point x="25" y="782" type="curve" smooth="yes"/>
			<point x="25" y="777"/>
			<point x="28" y="775"/>
			<point x="36" y="775" type="curve" smooth="yes"/>
			<point x="163" y="775" type="line"/>
			<point x="194" y="802"/>
			<point x="233" y="834"/>
			<point x="280" y="880" type="curve"/>
			<point x="230" y="857" type="line"/>
			<point x="252" y="857"/>
			<point x="274" y="857"/>
			<point x="296" y="857" type="curve"/>
			<point x="244" y="878" type="line"/>
			<point x="295" y="829"/>
			<point x="328" y="801"/>
			<point x="348" y="785" type="curve" smooth="yes"/>
			<point x="359" y="777"/>
			<point x="361" y="775"/>
			<point x="376" y="775" type="curve" smooth="yes"/>
			<point x="413" y="775"/>
			<point x="472" y="775"/>
			<point x="509" y="775" type="curve"/>
			<point x="454" y="833"/>
			<point x="383" y="907"/>
			<point x="362" y="928" type="curve" smooth="yes"/>
			<point x="345" y="945"/>
			<point x="340" y="947"/>
			<point x="331" y="947" type="curve" smooth="yes"/>
			<point x="301" y="947"/>
			<point x="209" y="947"/>
		</contour>
	</outline>
</glyph>
<glyph name="Icircumflex" format="2">
	<unicode hex="00CE"/>
	<advance width="500"/>
	<outline>
		<contour>
			<point x="330" y="85" type="line"/>
			<point x="330" y="220"/>
			<point x="330" y="359"/>
			<point x="330" y="495" type="curve"/>
			<point x="330" y="517"/>
			<point x="330" y="547"/>
			<point x="330" y="569" type="curve"/>
			<point x="334" y="615" type="line"/>
			<point x="170" y="615" type="line"/>
			<point x="170" y="479"/>
			<point x="170" y="340"/>
			<point x="170" y="205" type="curve"/>
			<point x="170" y="184"/>
			<point x="170" y="152"/>
			<point x="170" y="131" type="curve"/>
			<point x="166" y="85" type="line"/>
		</contour>
		<contour>
			<point x="430" y="0" type="line"/>
			<point x="430" y="44"/>
			<point x="430" y="80"/>
			<point x="430" y="124" type="curve" smooth="yes"/>
			<point x="430" y="130"/>
			<point x="425" y="135"/>
			<point x="419" y="135" type="curve" smooth="yes"/>
			<point x="70" y="135" type="line"/>
			<point x="70" y="91"/>
			<point x="70" y="55"/>
			<point x="70" y="11" type="curve" smooth="yes"/>
			<point x="70" y="5"/>
			<point x="75" y="0"/>
			<point x="81" y="0" type="curve" smooth="yes"/>
		</contour>
		<contour>
			<point x="70" y="700" type="line"/>
			<point x="70" y="656"/>
			<point x="70" y="620"/>
			<point x="70" y="576" type="curve"/>
			<point x="70" y="570"/>
			<point x="75" y="565"/>
			<point x="81" y="565" type="curve" smooth="yes"/>
			<point x="430" y="565" type="line"/>
			<point x="430" y="609"/>
			<point x="430" y="645"/>
			<point x="430" y="689" type="curve" smooth="yes"/>
			<point x="430" y="695"/>
			<point x="425" y="700"/>
			<point x="419" y="700" type="curve" smooth="yes"/>
		</contour>
		<contour>
			<point x="168" y="947" type="curve"/>
			<point x="131" y="909"/>
			<point x="69" y="844"/>
			<point x="35" y="808" type="curve" smooth="yes"/>
			<point x="17" y="789"/>
			<point x="15" y="787"/>
			<point x="15" y="782" type="curve" smooth="yes"/>
			<point x="15" y="777"/>
			<point x="18" y="775"/>
			<point x="26" y="775" type="curve" smooth="yes"/>
			<point x="153" y="775" type="line"/>
			<point x="184" y="802"/>
			<point x="223" y="834"/>
			<point x="270" y="880" type="curve"/>
			<point x="220" y="857" type="line"/>
			<point x="242" y="857"/>
			<point x="264" y="857"/>
			<point x="286" y="857" type="curve"/>
			<point x="234" y="878" type="line"/>
			<point x="285" y="829"/>
			<point x="318" y="801"/>
			<point x="338" y="785" type="curve" smooth="yes"/>
			<point x="349" y="777"/>
			<point x="351" y="775"/>
			<point x="366" y="775" type="curve" smooth="yes"/>
			<point x="403" y="775"/>
			<point x="462" y="775"/>
			<point x="499" y="775" type="curve"/>
			<point x="444" y="833"/>
			<point x="373" y="907"/>
			<point x="352" y="928" type="curve" smooth="yes"/>
			<point x="335" y="945"/>
			<point x="330" y="947"/>
			<point x="321" y="947" type="curve" smooth="yes"/>
			<point x="291" y="947"/>
			<point x="199" y="947"/>
		</contour>
	</outline>
</glyph>
<glyph name="Ntilde" format="2">
	<unicode hex="00D1"/>
	<advance width="650"/>
	<outline>
		<contour>
			<point x="200" y="0" type="curve"/>
			<point x="200" y="54"/>
			<point x="200" y="109"/>
			<point x="200" y="163" type="curve"/>
			<point x="200" y="231"/>
			<point x="196" y="341"/>
			<point x="167" y="490" type="curve"/>
			<point x="148" y="480" type="line"/>
			<point x="221" y="480" type="line"/>
			<point x="174" y="513" type="line"/>
			<point x="248" y="359"/>
			<point x="308" y="241"/>
			<point x="448" y="8" type="curve" smooth="yes"/>
			<point x="452" y="1"/>
			<point x="455" y="0"/>
			<point x="463" y="0" type="curve" smooth="yes"/>
			<point x="501" y="0"/>
			<point x="558" y="0"/>
			<point x="600" y="0" type="curve"/>
			<point x="600" y="33"/>
			<point x="600" y="67"/>
			<point x="600" y="100" type="curve" smooth="yes"/>
			<point x="600" y="296"/>
			<point x="600" y="493"/>
			<point x="600" y="689" type="curve" smooth="yes"/>
			<point x="600" y="695"/>
			<point x="595" y="700"/>
			<point x="589" y="700" type="curve" smooth="yes"/>
			<point x="543" y="700"/>
			<point x="496" y="700"/>
			<point x="450" y="700" type="curve"/>
			<point x="450" y="651"/>
			<point x="450" y="603"/>
			<point x="450" y="567" type="curve" smooth="yes"/>
			<point x="450" y="464"/>
			<point x="457" y="379"/>
			<point x="488" y="233" type="curve"/>
			<point x="509" y="243" type="line"/>
			<point x="439" y="243" type="line"/>
			<point x="479" y="217" type="line"/>
			<point x="405" y="369"/>
			<point x="343" y="482"/>
			<point x="230" y="690" type="curve" smooth="yes"/>
			<point x="225" y="700"/>
			<point x="225" y="700"/>
			<point x="213" y="700" type="curve" smooth="yes"/>
			<point x="168" y="700"/>
			<point x="95" y="700"/>
			<point x="50" y="700" type="curve"/>
			<point x="50" y="667"/>
			<point x="50" y="633"/>
			<point x="50" y="600" type="curve" smooth="yes"/>
			<point x="50" y="404"/>
			<point x="50" y="207"/>
			<point x="50" y="11" type="curve"/>
			<point x="50" y="5"/>
			<point x="55" y="0"/>
			<point x="61" y="0" type="curve" smooth="yes"/>
			<point x="107" y="0"/>
			<point x="154" y="0"/>
		</contour>
		<contour>
			<point x="460" y="907" type="curve" smooth="yes"/>
			<point x="387" y="907"/>
			<point x="336" y="962"/>
			<point x="246" y="962" type="curve" smooth="yes"/>
			<point x="201" y="962"/>
			<point x="171" y="948"/>
			<point x="150" y="925" type="curve" smooth="yes"/>
			<point x="143" y="917"/>
			<point x="143" y="913"/>
			<point x="143" y="902" type="curve" smooth="yes"/>
			<point x="143" y="873"/>
			<point x="143" y="817"/>
			<point x="143" y="780" type="curve"/>
			<point x="163" y="780" type="line"/>
			<point x="183" y="808"/>
			<point x="209" y="820"/>
			<point x="240" y="820" type="curve" smooth="yes"/>
			<point x="313" y="820"/>
			<point x="364" y="765"/>
			<point x="454" y="765" type="curve" smooth="yes"/>
			<point x="499" y="765"/>
			<point x="529" y="779"/>
			<point x="550" y="802" type="curve" smooth="yes"/>
			<point x="557" y="809"/>
			<point x="557" y="813"/>
			<point x="557" y="825" type="curve" smooth="yes"/>
			<point x="557" y="853"/>
			<point x="557" y="910"/>
			<point x="557" y="947" type="curve"/>
			<point x="537" y="947" type="line"/>
			<point x="517" y="918"/>
			<point x="491" y="907"/>
		</contour>
	</outline>
</glyph>
<glyph name="Ograve" format="2">
	<unicode hex="00D2"/>
	<advance width="650"/>
	<outline>
		<contour>
			<point x="325" y="720" type="curve" smooth="yes"/>
			<point x="184" y="720"/>
			<point x="55" y="623"/>
			<point x="55" y="438" type="curve" smooth="yes"/>
			<point x="55" y="250" type="line" smooth="yes"/>
			<point x="55" y="79"/>
			<point x="172" y="-20"/>
			<point x="325" y="-20" type="curve" smooth="yes"/>
			<point x="482" y="-20"/>
			<point x="595" y="79"/>
			<point x="595" y="250" type="curve" smooth="yes"/>
			<point x="595" y="438" type="line" smooth="yes"/>
			<point x="595" y="623"/>
			<point x="476" y="720"/>
		</contour>
		<contour>
			<point x="205" y="262" type="curve" smooth="yes"/>
			<point x="205" y="450" type="line" smooth="yes"/>
			<point x="205" y="533"/>
			<point x="245" y="585"/>
			<point x="327" y="585" type="curve" smooth="yes"/>
			<point x="368" y="585"/>
			<point x="395" y="575"/>
			<point x="414" y="557" type="curve" smooth="yes"/>
			<point x="436" y="537"/>
			<point x="445" y="510"/>
			<point x="445" y="450" type="curve" smooth="yes"/>
			<point x="445" y="262" type="line" smooth="yes"/>
			<point x="445" y="166"/>
			<point x="397" y="117"/>
			<point x="330" y="117" type="curve" smooth="yes"/>
			<point x="293" y="117"/>
			<point x="262" y="127"/>
			<point x="245" y="141" type="curve" smooth="yes"/>
			<point x="228" y="155"/>
			<point x="205" y="185"/>
		</contour>
		<contour>
			<point x="284" y="957" type="curve"/>
			<point x="201" y="957"/>
			<point x="183" y="957"/>
			<point x="112" y="957" type="curve" smooth="yes"/>
			<point x="104" y="957"/>
			<point x="101" y="949"/>
			<point x="106" y="943" type="curve" smooth="yes"/>
			<point x="157" y="887"/>
			<point x="182" y="858"/>
			<point x="254" y="781" type="curve" smooth="yes"/>
			<point x="257" y="778"/>
			<point x="262" y="775"/>
			<point x="270" y="775" type="curve" smooth="yes"/>
			<point x="333" y="775"/>
			<point x="352" y="775"/>
			<point x="390" y="775" type="curve"/>
			<point x="355" y="836"/>
			<point x="319" y="896"/>
		</contour>
	</outline>
</glyph>
<glyph name="Ocircumflex" format="2">
	<unicode hex="00D4"/>
	<advance width="650"/>
	<outline>
		<contour>
			<point x="325" y="720" type="curve" smooth="yes"/>
			<point x="184" y="720"/>
			<point x="55" y="623"/>
			<point x="55" y="438" type="curve" smooth="yes"/>
			<point x="55" y="250" type="line" smooth="yes"/>
			<point x="55" y="79"/>
			<point x="172" y="-20"/>
			<point x="325" y="-20" type="curve" smooth="yes"/>
			<point x="482" y="-20"/>
			<point x="595" y="79"/>
			<point x="595" y="250" type="curve" smooth="yes"/>
			<point x="595" y="438" type="line" smooth="yes"/>
			<point x="595" y="623"/>
			<point x="476" y="720"/>
		</contour>
		<contour>
			<point x="205" y="262" type="curve" smooth="yes"/>
			<point x="205" y="450" type="line" smooth="yes"/>
			<point x="205" y="533"/>
			<point x="245" y="585"/>
			<point x="327" y="585" type="curve" smooth="yes"/>
			<point x="368" y="585"/>
			<point x="395" y="575"/>
			<point x="414" y="557" type="curve" smooth="yes"/>
			<point x="436" y="537"/>
			<point x="445" y="510"/>
			<point x="445" y="450" type="curve" smooth="yes"/>
			<point x="445" y="262" type="line" smooth="yes"/>
			<point x="445" y="166"/>
			<point x="397" y="117"/>
			<point x="330" y="117" type="curve" smooth="yes"/>
			<point x="293" y="117"/>
			<point x="262" y="127"/>
			<point x="245" y="141" type="curve" smooth="yes"/>
			<point x="228" y="155"/>
			<point x="205" y="185"/>
		</contour>
		<contour>
			<point x="243" y="947" type="curve"/>
			<point x="206" y="909"/>
			<point x="144" y="844"/>
			<point x="110" y="808" type="curve" smooth="yes"/>
			<point x="92" y="789"/>
			<point x="90" y="787"/>
			<point x="90" y="782" type="curve" smooth="yes"/>
			<point x="90" y="777"/>
			<point x="93" y="775"/>
			<point x="101" y="775" type="curve" smooth="yes"/>
			<point x="228" y="775" type="line"/>
			<point x="259" y="802"/>
			<point x="298" y="834"/>
			<point x="345" y="880" type="curve"/>
			<point x="295" y="857" type="line"/>
			<point x="317" y="857"/>
			<point x="339" y="857"/>
			<point x="361" y="857" type="curve"/>
			<point x="309" y="878" type="line"/>
			<point x="360" y="829"/>
			<point x="393" y="801"/>
			<point x="413" y="785" type="curve" smooth="yes"/>
			<point x="424" y="777"/>
			<point x="426" y="775"/>
			<point x="441" y="775" type="curve" smooth="yes"/>
			<point x="478" y="775"/>
			<point x="537" y="775"/>
			<point x="574" y="775" type="curve"/>
			<point x="519" y="833"/>
			<point x="448" y="907"/>
			<point x="427" y="928" type="curve" smooth="yes"/>
			<point x="410" y="945"/>
			<point x="405" y="947"/>
			<point x="396" y="947" type="curve" smooth="yes"/>
			<point x="366" y="947"/>
			<point x="274" y="947"/>
		</contour>
	</outline>
</glyph>
<glyph name="Odieresis" format="2">
	<unicode hex="00D6"/>
	<advance width="650"/>
	<outline>
		<contour>
			<point x="325" y="720" type="curve" smooth="yes"/>
			<point x="184" y="720"/>
			<point x="55" y="623"/>
			<point x="55" y="438" type="curve" smooth="yes"/>
			<point x="55" y="250" type="line" smooth="yes"/>
			<point x="55" y="79"/>
			<point x="172" y="-20"/>
			<point x="325" y="-20" type="curve" smooth="yes"/>
			<point x="482" y="-20"/>
			<point x="595" y="79"/>
			<point x="595" y="250" type="curve" smooth="yes"/>
			<point x="595" y="438" type="line" smooth="yes"/>
			<point x="595" y="623"/>
			<point x="476" y="720"/>
		</contour>
		<contour>
			<point x="205" y="262" type="curve" smooth="yes"/>
			<point x="205" y="450" type="line" smooth="yes"/>
			<point x="205" y="533"/>
			<point x="245" y="585"/>
			<point x="327" y="585" type="curve" smooth="yes"/>
			<point x="368" y="585"/>
			<point x="395" y="575"/>
			<point x="414" y="557" type="curve" smooth="yes"/>
			<point x="436" y="537"/>
			<point x="445" y="510"/>
			<point x="445" y="450" type="curve" smooth="yes"/>
			<point x="445" y="262" type="line" smooth="yes"/>
			<point x="445" y="166"/>
			<point x="397" y="117"/>
			<point x="330" y="117" type="curve" smooth="yes"/>
			<point x="293" y="117"/>
			<point x="262" y="127"/>
			<point x="245" y="141" type="curve" smooth="yes"/>
			<point x="228" y="155"/>
			<point x="205" y="185"/>
		</contour>
		<contour>
			<point x="137" y="935" type="curve"/>
			<point x="137" y="799" type="line" smooth="yes"/>
			<point x="137" y="792"/>
			<point x="141" y="788"/>
			<point x="148" y="788" type="curve" smooth="yes"/>
			<point x="196" y="788"/>
			<point x="245" y="788"/>
			<point x="293" y="788" type="curve"/>
			<point x="293" y="924" type="line" smooth="yes"/>
			<point x="293" y="931"/>
			<point x="289" y="935"/>
			<point x="282" y="935" type="curve" smooth="yes"/>
			<point x="234" y="935"/>
			<point x="185" y="935"/>
		</contour>
		<contour>
			<point x="357" y="935" type="curve"/>
			<point x="357" y="799" type="line" smooth="yes"/>
			<point x="357" y="792"/>
			<point x="361" y="788"/>
			<point x="368" y="788" type="curve" smooth="yes"/>
			<point x="416" y="788"/>
			<point x="465" y="788"/>
			<point x="513" y="788" type="curve"/>
			<point x="513" y="924" type="line" smooth="yes"/>
			<point x="513" y="931"/>
			<point x="509" y="935"/>
			<point x="502" y="935" type="curve" smooth="yes"/>
			<point x="454" y="935"/>
			<point x="405" y="935"/>
		</contour>
	</outline>
</glyph>
<glyph name="Ucircumflex" format="2">
	<unicode hex="00DB"/>
	<advance width="650"/>
	<outline>
		<contour>
			<point x="580" y="0" type="curve"/>
			<point x="580" y="32"/>
			<point x="580" y="70"/>
			<point x="580" y="110" type="curve"/>
			<point x="580" y="303"/>
			<point x="580" y="496"/>
			<point x="580" y="689" type="curve"/>
			<point x="580" y="695"/>
			<point x="575" y="700"/>
			<point x="569" y="700" type="curve" smooth="yes"/>
			<point x="519" y="700"/>
			<point x="470" y="700"/>
			<point x="420" y="700" type="curve"/>
			<point x="420" y="471"/>
			<point x="420" y="240"/>
			<point x="420" y="11" type="curve" smooth="yes"/>
			<point x="420" y="4"/>
			<point x="424" y="0"/>
			<point x="431" y="0" type="curve" smooth="yes"/>
			<point x="481" y="0"/>
			<point x="530" y="0"/>
		</contour>
		<contour>
			<point x="232" y="-10" type="curve" smooth="yes"/>
			<point x="310" y="-10"/>
			<point x="364" y="25"/>
			<point x="400" y="91" type="curve"/>
			<point x="442" y="91" type="line"/>
			<point x="442" y="233" type="line"/>
			<point x="393" y="164"/>
			<point x="343" y="130"/>
			<point x="283" y="130" type="curve" smooth="yes"/>
			<point x="243" y="130"/>
			<point x="230" y="144"/>
			<point x="230" y="184" type="curve" smooth="yes"/>
			<point x="230" y="338"/>
			<point x="230" y="523"/>
			<point x="230" y="689" type="curve" smooth="yes"/>
			<point x="230" y="696"/>
			<point x="226" y="700"/>
			<point x="219" y="700" type="curve" smooth="yes"/>
			<point x="169" y="700"/>
			<point x="120" y="700"/>
			<point x="70" y="700" type="curve"/>
			<point x="70" y="667"/>
			<point x="70" y="633"/>
			<point x="70" y="600" type="curve" smooth="yes"/>
			<point x="70" y="453"/>
			<point x="70" y="305"/>
			<point x="70" y="174" type="curve" smooth="yes"/>
			<point x="70" y="55"/>
			<point x="118" y="-10"/>
		</contour>
		<contour>
			<point x="243" y="947" type="curve"/>
			<point x="206" y="909"/>
			<point x="144" y="844"/>
			<point x="110" y="808" type="curve" smooth="yes"/>
			<point x="92" y="789"/>
			<point x="90" y="787"/>
			<point x="90" y="782" type="curve" smooth="yes"/>
			<point x="90" y="777"/>
			<point x="93" y="775"/>
			<point x="101" y="775" type="curve" smooth="yes"/>
			<point x="228" y="775" type="line"/>
			<point x="259" y="802"/>
			<point x="298" y="834"/>
			<point x="345" y="880" type="curve"/>
			<point x="295" y="857" type="line"/>
			<point x="317" y="857"/>
			<point x="339" y="857"/>
			<point x="361" y="857" type="curve"/>
			<point x="309" y="878" type="line"/>
			<point x="360" y="829"/>
			<point x="393" y="801"/>
			<point x="413" y="785" type="curve" smooth="yes"/>
			<point x="424" y="777"/>
			<point x="426" y="775"/>
			<point x="441" y="775" type="curve" smooth="yes"/>
			<point x="478" y="775"/>
			<point x="537" y="775"/>
			<point x="574" y="775" type="curve"/>
			<point x="519" y="833"/>
			<point x="448" y="907"/>
			<point x="427" y="928" type="curve" smooth="yes"/>
			<point x="410" y="945"/>
			<point x="405" y="947"/>
			<point x="396" y="947" type="curve" smooth="yes"/>
			<point x="366" y="947"/>
			<point x="274" y="947"/>
		</contour>
	</outline>
</glyph>
<glyph name="ccedilla" format="2">
	<unicode hex="00E7"/>
	<advance width="500"/>
	<outline>
		<contour>
			<point x="314" y="552" type="curve" smooth="yes"/>
			<point x="159" y="552"/>
			<point x="55" y="447"/>
			<point x="55" y="301" type="curve" smooth="yes"/>
			<point x="55" y="235" type="line" smooth="yes"/>
			<point x="55" y="79.0630463096"/>
			<point x="152.9874218812" y="-12"/>
			<point x="314" y="-12" type="curve" smooth="yes"/>
			<point x="388" y="-12"/>
			<point x="436" y="2"/>
			<point x="447" y="13" type="curve" smooth="yes"/>
			<point x="449" y="15"/>
			<point x="450" y="18"/>
			<point x="450" y="21" type="curve" smooth="yes"/>
			<point x="450" y="64"/>
			<point x="450" y="107"/>
			<point x="450" y="150" type="curve"/>
			<point x="430" y="150" type="line"/>
			<point x="392" y="136"/>
			<point x="354" y="130"/>
			<point x="313" y="130" type="curve" smooth="yes"/>
			<point x="282" y="130"/>
			<point x="259" y="137"/>
			<point x="242" y="153" type="curve"/>
			<point x="221" y="171"/>
			<point x="210" y="201"/>
			<point x="210" y="243" type="curve" smooth="yes"/>
			<point x="210" y="299" type="line" smooth="yes"/>
			<point x="210" y="379"/>
			<point x="254" y="410"/>
			<point x="313" y="410" type="curve" smooth="yes"/>
			<point x="354" y="410"/>
			<point x="392" y="404"/>
			<point x="430" y="390" type="curve"/>
			<point x="450" y="390" type="line"/>
			<point x="450" y="433"/>
			<point x="450" y="476"/>
			<point x="450" y="519" type="curve"/>
			<point x="450" y="522"/>
			<point x="449" y="525"/>
			<point x="447" y="527" type="curve" smooth="yes"/>
			<point x="436" y="538"/>
			<point x="388" y="552"/>
		</contour>
		<contour>
			<point x="323" y="55" type="curve"/>
			<point x="271" y="55"/>
			<point x="263" y="50"/>
			<point x="258" y="40" type="curve" smooth="yes"/>
			<point x="245" y="11"/>
			<point x="232" y="-20"/>
			<point x="217" y="-56" type="curve" smooth="yes"/>
			<point x="213" y="-65"/>
			<point x="218" y="-71"/>
			<point x="225" y="-71" type="curve" smooth="yes"/>
			<point x="256" y="-71"/>
			<point x="275" y="-83"/>
			<point x="275" y="-107" type="curve" smooth="yes"/>
			<point x="275" y="-132"/>
			<point x="254" y="-141"/>
			<point x="230" y="-141" type="curve" smooth="yes"/>
			<point x="205" y="-141"/>
			<point x="186" y="-136"/>
			<point x="167" y="-129" type="curve"/>
			<point x="155" y="-129" type="line"/>
			<point x="155" y="-154"/>
			<point x="155" y="-185"/>
			<point x="155" y="-219" type="curve" smooth="yes"/>
			<point x="155" y="-240"/>
			<point x="177" y="-251"/>
			<point x="253" y="-251" type="curve" smooth="yes"/>
			<point x="356" y="-251"/>
			<point x="406" y="-209"/>
			<point x="406" y="-128" type="curve" smooth="yes"/>
			<point x="406" y="-68"/>
			<point x="365" y="-33"/>
			<point x="301" y="-31" type="curve"/>
			<point x="303" y="-22" type="line"/>
			<point x="308" y="-3"/>
			<point x="316" y="27"/>
		</contour>
	</outline>
</glyph>
<glyph name="ntilde" format="2">
	<unicode hex="00F1"/>
	<advance width="600"/>
	<outline>
		<contour>
			<point x="540" y="0" type="curve"/>
			<point x="540" y="33"/>
			<point x="540" y="66"/>
			<point x="540" y="99" type="curve" smooth="yes"/>
			<point x="540" y="199"/>
			<point x="540" y="297"/>
			<point x="540" y="394" type="curve" smooth="yes"/>
			<point x="540" y="493"/>
			<point x="484" y="552"/>
			<point x="398" y="552" type="curve" smooth="yes"/>
			<point x="332" y="552"/>
			<point x="277" y="512"/>
			<point x="240" y="454" type="curve"/>
			<point x="203" y="454" type="line"/>
			<point x="203" y="328" type="line"/>
			<point x="240" y="380"/>
			<point x="305" y="407"/>
			<point x="348" y="407" type="curve" smooth="yes"/>
			<point x="379" y="407"/>
			<point x="390" y="393"/>
			<point x="390" y="363" type="curve"/>
			<point x="390" y="246"/>
			<point x="390" y="128"/>
			<point x="390" y="11" type="curve" smooth="yes"/>
			<point x="390" y="4"/>
			<point x="394" y="0"/>
			<point x="401" y="0" type="curve"/>
			<point x="451" y="0"/>
			<point x="490" y="0"/>
		</contour>
		<contour>
			<point x="220" y="0" type="curve"/>
			<point x="220" y="176"/>
			<point x="220" y="353"/>
			<point x="220" y="529" type="curve"/>
			<point x="220" y="536"/>
			<point x="216" y="540"/>
			<point x="209" y="540" type="curve"/>
			<point x="164" y="540"/>
			<point x="125" y="540"/>
			<point x="70" y="540" type="curve"/>
			<point x="70" y="512"/>
			<point x="70" y="478"/>
			<point x="70" y="442" type="curve"/>
			<point x="70" y="298"/>
			<point x="70" y="155"/>
			<point x="70" y="11" type="curve"/>
			<point x="70" y="4"/>
			<point x="74" y="0"/>
			<point x="81" y="0" type="curve"/>
			<point x="131" y="0"/>
			<point x="170" y="0"/>
		</contour>
		<contour>
			<point x="395" y="767" type="curve" smooth="yes"/>
			<point x="322" y="767"/>
			<point x="301" y="817"/>
			<point x="211" y="817" type="curve" smooth="yes"/>
			<point x="163" y="817"/>
			<point x="120" y="799"/>
			<point x="100" y="772" type="curve" smooth="yes"/>
			<point x="93" y="763"/>
			<point x="93" y="759"/>
			<point x="93" y="748" type="curve" smooth="yes"/>
			<point x="93" y="719"/>
			<point x="93" y="663"/>
			<point x="93" y="626" type="curve"/>
			<point x="113" y="626" type="line"/>
			<point x="136" y="658"/>
			<point x="168" y="675"/>
			<point x="205" y="675" type="curve" smooth="yes"/>
			<point x="278" y="675"/>
			<point x="299" y="625"/>
			<point x="389" y="625" type="curve" smooth="yes"/>
			<point x="437" y="625"/>
			<point x="480" y="643"/>
			<point x="500" y="670" type="curve" smooth="yes"/>
			<point x="507" y="679"/>
			<point x="507" y="683"/>
			<point x="507" y="694" type="curve" smooth="yes"/>
			<point x="507" y="723"/>
			<point x="507" y="779"/>
			<point x="507" y="816" type="curve"/>
			<point x="487" y="816" type="line"/>
			<point x="464" y="784"/>
			<point x="432" y="767"/>
		</contour>
	</outline>
</glyph>
<glyph name="oacute" format="2">
	<unicode hex="00F3"/>
	<advance width="600"/>
	<outline>
		<contour>
			<point x="300" y="552" type="curve" smooth="yes"/>
			<point x="153" y="552"/>
			<point x="53" y="457"/>
			<point x="53" y="319" type="curve" smooth="yes"/>
			<point x="53" y="221" type="line" smooth="yes"/>
			<point x="53" y="83.1829787234"/>
			<point x="153" y="-12"/>
			<point x="300" y="-12" type="curve" smooth="yes"/>
			<point x="447" y="-12"/>
			<point x="547" y="83.1829787234"/>
			<point x="547" y="221" type="curve" smooth="yes"/>
			<point x="547" y="319" type="line" smooth="yes"/>
			<point x="547" y="457"/>
			<point x="446" y="552"/>
		</contour>
		<contour>
			<point x="300" y="417" type="curve" smooth="yes"/>
			<point x="332" y="417"/>
			<point x="356" y="410"/>
			<point x="372" y="394" type="curve" smooth="yes"/>
			<point x="389" y="377"/>
			<point x="397" y="351"/>
			<point x="397" y="312" type="curve" smooth="yes"/>
			<point x="397" y="228" type="line" smooth="yes"/>
			<point x="397" y="160"/>
			<point x="362" y="123"/>
			<point x="300" y="123" type="curve" smooth="yes"/>
			<point x="270" y="123"/>
			<point x="246" y="132"/>
			<point x="230" y="148" type="curve" smooth="yes"/>
			<point x="212" y="166"/>
			<point x="203" y="193"/>
			<point x="203" y="228" type="curve" smooth="yes"/>
			<point x="203" y="312" type="line" smooth="yes"/>
			<point x="203" y="380"/>
			<point x="238" y="417"/>
		</contour>
		<contour>
			<point x="336" y="807" type="curve"/>
			<point x="300" y="743"/>
			<point x="265" y="681"/>
			<point x="230" y="619" type="curve"/>
			<point x="268" y="619"/>
			<point x="305" y="619"/>
			<point x="348" y="619" type="curve" smooth="yes"/>
			<point x="356" y="619"/>
			<point x="362" y="623"/>
			<point x="365" y="627" type="curve" smooth="yes"/>
			<point x="424" y="692"/>
			<point x="463" y="735"/>
			<point x="514" y="792" type="curve" smooth="yes"/>
			<point x="520" y="799"/>
			<point x="515" y="807"/>
			<point x="507" y="807" type="curve" smooth="yes"/>
			<point x="446" y="807"/>
			<point x="399" y="807"/>
		</contour>
	</outline>
</glyph>
<glyph name="ocircumflex" format="2">
	<unicode hex="00F4"/>
	<advance width="600"/>
	<outline>
		<contour>
			<point x="300" y="552" type="curve" smooth="yes"/>
			<point x="153" y="552"/>
			<point x="53" y="457"/>
			<point x="53" y="319" type="curve" smooth="yes"/>
			<point x="53" y="221" type="line" smooth="yes"/>
			<point x="53" y="83.1829787234"/>
			<point x="153" y="-12"/>
			<point x="300" y="-12" type="curve" smooth="yes"/>
			<point x="447" y="-12"/>
			<point x="547" y="83.1829787234"/>
			<point x="547" y="221" type="curve" smooth="yes"/>
			<point x="547" y="319" type="line" smooth="yes"/>
			<point x="547" y="457"/>
			<point x="446" y="552"/>
		</contour>
		<contour>
			<point x="300" y="417" type="curve" smooth="yes"/>
			<point x="332" y="417"/>
			<point x="356" y="410"/>
			<point x="372" y="394" type="curve" smooth="yes"/>
			<point x="389" y="377"/>
			<point x="397" y="351"/>
			<point x="397" y="312" type="curve" smooth="yes"/>
			<point x="397" y="228" type="line" smooth="yes"/>
			<point x="397" y="160"/>
			<point x="362" y="123"/>
			<point x="300" y="123" type="curve" smooth="yes"/>
			<point x="270" y="123"/>
			<point x="246" y="132"/>
			<point x="230" y="148" type="curve" smooth="yes"/>
			<point x="212" y="166"/>
			<point x="203" y="193"/>
			<point x="203" y="228" type="curve" smooth="yes"/>
			<point x="203" y="312" type="line" smooth="yes"/>
			<point x="203" y="380"/>
			<point x="238" y="417"/>
		</contour>
		<contour>
			<point x="244" y="812" type="curve"/>
			<point x="218" y="780"/>
			<point x="138" y="683"/>
			<point x="109" y="647" type="curve" smooth="yes"/>
			<point x="93" y="627"/>
			<point x="91" y="625"/>
			<point x="91" y="619" type="curve" smooth="yes"/>
			<point x="91" y="614"/>
			<point x="94" y="610"/>
			<point x="102" y="610" type="curve" smooth="yes"/>
			<point x="209" y="610" type="line"/>
			<point x="236" y="636"/>
			<point x="265" y="667"/>
			<point x="315" y="720" type="curve"/>
			<point x="265" y="697" type="line"/>
			<point x="331" y="697" type="line"/>
			<point x="279" y="718" type="line"/>
			<point x="332" y="664"/>
			<point x="361" y="634"/>
			<point x="374" y="621" type="curve" smooth="yes"/>
			<point x="383" y="612"/>
			<point x="388" y="610"/>
			<point x="403" y="610" type="curve" smooth="yes"/>
			<point x="440" y="610"/>
			<point x="478" y="610"/>
			<point x="515" y="610" type="curve"/>
			<point x="468" y="668"/>
			<point x="387" y="767"/>
			<point x="368" y="790" type="curve" smooth="yes"/>
			<point x="352" y="809"/>
			<point x="348" y="812"/>
			<point x="338" y="812" type="curve" smooth="yes"/>
			<point x="307" y="812"/>
			<point x="275" y="812"/>
		</contour>
	</outline>
</glyph>
<glyph name="otilde" format="2">
	<unicode hex="00F5"/>
	<advance width="600"/>
	<outline>
		<contour>
			<point x="300" y="552" type="curve" smooth="yes"/>
			<point x="153" y="552"/>
			<point x="53" y="457"/>
			<point x="53" y="319" type="curve" smooth="yes"/>
			<point x="53" y="221" type="line" smooth="yes"/>
			<point x="53" y="83.1829787234"/>
			<point x="153" y="-12"/>
			<point x="300" y="-12" type="curve" smooth="yes"/>
			<point x="447" y="-12"/>
			<point x="547" y="83.1829787234"/>
			<point x="547" y="221" type="curve" smooth="yes"/>
			<point x="547" y="319" type="line" smooth="yes"/>
			<point x="547" y="457"/>
			<point x="446" y="552"/>
		</contour>
		<contour>
			<point x="300" y="417" type="curve" smooth="yes"/>
			<point x="332" y="417"/>
			<point x="356" y="410"/>
			<point x="372" y="394" type="curve" smooth="yes"/>
			<point x="389" y="377"/>
			<point x="397" y="351"/>
			<point x="397" y="312" type="curve" smooth="yes"/>
			<point x="397" y="228" type="line" smooth="yes"/>
			<point x="397" y="160"/>
			<point x="362" y="123"/>
			<point x="300" y="123" type="curve" smooth="yes"/>
			<point x="270" y="123"/>
			<point x="246" y="132"/>
			<point x="230" y="148" type="curve" smooth="yes"/>
			<point x="212" y="166"/>
			<point x="203" y="193"/>
			<point x="203" y="228" type="curve" smooth="yes"/>
			<point x="203" y="312" type="line" smooth="yes"/>
			<point x="203" y="380"/>
			<point x="238" y="417"/>
		</contour>
		<contour>
			<point x="393" y="767" type="curve" smooth="yes"/>
			<point x="320" y="767"/>
			<point x="299" y="817"/>
			<point x="209" y="817" type="curve" smooth="yes"/>
			<point x="161" y="817"/>
			<point x="118" y="799"/>
			<point x="98" y="772" type="curve" smooth="yes"/>
			<point x="91" y="763"/>
			<point x="91" y="759"/>
			<point x="91" y="748" type="curve" smooth="yes"/>
			<point x="91" y="719"/>
			<point x="91" y="663"/>
			<point x="91" y="626" type="curve"/>
			<point x="111" y="626" type="line"/>
			<point x="134" y="658"/>
			<point x="166" y="675"/>
			<point x="203" y="675" type="curve" smooth="yes"/>
			<point x="276" y="675"/>
			<point x="297" y="625"/>
			<point x="387" y="625" type="curve" smooth="yes"/>
			<point x="435" y="625"/>
			<point x="478" y="643"/>
			<point x="498" y="670" type="curve" smooth="yes"/>
			<point x="505" y="679"/>
			<point x="505" y="683"/>
			<point x="505" y="694" type="curve" smooth="yes"/>
			<point x="505" y="723"/>
			<point x="505" y="779"/>
			<point x="505" y="816" type="curve"/>
			<point x="485" y="816" type="line"/>
			<point x="462" y="784"/>
			<point x="430" y="767"/>
		</contour>
	</outline>
</glyph>
<glyph name="odieresis" format="2">
	<unicode hex="00F6"/>
	<advance width="600"/>
	<outline>
		<contour>
			<point x="300" y="552" type="curve" smooth="yes"/>
			<point x="153" y="552"/>
			<point x="53" y="457"/>
			<point x="53" y="319" type="curve" smooth="yes"/>
			<point x="53" y="221" type="line" smooth="yes"/>
			<point x="53" y="83.1829787234"/>
			<point x="153" y="-12"/>
			<point x="300" y="-12" type="curve" smooth="yes"/>
			<point x="447" y="-12"/>
			<point x="547" y="83.1829787234"/>
			<point x="547" y="221" type="curve" smooth="yes"/>
			<point x="547" y="319" type="line" smooth="yes"/>
			<point x="547" y="457"/>
			<point x="446" y="552"/>
		</contour>
		<contour>
			<point x="300" y="417" type="curve" smooth="yes"/>
			<point x="332" y="417"/>
			<point x="356" y="410"/>
			<point x="372" y="394" type="curve" smooth="yes"/>
			<point x="389" y="377"/>
			<point x="397" y="351"/>
			<point x="397" y="312" type="curve" smooth="yes"/>
			<point x="397" y="228" type="line" smooth="yes"/>
			<point x="397" y="160"/>
			<point x="362" y="123"/>
			<point x="300" y="123" type="curve" smooth="yes"/>
			<point x="270" y="123"/>
			<point x="246" y="132"/>
			<point x="230" y="148" type="curve" smooth="yes"/>
			<point x="212" y="166"/>
			<point x="203" y="193"/>
			<point x="203" y="228" type="curve" smooth="yes"/>
			<point x="203" y="312" type="line" smooth="yes"/>
			<point x="203" y="380"/>
			<point x="238" y="417"/>
		</contour>
		<contour>
			<point x="110" y="768" type="curve"/>
			<point x="110" y="622" type="line" smooth="yes"/>
			<point x="110" y="615"/>
			<point x="114" y="611"/>
			<point x="121" y="611" type="curve" smooth="yes"/>
			<point x="169" y="611"/>
			<point x="218" y="611"/>
			<point x="266" y="611" type="curve"/>
			<point x="266" y="757" type="line" smooth="yes"/>
			<point x="266" y="764"/>
			<point x="262" y="768"/>
			<point x="255" y="768" type="curve" smooth="yes"/>
			<point x="207" y="768"/>
			<point x="158" y="768"/>
		</contour>
		<contour>
			<point x="330" y="768" type="curve"/>
			<point x="330" y="622" type="line" smooth="yes"/>
			<point x="330" y="615"/>
			<point x="334" y="611"/>
			<point x="341" y="611" type="curve" smooth="yes"/>
			<point x="389" y="611"/>
			<point x="438" y="611"/>
			<point x="486" y="611" type="curve"/>
			<point x="486" y="757" type="line" smooth="yes"/>
			<point x="486" y="764"/>
			<point x="482" y="768"/>
			<point x="475" y="768" type="curve" smooth="yes"/>
			<point x="427" y="768"/>
			<point x="378" y="768"/>
		</contour>
	</outline>
</glyph>
<glyph name="ugrave" format="2">
	<unicode hex="00F9"/>
	<advance width="600"/>
	<outline>
		<contour>
			<point x="209" y="540" type="curve"/>
			<point x="163" y="540"/>
			<point x="116" y="540"/>
			<point x="70" y="540" type="curve"/>
			<point x="70" y="497"/>
			<point x="70" y="453"/>
			<point x="70" y="410" type="curve" smooth="yes"/>
			<point x="70" y="320"/>
			<point x="70" y="230"/>
			<point x="70" y="140" type="curve" smooth="yes"/>
			<point x="70" y="46"/>
			<point x="130" y="-12"/>
			<point x="211" y="-12" type="curve" smooth="yes"/>
			<point x="285" y="-12"/>
			<point x="326" y="24"/>
			<point x="361" y="86" type="curve"/>
			<point x="397" y="86" type="line"/>
			<point x="397" y="212" type="line"/>
			<point x="361" y="162"/>
			<point x="314" y="141"/>
			<point x="254" y="141" type="curve" smooth="yes"/>
			<point x="233" y="141"/>
			<point x="220" y="155"/>
			<point x="220" y="177" type="curve"/>
			<point x="220" y="277.3111111111"/>
			<point x="220" y="410.8125"/>
			<point x="220" y="529" type="curve" smooth="yes"/>
			<point x="220" y="536"/>
			<point x="216" y="540"/>
		</contour>
		<contour>
			<point x="519" y="540" type="curve"/>
			<point x="472" y="540"/>
			<point x="427" y="540"/>
			<point x="380" y="540" type="curve"/>
			<point x="380" y="364"/>
			<point x="380" y="187"/>
			<point x="380" y="11" type="curve"/>
			<point x="380" y="4"/>
			<point x="384" y="0"/>
			<point x="391" y="0" type="curve"/>
			<point x="433" y="0"/>
			<point x="479" y="0"/>
			<point x="530" y="0" type="curve"/>
			<point x="530" y="28"/>
			<point x="530" y="62"/>
			<point x="530" y="98" type="curve"/>
			<point x="530" y="242"/>
			<point x="530" y="385"/>
			<point x="530" y="529" type="curve"/>
			<point x="530" y="536"/>
			<point x="526" y="540"/>
		</contour>
		<contour>
			<point x="262" y="807" type="curve"/>
			<point x="199" y="807"/>
			<point x="152" y="807"/>
			<point x="91" y="807" type="curve" smooth="yes"/>
			<point x="83" y="807"/>
			<point x="78" y="799"/>
			<point x="84" y="792" type="curve" smooth="yes"/>
			<point x="135" y="735"/>
			<point x="174" y="692"/>
			<point x="233" y="627" type="curve" smooth="yes"/>
			<point x="236" y="623"/>
			<point x="242" y="619"/>
			<point x="250" y="619" type="curve" smooth="yes"/>
			<point x="293" y="619"/>
			<point x="330" y="619"/>
			<point x="368" y="619" type="curve"/>
			<point x="333" y="681"/>
			<point x="298" y="743"/>
		</contour>
	</outline>
</glyph>
<glyph name="ucircumflex" format="2">
	<unicode hex="00FB"/>
	<advance width="600"/>
	<outline>
		<contour>
			<point x="209" y="540" type="curve"/>
			<point x="163" y="540"/>
			<point x="116" y="540"/>
			<point x="70" y="540" type="curve"/>
			<point x="70" y="497"/>
			<point x="70" y="453"/>
			<point x="70" y="410" type="curve" smooth="yes"/>
			<point x="70" y="320"/>
			<point x="70" y="230"/>
			<point x="70" y="140" type="curve" smooth="yes"/>
			<point x="70" y="46"/>
			<point x="130" y="-12"/>
			<point x="211" y="-12" type="curve" smooth="yes"/>
			<point x="285" y="-12"/>
			<point x="326" y="24"/>
			<point x="361" y="86" type="curve"/>
			<point x="397" y="86" type="line"/>
			<point x="397" y="212" type="line"/>
			<point x="361" y="162"/>
			<point x="314" y="141"/>
			<point x="254" y="141" type="curve" smooth="yes"/>
			<point x="233" y="141"/>
			<point x="220" y="155"/>
			<point x="220" y="177" type="curve"/>
			<point x="220" y="277.3111111111"/>
			<point x="220" y="410.8125"/>
			<point x="220" y="529" type="curve" smooth="yes"/>
			<point x="220" y="536"/>
			<point x="216" y="540"/>
		</contour>
		<contour>
			<point x="519" y="540" type="curve"/>
			<point x="472" y="540"/>
			<point x="427" y="540"/>
			<point x="380" y="540" type="curve"/>
			<point x="380" y="364"/>
			<point x="380" y="187"/>
			<point x="380" y="11" type="curve"/>
			<point x="380" y="4"/>
			<point x="384" y="0"/>
			<point x="391" y="0" type="curve"/>
			<point x="433" y="0"/>
			<point x="479" y="0"/>
			<point x="530" y="0" type="curve"/>
			<point x="530" y="28"/>
			<point x="530" y="62"/>
			<point x="530" y="98" type="curve"/>
			<point x="530" y="242"/>
			<point x="530" y="385"/>
			<point x="530" y="529" type="curve"/>
			<point x="530" y="536"/>
			<point x="526" y="540"/>
		</contour>
		<contour>
			<point x="246" y="812" type="curve"/>
			<point x="220" y="780"/>
			<point x="140" y="683"/>
			<point x="111" y="647" type="curve" smooth="yes"/>
			<point x="95" y="627"/>
			<point x="93" y="625"/>
			<point x="93" y="619" type="curve" smooth="yes"/>
			<point x="93" y="614"/>
			<point x="96" y="610"/>
			<point x="104" y="610" type="curve" smooth="yes"/>
			<point x="211" y="610" type="line"/>
			<point x="238" y="636"/>
			<point x="267" y="667"/>
			<point x="317" y="720" type="curve"/>
			<point x="267" y="697" type="line"/>
			<point x="333" y="697" type="line"/>
			<point x="281" y="718" type="line"/>
			<point x="334" y="664"/>
			<point x="363" y="634"/>
			<point x="376" y="621" type="curve" smooth="yes"/>
			<point x="385" y="612"/>
			<point x="390" y="610"/>
			<point x="405" y="610" type="curve" smooth="yes"/>
			<point x="442" y="610"/>
			<point x="480" y="610"/>
			<point x="517" y="610" type="curve"/>
			<point x="470" y="668"/>
			<point x="389" y="767"/>
			<point x="370" y="790" type="curve" smooth="yes"/>
			<point x="354" y="809"/>
			<point x="350" y="812"/>
			<point x="340" y="812" type="curve" smooth="yes"/>
			<point x="309" y="812"/>
			<point x="277" y="812"/>
		</contour>
	</outline>
</glyph>
<glyph name="udieresis" format="2">
	<unicode hex="00FC"/>
	<advance width="600"/>
	<outline>
		<contour>
			<point x="209" y="540" type="curve"/>
			<point x="163" y="540"/>
			<point x="116" y="540"/>
			<point x="70" y="540" type="curve"/>
			<point x="70" y="497"/>
			<point x="70" y="453"/>
			<point x="70" y="410" type="curve" smooth="yes"/>
			<point x="70" y="320"/>
			<point x="70" y="230"/>
			<point x="70" y="140" type="curve" smooth="yes"/>
			<point x="70" y="46"/>
			<point x="130" y="-12"/>
			<point x="211" y="-12" type="curve" smooth="yes"/>
			<point x="285" y="-12"/>
			<point x="326" y="24"/>
			<point x="361" y="86" type="curve"/>
			<point x="397" y="86" type="line"/>
			<point x="397" y="212" type="line"/>
			<point x="361" y="162"/>
			<point x="314" y="141"/>
			<point x="254" y="141" type="curve" smooth="yes"/>
			<point x="233" y="141"/>
			<point x="220" y="155"/>
			<point x="220" y="177" type="curve"/>
			<point x="220" y="277.3111111111"/>
			<point x="220" y="410.8125"/>
			<point x="220" y="529" type="curve" smooth="yes"/>
			<point x="220" y="536"/>
			<point x="216" y="540"/>
		</contour>
		<contour>
			<point x="519" y="540" type="curve"/>
			<point x="472" y="540"/>
			<point x="427" y="540"/>
			<point x="380" y="540" type="curve"/>
			<point x="380" y="364"/>
			<point x="380" y="187"/>
			<point x="380" y="11" type="curve"/>
			<point x="380" y="4"/>
			<point x="384" y="0"/>
			<point x="391" y="0" type="curve"/>
			<point x="433" y="0"/>
			<point x="479" y="0"/>
			<point x="530" y="0" type="curve"/>
			<point x="530" y="28"/>
			<point x="530" y="62"/>
			<point x="530" y="98" type="curve"/>
			<point x="530" y="242"/>
			<point x="530" y="385"/>
			<point x="530" y="529" type="curve"/>
			<point x="530" y="536"/>
			<point x="526" y="540"/>
		</contour>
		<contour>
			<point x="112" y="768" type="curve"/>
			<point x="112" y="622" type="line" smooth="yes"/>
			<point x="112" y="615"/>
			<point x="116" y="611"/>
			<point x="123" y="611" type="curve" smooth="yes"/>
			<point x="171" y="611"/>
			<point x="220" y="611"/>
			<point x="268" y="611" type="curve"/>
			<point x="268" y="757" type="line" smooth="yes"/>
			<point x="268" y="764"/>
			<point x="264" y="768"/>
			<point x="257" y="768" type="curve" smooth="yes"/>
			<point x="209" y="768"/>
			<point x="160" y="768"/>
		</contour>
		<contour>
			<point x="332" y="768" type="curve"/>
			<point x="332" y="622" type="line" smooth="yes"/>
			<point x="332" y="615"/>
			<point x="336" y="611"/>
			<point x="343" y="611" type="curve" smooth="yes"/>
			<point x="391" y="611"/>
			<point x="440" y="611"/>
			<point x="488" y="611" type="curve"/>
			<point x="488" y="757" type="line" smooth="yes"/>
			<point x="488" y="764"/>
			<point x="484" y="768"/>
			<point x="477" y="768" type="curve" smooth="yes"/>
			<point x="429" y="768"/>
			<point x="380" y="768"/>
		</contour>
	</outline>
</glyph>
<glyph name="yacute" format="2">
	<unicode hex="00FD"/>
	<advance width="600"/>
	<outline>
		<contour>
			<point x="549" y="540" type="curve" smooth="yes"/>
			<point x="498" y="540"/>
			<point x="451" y="540"/>
			<point x="408" y="540" type="curve"/>
			<point x="366" y="342"/>
			<point x="312" y="84"/>
			<point x="293" y="0" type="curve" smooth="yes"/>
			<point x="282" y="-49"/>
			<point x="255" y="-70"/>
			<point x="210" y="-70" type="curve" smooth="yes"/>
			<point x="181" y="-70"/>
			<point x="153" y="-70"/>
			<point x="124" y="-70" type="curve"/>
			<point x="104" y="-70" type="line"/>
			<point x="104" y="-189" type="line" smooth="yes"/>
			<point x="104" y="-196"/>
			<point x="108" y="-200"/>
			<point x="115" y="-200" type="curve" smooth="yes"/>
			<point x="123" y="-200"/>
			<point x="191" y="-200"/>
			<point x="229" y="-200" type="curve" smooth="yes"/>
			<point x="342" y="-200"/>
			<point x="401" y="-148"/>
			<point x="428" y="-31" type="curve" smooth="yes"/>
			<point x="482" y="198"/>
			<point x="515" y="335"/>
			<point x="561" y="524" type="curve" smooth="yes"/>
			<point x="563" y="534"/>
			<point x="556" y="540"/>
		</contour>
		<contour>
			<point x="187" y="540" type="curve" smooth="yes"/>
			<point x="134.6413793103" y="540"/>
			<point x="87.3172413793" y="540"/>
			<point x="41" y="540" type="curve"/>
			<point x="91" y="364"/>
			<point x="188" y="63"/>
			<point x="192" y="51" type="curve" smooth="yes"/>
			<point x="194" y="44"/>
			<point x="198" y="40"/>
			<point x="205" y="40" type="curve" smooth="yes"/>
			<point x="343" y="40" type="line"/>
			<point x="367" y="132" type="line"/>
			<point x="302" y="132" type="line"/>
			<point x="271" y="269"/>
			<point x="268.9616156319" y="280.1522992671"/>
			<point x="207" y="526" type="curve" smooth="yes"/>
			<point x="204" y="537"/>
			<point x="200" y="540"/>
		</contour>
		<contour>
			<point x="348" y="807" type="curve"/>
			<point x="312" y="743"/>
			<point x="277" y="681"/>
			<point x="242" y="619" type="curve"/>
			<point x="280" y="619"/>
			<point x="317" y="619"/>
			<point x="360" y="619" type="curve" smooth="yes"/>
			<point x="368" y="619"/>
			<point x="374" y="623"/>
			<point x="377" y="627" type="curve" smooth="yes"/>
			<point x="436" y="692"/>
			<point x="475" y="735"/>
			<point x="526" y="792" type="curve" smooth="yes"/>
			<point x="532" y="799"/>
			<point x="527" y="807"/>
			<point x="519" y="807" type="curve" smooth="yes"/>
			<point x="458" y="807"/>
			<point x="411" y="807"/>
		</contour>
	</outline>
</glyph>
<glyph name="Amacron" format="2">
	<unicode hex="0100"/>
	<advance width="650"/>
	<outline>
		<contour>
			<point x="149" y="280" type="line"/>
			<point x="147" y="161" type="line" smooth="yes"/>
			<point x="147" y="155"/>
			<point x="152" y="150"/>
			<point x="158" y="150" type="curve"/>
			<point x="485" y="150" type="line"/>
			<point x="454" y="289" type="line"/>
			<point x="417" y="280" type="line"/>
			<point x="395" y="280"/>
			<point x="373" y="280"/>
			<point x="351" y="280" type="curve"/>
		</contour>
		<contour>
			<point x="184" y="0" type="curve"/>
			<point x="269" y="347"/>
			<point x="305" y="498"/>
			<point x="318" y="606" type="curve"/>
			<point x="275" y="580" type="line"/>
			<point x="377" y="580" type="line"/>
			<point x="333" y="606" type="line"/>
			<point x="345" y="498"/>
			<point x="379" y="346"/>
			<point x="461" y="11" type="curve" smooth="yes"/>
			<point x="463" y="3"/>
			<point x="466" y="0"/>
			<point x="472" y="0" type="curve" smooth="yes"/>
			<point x="520" y="0"/>
			<point x="573" y="0"/>
			<point x="615" y="0" type="curve"/>
			<point x="605" y="53"/>
			<point x="593" y="104"/>
			<point x="582" y="153" type="curve" smooth="yes"/>
			<point x="533" y="367"/>
			<point x="490" y="548"/>
			<point x="457" y="689" type="curve" smooth="yes"/>
			<point x="455" y="696"/>
			<point x="452" y="700"/>
			<point x="445" y="700" type="curve" smooth="yes"/>
			<point x="374" y="700"/>
			<point x="279" y="700"/>
			<point x="195" y="700" type="curve"/>
			<point x="167" y="576"/>
			<point x="58" y="111"/>
			<point x="35" y="13" type="curve" smooth="yes"/>
			<point x="33" y="3"/>
			<point x="39" y="0"/>
			<point x="43" y="0" type="curve"/>
			<point x="90" y="0"/>
			<point x="137" y="0"/>
		</contour>
		<contour>
			<point x="145" y="922" type="line"/>
			<point x="145" y="883"/>
			<point x="145" y="849"/>
			<point x="145" y="810" type="curve" smooth="yes"/>
			<point x="145" y="803"/>
			<point x="149" y="799"/>
			<point x="156" y="799" type="curve" smooth="yes"/>
			<point x="505" y="799" type="line"/>
			<point x="505" y="838"/>
			<point x="505" y="872"/>
			<point x="505" y="911" type="curve" smooth="yes"/>
			<point x="505" y="918"/>
			<point x="501" y="922"/>
			<point x="494" y="922" type="curve" smooth="yes"/>
		</contour>
	</outline>
</glyph>
<glyph name="abreve" format="2">
	<unicode hex="0103"/>
	<advance width="600"/>
	<outline>
		<contour>
			<point x="514" y="337" type="curve" smooth="yes"/>
			<point x="514" y="489.6814159292"/>
			<point x="440" y="550"/>
			<point x="267" y="550" type="curve" smooth="yes"/>
			<point x="195" y="550"/>
			<point x="105" y="530"/>
			<point x="93" y="518" type="curve" smooth="yes"/>
			<point x="91" y="516"/>
			<point x="90" y="513"/>
			<point x="90" y="508" type="curve" smooth="yes"/>
			<point x="90" y="470.2992125984"/>
			<point x="90" y="428"/>
			<point x="90" y="390" type="curve"/>
			<point x="110" y="390" type="line"/>
			<point x="162" y="406"/>
			<point x="210" y="413"/>
			<point x="267" y="413" type="curve" smooth="yes"/>
			<point x="336.5869565217" y="413"/>
			<point x="364" y="397"/>
			<point x="364" y="347" type="curve"/>
			<point x="364" y="314"/>
			<point x="364" y="284"/>
			<point x="364" y="251" type="curve" smooth="yes"/>
			<point x="364" y="211"/>
			<point x="364" y="171"/>
			<point x="364" y="131" type="curve"/>
			<point x="364" y="53"/>
			<point x="415.969924812" y="0"/>
			<point x="492" y="0" type="curve" smooth="yes"/>
			<point x="514" y="0"/>
			<point x="552" y="0"/>
			<point x="559" y="0" type="curve" smooth="yes"/>
			<point x="566" y="0"/>
			<point x="570" y="4"/>
			<point x="570" y="11" type="curve"/>
			<point x="570" y="50.9694656489"/>
			<point x="570" y="89.6776859504"/>
			<point x="570" y="130" type="curve"/>
			<point x="550" y="130" type="line"/>
			<point x="546" y="130"/>
			<point x="543" y="130"/>
			<point x="539" y="130" type="curve" smooth="yes"/>
			<point x="530" y="130"/>
			<point x="524" y="132"/>
			<point x="520" y="136" type="curve" smooth="yes"/>
			<point x="516" y="140"/>
			<point x="514" y="147"/>
			<point x="514" y="155" type="curve" smooth="yes"/>
			<point x="514" y="214.6555555556"/>
			<point x="514" y="276.7197452229"/>
		</contour>
		<contour>
			<point x="200" y="155" type="curve" smooth="yes"/>
			<point x="200" y="192" type="line" smooth="yes"/>
			<point x="200" y="201"/>
			<point x="203" y="209"/>
			<point x="209" y="215" type="curve" smooth="yes"/>
			<point x="215" y="221"/>
			<point x="224" y="225"/>
			<point x="236" y="225" type="curve" smooth="yes"/>
			<point x="295.6666666667" y="225"/>
			<point x="355.3333333333" y="225"/>
			<point x="415" y="225" type="curve"/>
			<point x="415" y="250"/>
			<point x="413" y="315"/>
			<point x="395" y="315" type="curve" smooth="yes"/>
			<point x="343.6338797814" y="315"/>
			<point x="277.8852459016" y="315"/>
			<point x="207" y="315" type="curve"/>
			<point x="111" y="315"/>
			<point x="50" y="256"/>
			<point x="50" y="171" type="curve" smooth="yes"/>
			<point x="50" y="134" type="line" smooth="yes"/>
			<point x="50" y="49"/>
			<point x="107" y="-10"/>
			<point x="197" y="-10" type="curve" smooth="yes"/>
			<point x="269.3178807947" y="-10"/>
			<point x="327.8825871793" y="24.7088162046"/>
			<point x="353" y="87" type="curve"/>
			<point x="382" y="87" type="line"/>
			<point x="382" y="172" type="line"/>
			<point x="333.8772832277" y="138.2117095003"/>
			<point x="285.7021276596" y="122"/>
			<point x="236" y="122" type="curve" smooth="yes"/>
			<point x="211" y="122"/>
			<point x="200" y="133"/>
		</contour>
		<contour>
			<point x="300" y="750" type="curve"/>
			<point x="255" y="750"/>
			<point x="229" y="766"/>
			<point x="213" y="813" type="curve"/>
			<point x="185" y="813"/>
			<point x="158" y="813"/>
			<point x="130" y="813" type="curve" smooth="yes"/>
			<point x="117" y="813"/>
			<point x="114" y="810"/>
			<point x="116" y="791" type="curve" smooth="yes"/>
			<point x="126" y="700"/>
			<point x="203" y="638"/>
			<point x="293" y="638" type="curve" smooth="yes"/>
			<point x="307" y="638" type="line" smooth="yes"/>
			<point x="397" y="638"/>
			<point x="474" y="700"/>
			<point x="484" y="791" type="curve" smooth="yes"/>
			<point x="486" y="810"/>
			<point x="483" y="813"/>
			<point x="470" y="813" type="curve" smooth="yes"/>
			<point x="442" y="813"/>
			<point x="415" y="813"/>
			<point x="387" y="813" type="curve"/>
			<point x="371" y="766"/>
			<point x="345" y="750"/>
		</contour>
	</outline>
</glyph>
<glyph name="cacute" format="2">
	<unicode hex="0107"/>
	<advance width="500"/>
	<outline>
		<contour>
			<point x="314" y="552" type="curve" smooth="yes"/>
			<point x="159" y="552"/>
			<point x="55" y="447"/>
			<point x="55" y="301" type="curve" smooth="yes"/>
			<point x="55" y="235" type="line" smooth="yes"/>
			<point x="55" y="79.0630463096"/>
			<point x="152.9874218812" y="-12"/>
			<point x="314" y="-12" type="curve" smooth="yes"/>
			<point x="388" y="-12"/>
			<point x="436" y="2"/>
			<point x="447" y="13" type="curve" smooth="yes"/>
			<point x="449" y="15"/>
			<point x="450" y="18"/>
			<point x="450" y="21" type="curve" smooth="yes"/>
			<point x="450" y="64"/>
			<point x="450" y="107"/>
			<point x="450" y="150" type="curve"/>
			<point x="430" y="150" type="line"/>
			<point x="392" y="136"/>
			<point x="354" y="130"/>
			<point x="313" y="130" type="curve" smooth="yes"/>
			<point x="282" y="130"/>
			<point x="259" y="137"/>
			<point x="242" y="153" type="curve"/>
			<point x="221" y="171"/>
			<point x="210" y="201"/>
			<point x="210" y="243" type="curve" smooth="yes"/>
			<point x="210" y="299" type="line" smooth="yes"/>
			<point x="210" y="379"/>
			<point x="254" y="410"/>
			<point x="313" y="410" type="curve" smooth="yes"/>
			<point x="354" y="410"/>
			<point x="392" y="404"/>
			<point x="430" y="390" type="curve"/>
			<point x="450" y="390" type="line"/>
			<point x="450" y="433"/>
			<point x="450" y="476"/>
			<point x="450" y="519" type="curve"/>
			<point x="450" y="522"/>
			<point x="449" y="525"/>
			<point x="447" y="527" type="curve" smooth="yes"/>
			<point x="436" y="538"/>
			<point x="388" y="552"/>
		</contour>
		<contour>
			<point x="325" y="807" type="curve"/>
			<point x="289" y="743"/>
			<point x="254" y="681"/>
			<point x="219" y="619" type="curve"/>
			<point x="257" y="619"/>
			<point x="294" y="619"/>
			<point x="337" y="619" type="curve" smooth="yes"/>
			<point x="345" y="619"/>
			<point x="351" y="623"/>
			<point x="354" y="627" type="curve" smooth="yes"/>
			<point x="413" y="692"/>
			<point x="452" y="735"/>
			<point x="503" y="792" type="curve" smooth="yes"/>
			<point x="509" y="799"/>
			<point x="504" y="807"/>
			<point x="496" y="807" type="curve" smooth="yes"/>
			<point x="435" y="807"/>
			<point x="388" y="807"/>
		</contour>
	</outline>
</glyph>
<glyph name="Ccircumflex" format="2">
	<unicode hex="0108"/>
	<advance width="600"/>
	<outline>
		<contour>
			<point x="344" y="-20" type="curve"/>
			<point x="439" y="-20"/>
			<point x="518" y="7"/>
			<point x="544" y="33" type="curve" smooth="yes"/>
			<point x="548" y="37"/>
			<point x="550" y="42"/>
			<point x="550" y="49" type="curve"/>
			<point x="550" y="94"/>
			<point x="550" y="129"/>
			<point x="550" y="172" type="curve"/>
			<point x="530" y="172" type="line"/>
			<point x="467" y="133"/>
			<point x="417" y="120"/>
			<point x="345" y="120" type="curve"/>
			<point x="302" y="120"/>
			<point x="266" y="127"/>
			<point x="243" y="150" type="curve"/>
			<point x="220" y="173"/>
			<point x="210" y="211"/>
			<point x="210" y="268" type="curve"/>
			<point x="210" y="452" type="line"/>
			<point x="210" y="540"/>
			<point x="256" y="577"/>
			<point x="328" y="577" type="curve"/>
			<point x="369" y="577"/>
			<point x="400" y="572"/>
			<point x="431" y="553" type="curve"/>
			<point x="403" y="594" type="line"/>
			<point x="403" y="532"/>
			<point x="403" y="501"/>
			<point x="403" y="469" type="curve"/>
			<point x="403" y="462"/>
			<point x="407" y="458"/>
			<point x="414" y="458" type="curve"/>
			<point x="457" y="458"/>
			<point x="500" y="458"/>
			<point x="543" y="458" type="curve"/>
			<point x="543" y="516"/>
			<point x="543" y="588"/>
			<point x="543" y="638" type="curve"/>
			<point x="543" y="646"/>
			<point x="542" y="651"/>
			<point x="537" y="656" type="curve" smooth="yes"/>
			<point x="506" y="687"/>
			<point x="433" y="720"/>
			<point x="331" y="720" type="curve"/>
			<point x="152" y="720"/>
			<point x="50" y="612"/>
			<point x="50" y="455" type="curve"/>
			<point x="50" y="256" type="line"/>
			<point x="50" y="80"/>
			<point x="146" y="-20"/>
		</contour>
		<contour>
			<point x="243" y="947" type="curve"/>
			<point x="206" y="909"/>
			<point x="144" y="844"/>
			<point x="110" y="808" type="curve" smooth="yes"/>
			<point x="92" y="789"/>
			<point x="90" y="787"/>
			<point x="90" y="782" type="curve" smooth="yes"/>
			<point x="90" y="777"/>
			<point x="93" y="775"/>
			<point x="101" y="775" type="curve" smooth="yes"/>
			<point x="228" y="775" type="line"/>
			<point x="259" y="802"/>
			<point x="298" y="834"/>
			<point x="345" y="880" type="curve"/>
			<point x="295" y="857" type="line"/>
			<point x="317" y="857"/>
			<point x="339" y="857"/>
			<point x="361" y="857" type="curve"/>
			<point x="309" y="878" type="line"/>
			<point x="360" y="829"/>
			<point x="393" y="801"/>
			<point x="413" y="785" type="curve" smooth="yes"/>
			<point x="424" y="777"/>
			<point x="426" y="775"/>
			<point x="441" y="775" type="curve" smooth="yes"/>
			<point x="478" y="775"/>
			<point x="537" y="775"/>
			<point x="574" y="775" type="curve"/>
			<point x="519" y="833"/>
			<point x="448" y="907"/>
			<point x="427" y="928" type="curve" smooth="yes"/>
			<point x="410" y="945"/>
			<point x="405" y="947"/>
			<point x="396" y="947" type="curve" smooth="yes"/>
			<point x="366" y="947"/>
			<point x="274" y="947"/>
		</contour>
	</outline>
</glyph>
<glyph name="ccircumflex" format="2">
	<unicode hex="0109"/>
	<advance width="500"/>
	<outline>
		<contour>
			<point x="314" y="552" type="curve" smooth="yes"/>
			<point x="159" y="552"/>
			<point x="55" y="447"/>
			<point x="55" y="301" type="curve" smooth="yes"/>
			<point x="55" y="235" type="line" smooth="yes"/>
			<point x="55" y="79.0630463096"/>
			<point x="152.9874218812" y="-12"/>
			<point x="314" y="-12" type="curve" smooth="yes"/>
			<point x="388" y="-12"/>
			<point x="436" y="2"/>
			<point x="447" y="13" type="curve" smooth="yes"/>
			<point x="449" y="15"/>
			<point x="450" y="18"/>
			<point x="450" y="21" type="curve" smooth="yes"/>
			<point x="450" y="64"/>
			<point x="450" y="107"/>
			<point x="450" y="150" type="curve"/>
			<point x="430" y="150" type="line"/>
			<point x="392" y="136"/>
			<point x="354" y="130"/>
			<point x="313" y="130" type="curve" smooth="yes"/>
			<point x="282" y="130"/>
			<point x="259" y="137"/>
			<point x="242" y="153" type="curve"/>
			<point x="221" y="171"/>
			<point x="210" y="201"/>
			<point x="210" y="243" type="curve" smooth="yes"/>
			<point x="210" y="299" type="line" smooth="yes"/>
			<point x="210" y="379"/>
			<point x="254" y="410"/>
			<point x="313" y="410" type="curve" smooth="yes"/>
			<point x="354" y="410"/>
			<point x="392" y="404"/>
			<point x="430" y="390" type="curve"/>
			<point x="450" y="390" type="line"/>
			<point x="450" y="433"/>
			<point x="450" y="476"/>
			<point x="450" y="519" type="curve"/>
			<point x="450" y="522"/>
			<point x="449" y="525"/>
			<point x="447" y="527" type="curve" smooth="yes"/>
			<point x="436" y="538"/>
			<point x="388" y="552"/>
		</contour>
		<contour>
			<point x="233" y="812" type="curve"/>
			<point x="207" y="780"/>
			<point x="127" y="683"/>
			<point x="98" y="647" type="curve" smooth="yes"/>
			<point x="82" y="627"/>
			<point x="80" y="625"/>
			<point x="80" y="619" type="curve" smooth="yes"/>
			<point x="80" y="614"/>
			<point x="83" y="610"/>
			<point x="91" y="610" type="curve" smooth="yes"/>
			<point x="198" y="610" type="line"/>
			<point x="225" y="636"/>
			<point x="254" y="667"/>
			<point x="304" y="720" type="curve"/>
			<point x="254" y="697" type="line"/>
			<point x="320" y="697" type="line"/>
			<point x="268" y="718" type="line"/>
			<point x="321" y="664"/>
			<point x="350" y="634"/>
			<point x="363" y="621" type="curve" smooth="yes"/>
			<point x="372" y="612"/>
			<point x="377" y="610"/>
			<point x="392" y="610" type="curve" smooth="yes"/>
			<point x="429" y="610"/>
			<point x="467" y="610"/>
			<point x="504" y="610" type="curve"/>
			<point x="457" y="668"/>
			<point x="376" y="767"/>
			<point x="357" y="790" type="curve" smooth="yes"/>
			<point x="341" y="809"/>
			<point x="337" y="812"/>
			<point x="327" y="812" type="curve" smooth="yes"/>
			<point x="296" y="812"/>
			<point x="264" y="812"/>
		</contour>
	</outline>
</glyph>
<glyph name="Ccaron" format="2">
	<unicode hex="010C"/>
	<advance width="600"/>
	<outline>
		<contour>
			<point x="344" y="-20" type="curve"/>
			<point x="439" y="-20"/>
			<point x="518" y="7"/>
			<point x="544" y="33" type="curve" smooth="yes"/>
			<point x="548" y="37"/>
			<point x="550" y="42"/>
			<point x="550" y="49" type="curve"/>
			<point x="550" y="94"/>
			<point x="550" y="129"/>
			<point x="550" y="172" type="curve"/>
			<point x="530" y="172" type="line"/>
			<point x="467" y="133"/>
			<point x="417" y="120"/>
			<point x="345" y="120" type="curve"/>
			<point x="302" y="120"/>
			<point x="266" y="127"/>
			<point x="243" y="150" type="curve"/>
			<point x="220" y="173"/>
			<point x="210" y="211"/>
			<point x="210" y="268" type="curve"/>
			<point x="210" y="452" type="line"/>
			<point x="210" y="540"/>
			<point x="256" y="577"/>
			<point x="328" y="577" type="curve"/>
			<point x="369" y="577"/>
			<point x="400" y="572"/>
			<point x="431" y="553" type="curve"/>
			<point x="403" y="594" type="line"/>
			<point x="403" y="532"/>
			<point x="403" y="501"/>
			<point x="403" y="469" type="curve"/>
			<point x="403" y="462"/>
			<point x="407" y="458"/>
			<point x="414" y="458" type="curve"/>
			<point x="457" y="458"/>
			<point x="500" y="458"/>
			<point x="543" y="458" type="curve"/>
			<point x="543" y="516"/>
			<point x="543" y="588"/>
			<point x="543" y="638" type="curve"/>
			<point x="543" y="646"/>
			<point x="542" y="651"/>
			<point x="537" y="656" type="curve" smooth="yes"/>
			<point x="506" y="687"/>
			<point x="433" y="720"/>
			<point x="331" y="720" type="curve"/>
			<point x="152" y="720"/>
			<point x="50" y="612"/>
			<point x="50" y="455" type="curve"/>
			<point x="50" y="256" type="line"/>
			<point x="50" y="80"/>
			<point x="146" y="-20"/>
		</contour>
		<contour>
			<point x="408" y="775" type="curve"/>
			<point x="445" y="813"/>
			<point x="507" y="878"/>
			<point x="541" y="914" type="curve" smooth="yes"/>
			<point x="559" y="933"/>
			<point x="561" y="935"/>
			<point x="561" y="940" type="curve" smooth="yes"/>
			<point x="561" y="945"/>
			<point x="558" y="947"/>
			<point x="550" y="947" type="curve" smooth="yes"/>
			<point x="423" y="947" type="line"/>
			<point x="392" y="920"/>
			<point x="353" y="888"/>
			<point x="306" y="842" type="curve"/>
			<point x="356" y="865" type="line"/>
			<point x="334" y="865"/>
			<point x="312" y="865"/>
			<point x="290" y="865" type="curve"/>
			<point x="342" y="844" type="line"/>
			<point x="291" y="893"/>
			<point x="258" y="921"/>
			<point x="238" y="937" type="curve" smooth="yes"/>
			<point x="227" y="945"/>
			<point x="225" y="947"/>
			<point x="210" y="947" type="curve" smooth="yes"/>
			<point x="173" y="947"/>
			<point x="114" y="947"/>
			<point x="77" y="947" type="curve"/>
			<point x="132" y="889"/>
			<point x="203" y="815"/>
			<point x="224" y="794" type="curve" smooth="yes"/>
			<point x="241" y="777"/>
			<point x="246" y="775"/>
			<point x="255" y="775" type="curve" smooth="yes"/>
			<point x="285" y="775"/>
			<point x="377" y="775"/>
		</contour>
	</outline>
</glyph>
<glyph name="Dcaron" format="2">
	<unicode hex="010E"/>
	<advance width="650"/>
	<outline>
		<contour>
			<point x="595" y="238" type="curve" smooth="yes"/>
			<point x="595" y="463" type="line" smooth="yes"/>
			<point x="595" y="603"/>
			<point x="527" y="700"/>
			<point x="345" y="700" type="curve" smooth="yes"/>
			<point x="262" y="700"/>
			<point x="113" y="700"/>
			<point x="30" y="700" type="curve"/>
			<point x="30" y="660"/>
			<point x="30" y="609"/>
			<point x="30" y="569" type="curve" smooth="yes"/>
			<point x="30" y="562"/>
			<point x="34" y="558"/>
			<point x="41" y="558" type="curve" smooth="yes"/>
			<point x="123" y="558"/>
			<point x="274" y="558"/>
			<point x="356" y="558" type="curve"/>
			<point x="387" y="558"/>
			<point x="408" y="552"/>
			<point x="422" y="538" type="curve" smooth="yes"/>
			<point x="438" y="522"/>
			<point x="445" y="495"/>
			<point x="445" y="453" type="curve" smooth="yes"/>
			<point x="445" y="247" type="line" smooth="yes"/>
			<point x="445" y="183"/>
			<point x="423" y="142"/>
			<point x="356" y="142" type="curve"/>
			<point x="333" y="142"/>
			<point x="257" y="142"/>
			<point x="235" y="142" type="curve"/>
			<point x="235" y="262"/>
			<point x="235" y="361"/>
			<point x="235" y="481" type="curve" smooth="yes"/>
			<point x="235" y="516"/>
			<point x="235" y="562"/>
			<point x="235" y="597" type="curve" smooth="yes"/>
			<point x="245" y="622" type="line"/>
			<point x="75" y="622" type="line"/>
			<point x="75" y="419"/>
			<point x="75" y="214"/>
			<point x="75" y="11" type="curve" smooth="yes"/>
			<point x="75" y="4"/>
			<point x="79" y="0"/>
			<point x="86" y="0" type="curve" smooth="yes"/>
			<point x="104" y="0"/>
			<point x="286" y="0"/>
			<point x="359" y="0" type="curve" smooth="yes"/>
			<point x="506" y="0"/>
			<point x="595" y="90"/>
		</contour>
		<contour>
			<point x="395" y="775" type="curve"/>
			<point x="432" y="813"/>
			<point x="494" y="878"/>
			<point x="528" y="914" type="curve" smooth="yes"/>
			<point x="546" y="933"/>
			<point x="548" y="935"/>
			<point x="548" y="940" type="curve" smooth="yes"/>
			<point x="548" y="945"/>
			<point x="545" y="947"/>
			<point x="537" y="947" type="curve" smooth="yes"/>
			<point x="410" y="947" type="line"/>
			<point x="379" y="920"/>
			<point x="340" y="888"/>
			<point x="293" y="842" type="curve"/>
			<point x="343" y="865" type="line"/>
			<point x="321" y="865"/>
			<point x="299" y="865"/>
			<point x="277" y="865" type="curve"/>
			<point x="329" y="844" type="line"/>
			<point x="278" y="893"/>
			<point x="245" y="921"/>
			<point x="225" y="937" type="curve" smooth="yes"/>
			<point x="214" y="945"/>
			<point x="212" y="947"/>
			<point x="197" y="947" type="curve" smooth="yes"/>
			<point x="160" y="947"/>
			<point x="101" y="947"/>
			<point x="64" y="947" type="curve"/>
			<point x="119" y="889"/>
			<point x="190" y="815"/>
			<point x="211" y="794" type="curve" smooth="yes"/>
			<point x="228" y="777"/>
			<point x="233" y="775"/>
			<point x="242" y="775" type="curve" smooth="yes"/>
			<point x="272" y="775"/>
			<point x="364" y="775"/>
		</contour>
	</outline>
</glyph>
<glyph name="Dcroat" format="2">
	<unicode hex="0110"/>
	<advance width="600"/>
	<outline>
		<contour>
			<point x="10" y="410" type="line"/>
			<point x="10" y="376"/>
			<point x="10" y="345"/>
			<point x="10" y="311" type="curve" smooth="yes"/>
			<point x="10" y="304"/>
			<point x="14" y="300"/>
			<point x="21" y="300" type="curve" smooth="yes"/>
			<point x="320" y="300" type="line"/>
			<point x="320" y="334"/>
			<point x="320" y="365"/>
			<point x="320" y="399" type="curve" smooth="yes"/>
			<point x="320" y="406"/>
			<point x="316" y="410"/>
			<point x="309" y="410" type="curve"/>
		</contour>
		<contour>
			<point x="595" y="238" type="curve" smooth="yes"/>
			<point x="595" y="463" type="line" smooth="yes"/>
			<point x="595" y="603"/>
			<point x="527" y="700"/>
			<point x="345" y="700" type="curve" smooth="yes"/>
			<point x="262" y="700"/>
			<point x="113" y="700"/>
			<point x="30" y="700" type="curve"/>
			<point x="30" y="660"/>
			<point x="30" y="609"/>
			<point x="30" y="569" type="curve" smooth="yes"/>
			<point x="30" y="562"/>
			<point x="34" y="558"/>
			<point x="41" y="558" type="curve" smooth="yes"/>
			<point x="123" y="558"/>
			<point x="274" y="558"/>
			<point x="356" y="558" type="curve"/>
			<point x="387" y="558"/>
			<point x="408" y="552"/>
			<point x="422" y="538" type="curve" smooth="yes"/>
			<point x="438" y="522"/>
			<point x="445" y="495"/>
			<point x="445" y="453" type="curve" smooth="yes"/>
			<point x="445" y="247" type="line" smooth="yes"/>
			<point x="445" y="183"/>
			<point x="423" y="142"/>
			<point x="356" y="142" type="curve"/>
			<point x="333" y="142"/>
			<point x="257" y="142"/>
			<point x="235" y="142" type="curve"/>
			<point x="235" y="262"/>
			<point x="235" y="361"/>
			<point x="235" y="481" type="curve" smooth="yes"/>
			<point x="235" y="516"/>
			<point x="235" y="562"/>
			<point x="235" y="597" type="curve" smooth="yes"/>
			<point x="245" y="622" type="line"/>
			<point x="75" y="622" type="line"/>
			<point x="75" y="419"/>
			<point x="75" y="214"/>
			<point x="75" y="11" type="curve" smooth="yes"/>
			<point x="75" y="4"/>
			<point x="79" y="0"/>
			<point x="86" y="0" type="curve" smooth="yes"/>
			<point x="104" y="0"/>
			<point x="286" y="0"/>
			<point x="359" y="0" type="curve" smooth="yes"/>
			<point x="506" y="0"/>
			<point x="595" y="90"/>
		</contour>
	</outline>
</glyph>
<glyph name="ebreve" format="2">
	<unicode hex="0115"/>
	<advance width="600"/>
	<outline>
		<contour>
			<point x="302" y="552" type="curve" smooth="yes"/>
			<point x="154" y="552"/>
			<point x="65" y="457"/>
			<point x="65" y="330" type="curve" smooth="yes"/>
			<point x="65" y="212" type="line" smooth="yes"/>
			<point x="65" y="75"/>
			<point x="151" y="-12"/>
			<point x="331" y="-12" type="curve" smooth="yes"/>
			<point x="409" y="-12"/>
			<point x="497" y="7"/>
			<point x="511" y="21" type="curve" smooth="yes"/>
			<point x="514" y="24"/>
			<point x="515" y="26"/>
			<point x="515" y="29" type="curve" smooth="yes"/>
			<point x="515" y="67"/>
			<point x="515" y="106"/>
			<point x="515" y="143" type="curve"/>
			<point x="495" y="143" type="line"/>
			<point x="450" y="129"/>
			<point x="403" y="118"/>
			<point x="332" y="118" type="curve" smooth="yes"/>
			<point x="289" y="118"/>
			<point x="256" y="125"/>
			<point x="236" y="145" type="curve" smooth="yes"/>
			<point x="222" y="159"/>
			<point x="215" y="180"/>
			<point x="215" y="210" type="curve" smooth="yes"/>
			<point x="215" y="337" type="line" smooth="yes"/>
			<point x="215" y="401"/>
			<point x="242" y="427"/>
			<point x="302" y="427" type="curve" smooth="yes"/>
			<point x="331" y="427"/>
			<point x="351" y="421"/>
			<point x="364" y="408" type="curve" smooth="yes"/>
			<point x="379" y="393"/>
			<point x="385" y="370"/>
			<point x="385" y="337" type="curve" smooth="yes"/>
			<point x="385" y="332"/>
			<point x="385" y="329"/>
			<point x="385" y="324" type="curve"/>
			<point x="185" y="324" type="line"/>
			<point x="185" y="234" type="line"/>
			<point x="230" y="234" type="line"/>
			<point x="253" y="234"/>
			<point x="277" y="234"/>
			<point x="300" y="234" type="curve"/>
			<point x="520" y="234" type="line"/>
			<point x="526" y="234"/>
			<point x="530" y="238"/>
			<point x="530" y="244" type="curve" smooth="yes"/>
			<point x="530" y="330" type="line" smooth="yes"/>
			<point x="530" y="457"/>
			<point x="443" y="552"/>
		</contour>
		<contour>
			<point x="300" y="750" type="curve"/>
			<point x="255" y="750"/>
			<point x="229" y="766"/>
			<point x="213" y="813" type="curve"/>
			<point x="185" y="813"/>
			<point x="158" y="813"/>
			<point x="130" y="813" type="curve" smooth="yes"/>
			<point x="117" y="813"/>
			<point x="114" y="810"/>
			<point x="116" y="791" type="curve" smooth="yes"/>
			<point x="126" y="700"/>
			<point x="203" y="638"/>
			<point x="293" y="638" type="curve" smooth="yes"/>
			<point x="307" y="638" type="line" smooth="yes"/>
			<point x="397" y="638"/>
			<point x="474" y="700"/>
			<point x="484" y="791" type="curve" smooth="yes"/>
			<point x="486" y="810"/>
			<point x="483" y="813"/>
			<point x="470" y="813" type="curve" smooth="yes"/>
			<point x="442" y="813"/>
			<point x="415" y="813"/>
			<point x="387" y="813" type="curve"/>
			<point x="371" y="766"/>
			<point x="345" y="750"/>
		</contour>
	</outline>
</glyph>
<glyph name="Edotaccent" format="2">
	<unicode hex="0116"/>
	<advance width="550"/>
	<outline>
		<contour>
			<point x="30" y="700" type="line"/>
			<point x="30" y="654"/>
			<point x="30" y="622"/>
			<point x="30" y="576" type="curve" smooth="yes"/>
			<point x="30" y="570"/>
			<point x="35" y="565"/>
			<point x="41" y="565" type="curve" smooth="yes"/>
			<point x="500" y="565" type="line"/>
			<point x="500" y="611"/>
			<point x="500" y="643"/>
			<point x="500" y="689" type="curve" smooth="yes"/>
			<point x="500" y="695"/>
			<point x="495" y="700"/>
			<point x="489" y="700" type="curve" smooth="yes"/>
		</contour>
		<contour>
			<point x="176" y="416" type="line"/>
			<point x="176" y="286" type="line"/>
			<point x="440" y="286" type="line"/>
			<point x="440" y="325"/>
			<point x="440" y="358"/>
			<point x="440" y="405" type="curve" smooth="yes"/>
			<point x="440" y="411"/>
			<point x="435" y="416"/>
			<point x="429" y="416" type="curve"/>
		</contour>
		<contour>
			<point x="86" y="0" type="curve" smooth="yes"/>
			<point x="500" y="0" type="line"/>
			<point x="500" y="44"/>
			<point x="500" y="80"/>
			<point x="500" y="124" type="curve"/>
			<point x="500" y="130"/>
			<point x="495" y="135"/>
			<point x="489" y="135" type="curve"/>
			<point x="235" y="135" type="line"/>
			<point x="235" y="253"/>
			<point x="235" y="377"/>
			<point x="235" y="495" type="curve" smooth="yes"/>
			<point x="235" y="527"/>
			<point x="235" y="560"/>
			<point x="235" y="592" type="curve"/>
			<point x="243" y="616" type="line"/>
			<point x="75" y="616" type="line"/>
			<point x="75" y="415"/>
			<point x="75" y="77"/>
			<point x="75" y="11" type="curve"/>
			<point x="75" y="5"/>
			<point x="80" y="0"/>
		</contour>
		<contour>
			<point x="165" y="937" type="curve"/>
			<point x="165" y="798" type="line" smooth="yes"/>
			<point x="165" y="791"/>
			<point x="169" y="787"/>
			<point x="176" y="787" type="curve" smooth="yes"/>
			<point x="232" y="787"/>
			<point x="299" y="787"/>
			<point x="355" y="787" type="curve"/>
			<point x="355" y="926" type="line" smooth="yes"/>
			<point x="355" y="933"/>
			<point x="351" y="937"/>
			<point x="344" y="937" type="curve" smooth="yes"/>
			<point x="288" y="937"/>
			<point x="221" y="937"/>
		</contour>
	</outline>
</glyph>
<glyph name="edotaccent" format="2">
	<unicode hex="0117"/>
	<advance width="600"/>
	<outline>
		<contour>
			<point x="302" y="552" type="curve" smooth="yes"/>
			<point x="154" y="552"/>
			<point x="65" y="457"/>
			<point x="65" y="330" type="curve" smooth="yes"/>
			<point x="65" y="212" type="line" smooth="yes"/>
			<point x="65" y="75"/>
			<point x="151" y="-12"/>
			<point x="331" y="-12" type="curve" smooth="yes"/>
			<point x="409" y="-12"/>
			<point x="497" y="7"/>
			<point x="511" y="21" type="curve" smooth="yes"/>
			<point x="514" y="24"/>
			<point x="515" y="26"/>
			<point x="515" y="29" type="curve" smooth="yes"/>
			<point x="515" y="67"/>
			<point x="515" y="106"/>
			<point x="515" y="143" type="curve"/>
			<point x="495" y="143" type="line"/>
			<point x="450" y="129"/>
			<point x="403" y="118"/>
			<point x="332" y="118" type="curve" smooth="yes"/>
			<point x="289" y="118"/>
			<point x="256" y="125"/>
			<point x="236" y="145" type="curve" smooth="yes"/>
			<point x="222" y="159"/>
			<point x="215" y="180"/>
			<point x="215" y="210" type="curve" smooth="yes"/>
			<point x="215" y="337" type="line" smooth="yes"/>
			<point x="215" y="401"/>
			<point x="242" y="427"/>
			<point x="302" y="427" type="curve" smooth="yes"/>
			<point x="331" y="427"/>
			<point x="351" y="421"/>
			<point x="364" y="408" type="curve" smooth="yes"/>
			<point x="379" y="393"/>
			<point x="385" y="370"/>
			<point x="385" y="337" type="curve" smooth="yes"/>
			<point x="385" y="332"/>
			<point x="385" y="329"/>
			<point x="385" y="324" type="curve"/>
			<point x="185" y="324" type="line"/>
			<point x="185" y="234" type="line"/>
			<point x="230" y="234" type="line"/>
			<point x="253" y="234"/>
			<point x="277" y="234"/>
			<point x="300" y="234" type="curve"/>
			<point x="520" y="234" type="line"/>
			<point x="526" y="234"/>
			<point x="530" y="238"/>
			<point x="530" y="244" type="curve" smooth="yes"/>
			<point x="530" y="330" type="line" smooth="yes"/>
			<point x="530" y="457"/>
			<point x="443" y="552"/>
		</contour>
		<contour>
			<point x="205" y="802" type="curve"/>
			<point x="205" y="663" type="line" smooth="yes"/>
			<point x="205" y="656"/>
			<point x="209" y="652"/>
			<point x="216" y="652" type="curve" smooth="yes"/>
			<point x="272" y="652"/>
			<point x="339" y="652"/>
			<point x="395" y="652" type="curve"/>
			<point x="395" y="791" type="line" smooth="yes"/>
			<point x="395" y="798"/>
			<point x="391" y="802"/>
			<point x="384" y="802" type="curve" smooth="yes"/>
			<point x="328" y="802"/>
			<point x="261" y="802"/>
		</contour>
	</outline>
</glyph>
<glyph name="Eogonek" format="2">
	<unicode hex="0118"/>
	<advance width="550"/>
	<outline>
		<contour>
			<point x="30" y="700" type="line"/>
			<point x="30" y="654"/>
			<point x="30" y="622"/>
			<point x="30" y="576" type="curve" smooth="yes"/>
			<point x="30" y="570"/>
			<point x="35" y="565"/>
			<point x="41" y="565" type="curve" smooth="yes"/>
			<point x="500" y="565" type="line"/>
			<point x="500" y="611"/>
			<point x="500" y="643"/>
			<point x="500" y="689" type="curve" smooth="yes"/>
			<point x="500" y="695"/>
			<point x="495" y="700"/>
			<point x="489" y="700" type="curve" smooth="yes"/>
		</contour>
		<contour>
			<point x="176" y="416" type="line"/>
			<point x="176" y="286" type="line"/>
			<point x="440" y="286" type="line"/>
			<point x="440" y="325"/>
			<point x="440" y="358"/>
			<point x="440" y="405" type="curve" smooth="yes"/>
			<point x="440" y="411"/>
			<point x="435" y="416"/>
			<point x="429" y="416" type="curve"/>
		</contour>
		<contour>
			<point x="86" y="0" type="curve" smooth="yes"/>
			<point x="500" y="0" type="line"/>
			<point x="500" y="44"/>
			<point x="500" y="80"/>
			<point x="500" y="124" type="curve"/>
			<point x="500" y="130"/>
			<point x="495" y="135"/>
			<point x="489" y="135" type="curve"/>
			<point x="235" y="135" type="line"/>
			<point x="235" y="253"/>
			<point x="235" y="377"/>
			<point x="235" y="495" type="curve" smooth="yes"/>
			<point x="235" y="527"/>
			<point x="235" y="560"/>
			<point x="235" y="592" type="curve"/>
			<point x="243" y="616" type="line"/>
			<point x="75" y="616" type="line"/>
			<point x="75" y="415"/>
			<point x="75" y="77"/>
			<point x="75" y="11" type="curve"/>
			<point x="75" y="5"/>
			<point x="80" y="0"/>
		</contour>
		<contour>
			<point x="437" y="45" type="curve" smooth="yes"/>
			<point x="359" y="45"/>
			<point x="261" y="-14"/>
			<point x="261" y="-121" type="curve" smooth="yes"/>
			<point x="261" y="-203"/>
			<point x="319" y="-250"/>
			<point x="413" y="-250" type="curve" smooth="yes"/>
			<point x="457" y="-250"/>
			<point x="495" y="-236"/>
			<point x="495" y="-215" type="curve" smooth="yes"/>
			<point x="495" y="-131"/>
			<point x="495" y="-114"/>
			<point x="495" y="-93" type="curve"/>
			<point x="475" y="-93" type="line"/>
			<point x="462" y="-101"/>
			<point x="447" y="-106"/>
			<point x="431" y="-106" type="curve" smooth="yes"/>
			<point x="406" y="-106"/>
			<point x="393" y="-96"/>
			<point x="393" y="-76" type="curve" smooth="yes"/>
			<point x="393" y="-45"/>
			<point x="426" y="-20"/>
			<point x="487" y="-11" type="curve" smooth="yes"/>
			<point x="499" y="-9"/>
			<point x="500" y="-4"/>
			<point x="500" y="0" type="curve"/>
			<point x="486" y="23"/>
			<point x="466" y="45"/>
		</contour>
	</outline>
</glyph>
<glyph name="ecaron" format="2">
	<unicode hex="011B"/>
	<advance width="600"/>
	<outline>
		<contour>
			<point x="302" y="552" type="curve" smooth="yes"/>
			<point x="154" y="552"/>
			<point x="65" y="457"/>
			<point x="65" y="330" type="curve" smooth="yes"/>
			<point x="65" y="212" type="line" smooth="yes"/>
			<point x="65" y="75"/>
			<point x="151" y="-12"/>
			<point x="331" y="-12" type="curve" smooth="yes"/>
			<point x="409" y="-12"/>
			<point x="497" y="7"/>
			<point x="511" y="21" type="curve" smooth="yes"/>
			<point x="514" y="24"/>
			<point x="515" y="26"/>
			<point x="515" y="29" type="curve" smooth="yes"/>
			<point x="515" y="67"/>
			<point x="515" y="106"/>
			<point x="515" y="143" type="curve"/>
			<point x="495" y="143" type="line"/>
			<point x="450" y="129"/>
			<point x="403" y="118"/>
			<point x="332" y="118" type="curve" smooth="yes"/>
			<point x="289" y="118"/>
			<point x="256" y="125"/>
			<point x="236" y="145" type="curve" smooth="yes"/>
			<point x="222" y="159"/>
			<point x="215" y="180"/>
			<point x="215" y="210" type="curve" smooth="yes"/>
			<point x="215" y="337" type="line" smooth="yes"/>
			<point x="215" y="401"/>
			<point x="242" y="427"/>
			<point x="302" y="427" type="curve" smooth="yes"/>
			<point x="331" y="427"/>
			<point x="351" y="421"/>
			<point x="364" y="408" type="curve" smooth="yes"/>
			<point x="379" y="393"/>
			<point x="385" y="370"/>
			<point x="385" y="337" type="curve" smooth="yes"/>
			<point x="385" y="332"/>
			<point x="385" y="329"/>
			<point x="385" y="324" type="curve"/>
			<point x="185" y="324" type="line"/>
			<point x="185" y="234" type="line"/>
			<point x="230" y="234" type="line"/>
			<point x="253" y="234"/>
			<point x="277" y="234"/>
			<point x="300" y="234" type="curve"/>
			<point x="520" y="234" type="line"/>
			<point x="526" y="234"/>
			<point x="530" y="238"/>
			<point x="530" y="244" type="curve" smooth="yes"/>
			<point x="530" y="330" type="line" smooth="yes"/>
			<point x="530" y="457"/>
			<point x="443" y="552"/>
		</contour>
		<contour>
			<point x="353" y="639" type="curve"/>
			<point x="379" y="671"/>
			<point x="459" y="768"/>
			<point x="488" y="804" type="curve" smooth="yes"/>
			<point x="504" y="824"/>
			<point x="506" y="826"/>
			<point x="506" y="832" type="curve" smooth="yes"/>
			<point x="506" y="837"/>
			<point x="503" y="841"/>
			<point x="495" y="841" type="curve" smooth="yes"/>
			<point x="388" y="841" type="line"/>
			<point x="361" y="815"/>
			<point x="332" y="784"/>
			<point x="282" y="731" type="curve"/>
			<point x="332" y="754" type="line"/>
			<point x="266" y="754" type="line"/>
			<point x="318" y="733" type="line"/>
			<point x="265" y="787"/>
			<point x="236" y="817"/>
			<point x="223" y="830" type="curve" smooth="yes"/>
			<point x="214" y="839"/>
			<point x="209" y="841"/>
			<point x="194" y="841" type="curve" smooth="yes"/>
			<point x="157" y="841"/>
			<point x="119" y="841"/>
			<point x="82" y="841" type="curve"/>
			<point x="129" y="783"/>
			<point x="210" y="684"/>
			<point x="229" y="661" type="curve" smooth="yes"/>
			<point x="245" y="642"/>
			<point x="249" y="639"/>
			<point x="259" y="639" type="curve" smooth="yes"/>
			<point x="290" y="639"/>
			<point x="322" y="639"/>
		</contour>
	</outline>
</glyph>
<glyph name="gcircumflex" format="2">
	<unicode hex="011D"/>
	<advance width="600"/>
	<outline>
		<contour>
			<point x="110" y="75" type="curve" smooth="yes"/>
			<point x="110" y="24"/>
			<point x="155" y="-20"/>
			<point x="199" y="-20" type="curve"/>
			<point x="382" y="-20" type="line" smooth="yes"/>
			<point x="415" y="-20"/>
			<point x="427" y="-30"/>
			<point x="427" y="-65" type="curve" smooth="yes"/>
			<point x="427" y="-89" type="line" smooth="yes"/>
			<point x="427" y="-107"/>
			<point x="424" y="-122"/>
			<point x="416" y="-130" type="curve" smooth="yes"/>
			<point x="409" y="-137"/>
			<point x="398" y="-140"/>
			<point x="382" y="-140" type="curve" smooth="yes"/>
			<point x="228" y="-140" type="line" smooth="yes"/>
			<point x="195" y="-140"/>
			<point x="183" y="-130"/>
			<point x="183" y="-96" type="curve" smooth="yes"/>
			<point x="183" y="-68" type="line" smooth="yes"/>
			<point x="183" y="-42"/>
			<point x="190" y="-27"/>
			<point x="214" y="-16" type="curve"/>
			<point x="138" y="30" type="line"/>
			<point x="138" y="-10" type="line"/>
			<point x="76" y="-19"/>
			<point x="35" y="-59"/>
			<point x="35" y="-118" type="curve" smooth="yes"/>
			<point x="35" y="-131" type="line" smooth="yes"/>
			<point x="35" y="-209"/>
			<point x="88" y="-250"/>
			<point x="191" y="-250" type="curve"/>
			<point x="400" y="-250" type="line" smooth="yes"/>
			<point x="519" y="-250"/>
			<point x="575" y="-184"/>
			<point x="575" y="-90" type="curve" smooth="yes"/>
			<point x="575" y="-55" type="line" smooth="yes"/>
			<point x="575" y="39"/>
			<point x="519" y="105"/>
			<point x="400" y="105" type="curve" smooth="yes"/>
			<point x="277" y="105" type="line" smooth="yes"/>
			<point x="264" y="105"/>
			<point x="260" y="109"/>
			<point x="260" y="122" type="curve" smooth="yes"/>
			<point x="260" y="142"/>
			<point x="260" y="161"/>
			<point x="260" y="181" type="curve"/>
			<point x="194" y="206" type="line"/>
			<point x="194" y="172" type="line"/>
			<point x="135" y="155"/>
			<point x="110" y="121"/>
		</contour>
		<contour>
			<point x="353" y="430" type="line"/>
			<point x="370" y="412"/>
			<point x="375" y="397"/>
			<point x="375" y="373" type="curve" smooth="yes"/>
			<point x="375" y="352" type="line" smooth="yes"/>
			<point x="375" y="309"/>
			<point x="351" y="289"/>
			<point x="293" y="289" type="curve" smooth="yes"/>
			<point x="258" y="289"/>
			<point x="234" y="296"/>
			<point x="220" y="310" type="curve" smooth="yes"/>
			<point x="210" y="320"/>
			<point x="205" y="332"/>
			<point x="205" y="349" type="curve" smooth="yes"/>
			<point x="205" y="365" type="line" smooth="yes"/>
			<point x="205" y="406"/>
			<point x="235" y="425"/>
			<point x="293" y="425" type="curve" smooth="yes"/>
			<point x="395" y="425"/>
			<point x="468" y="425"/>
			<point x="555" y="425" type="curve" smooth="yes"/>
			<point x="561" y="425"/>
			<point x="566" y="430"/>
			<point x="566" y="436" type="curve" smooth="yes"/>
			<point x="566" y="474"/>
			<point x="566" y="512"/>
			<point x="566" y="550" type="curve"/>
			<point x="475" y="550"/>
			<point x="384" y="550"/>
			<point x="293" y="550" type="curve"/>
			<point x="141" y="550"/>
			<point x="60" y="482"/>
			<point x="60" y="371" type="curve" smooth="yes"/>
			<point x="60" y="350" type="line" smooth="yes"/>
			<point x="60" y="239"/>
			<point x="141" y="176"/>
			<point x="293" y="176" type="curve"/>
			<point x="446" y="176"/>
			<point x="519" y="228"/>
			<point x="519" y="312" type="curve" smooth="yes"/>
			<point x="519" y="326" type="line" smooth="yes"/>
			<point x="519" y="371"/>
			<point x="498" y="396"/>
			<point x="450" y="409" type="curve"/>
			<point x="450" y="439" type="line"/>
		</contour>
		<contour>
			<point x="247" y="812" type="curve"/>
			<point x="221" y="780"/>
			<point x="141" y="683"/>
			<point x="112" y="647" type="curve" smooth="yes"/>
			<point x="96" y="627"/>
			<point x="94" y="625"/>
			<point x="94" y="619" type="curve" smooth="yes"/>
			<point x="94" y="614"/>
			<point x="97" y="610"/>
			<point x="105" y="610" type="curve" smooth="yes"/>
			<point x="212" y="610" type="line"/>
			<point x="239" y="636"/>
			<point x="268" y="667"/>
			<point x="318" y="720" type="curve"/>
			<point x="268" y="697" type="line"/>
			<point x="334" y="697" type="line"/>
			<point x="282" y="718" type="line"/>
			<point x="335" y="664"/>
			<point x="364" y="634"/>
			<point x="377" y="621" type="curve" smooth="yes"/>
			<point x="386" y="612"/>
			<point x="391" y="610"/>
			<point x="406" y="610" type="curve" smooth="yes"/>
			<point x="443" y="610"/>
			<point x="481" y="610"/>
			<point x="518" y="610" type="curve"/>
			<point x="471" y="668"/>
			<point x="390" y="767"/>
			<point x="371" y="790" type="curve" smooth="yes"/>
			<point x="355" y="809"/>
			<point x="351" y="812"/>
			<point x="341" y="812" type="curve" smooth="yes"/>
			<point x="310" y="812"/>
			<point x="278" y="812"/>
		</contour>
	</outline>
</glyph>
<glyph name="gbreve" format="2">
	<unicode hex="011F"/>
	<advance width="600"/>
	<outline>
		<contour>
			<point x="110" y="75" type="curve" smooth="yes"/>
			<point x="110" y="24"/>
			<point x="155" y="-20"/>
			<point x="199" y="-20" type="curve"/>
			<point x="382" y="-20" type="line" smooth="yes"/>
			<point x="415" y="-20"/>
			<point x="427" y="-30"/>
			<point x="427" y="-65" type="curve" smooth="yes"/>
			<point x="427" y="-89" type="line" smooth="yes"/>
			<point x="427" y="-107"/>
			<point x="424" y="-122"/>
			<point x="416" y="-130" type="curve" smooth="yes"/>
			<point x="409" y="-137"/>
			<point x="398" y="-140"/>
			<point x="382" y="-140" type="curve" smooth="yes"/>
			<point x="228" y="-140" type="line" smooth="yes"/>
			<point x="195" y="-140"/>
			<point x="183" y="-130"/>
			<point x="183" y="-96" type="curve" smooth="yes"/>
			<point x="183" y="-68" type="line" smooth="yes"/>
			<point x="183" y="-42"/>
			<point x="190" y="-27"/>
			<point x="214" y="-16" type="curve"/>
			<point x="138" y="30" type="line"/>
			<point x="138" y="-10" type="line"/>
			<point x="76" y="-19"/>
			<point x="35" y="-59"/>
			<point x="35" y="-118" type="curve" smooth="yes"/>
			<point x="35" y="-131" type="line" smooth="yes"/>
			<point x="35" y="-209"/>
			<point x="88" y="-250"/>
			<point x="191" y="-250" type="curve"/>
			<point x="400" y="-250" type="line" smooth="yes"/>
			<point x="519" y="-250"/>
			<point x="575" y="-184"/>
			<point x="575" y="-90" type="curve" smooth="yes"/>
			<point x="575" y="-55" type="line" smooth="yes"/>
			<point x="575" y="39"/>
			<point x="519" y="105"/>
			<point x="400" y="105" type="curve" smooth="yes"/>
			<point x="277" y="105" type="line" smooth="yes"/>
			<point x="264" y="105"/>
			<point x="260" y="109"/>
			<point x="260" y="122" type="curve" smooth="yes"/>
			<point x="260" y="142"/>
			<point x="260" y="161"/>
			<point x="260" y="181" type="curve"/>
			<point x="194" y="206" type="line"/>
			<point x="194" y="172" type="line"/>
			<point x="135" y="155"/>
			<point x="110" y="121"/>
		</contour>
		<contour>
			<point x="353" y="430" type="line"/>
			<point x="370" y="412"/>
			<point x="375" y="397"/>
			<point x="375" y="373" type="curve" smooth="yes"/>
			<point x="375" y="352" type="line" smooth="yes"/>
			<point x="375" y="309"/>
			<point x="351" y="289"/>
			<point x="293" y="289" type="curve" smooth="yes"/>
			<point x="258" y="289"/>
			<point x="234" y="296"/>
			<point x="220" y="310" type="curve" smooth="yes"/>
			<point x="210" y="320"/>
			<point x="205" y="332"/>
			<point x="205" y="349" type="curve" smooth="yes"/>
			<point x="205" y="365" type="line" smooth="yes"/>
			<point x="205" y="406"/>
			<point x="235" y="425"/>
			<point x="293" y="425" type="curve" smooth="yes"/>
			<point x="395" y="425"/>
			<point x="468" y="425"/>
			<point x="555" y="425" type="curve" smooth="yes"/>
			<point x="561" y="425"/>
			<point x="566" y="430"/>
			<point x="566" y="436" type="curve" smooth="yes"/>
			<point x="566" y="474"/>
			<point x="566" y="512"/>
			<point x="566" y="550" type="curve"/>
			<point x="475" y="550"/>
			<point x="384" y="550"/>
			<point x="293" y="550" type="curve"/>
			<point x="141" y="550"/>
			<point x="60" y="482"/>
			<point x="60" y="371" type="curve" smooth="yes"/>
			<point x="60" y="350" type="line" smooth="yes"/>
			<point x="60" y="239"/>
			<point x="141" y="176"/>
			<point x="293" y="176" type="curve"/>
			<point x="446" y="176"/>
			<point x="519" y="228"/>
			<point x="519" y="312" type="curve" smooth="yes"/>
			<point x="519" y="326" type="line" smooth="yes"/>
			<point x="519" y="371"/>
			<point x="498" y="396"/>
			<point x="450" y="409" type="curve"/>
			<point x="450" y="439" type="line"/>
		</contour>
		<contour>
			<point x="301" y="750" type="curve"/>
			<point x="256" y="750"/>
			<point x="230" y="766"/>
			<point x="214" y="813" type="curve"/>
			<point x="186" y="813"/>
			<point x="159" y="813"/>
			<point x="131" y="813" type="curve" smooth="yes"/>
			<point x="118" y="813"/>
			<point x="115" y="810"/>
			<point x="117" y="791" type="curve" smooth="yes"/>
			<point x="127" y="700"/>
			<point x="204" y="638"/>
			<point x="294" y="638" type="curve" smooth="yes"/>
			<point x="308" y="638" type="line" smooth="yes"/>
			<point x="398" y="638"/>
			<point x="475" y="700"/>
			<point x="485" y="791" type="curve" smooth="yes"/>
			<point x="487" y="810"/>
			<point x="484" y="813"/>
			<point x="471" y="813" type="curve" smooth="yes"/>
			<point x="443" y="813"/>
			<point x="416" y="813"/>
			<point x="388" y="813" type="curve"/>
			<point x="372" y="766"/>
			<point x="346" y="750"/>
		</contour>
	</outline>
</glyph>
<glyph name="Gcommaaccent" format="2">
	<unicode hex="0122"/>
	<advance width="650"/>
	<outline>
		<contour>
			<point x="335" y="390" type="line"/>
			<point x="335" y="350"/>
			<point x="335" y="311"/>
			<point x="335" y="271" type="curve" smooth="yes"/>
			<point x="335" y="264"/>
			<point x="339" y="260"/>
			<point x="346" y="260" type="curve" smooth="yes"/>
			<point x="610" y="260" type="line"/>
			<point x="610" y="379" type="line" smooth="yes"/>
			<point x="610" y="385"/>
			<point x="605" y="390"/>
			<point x="599" y="390" type="curve" smooth="yes"/>
		</contour>
		<contour>
			<point x="345" y="720" type="curve"/>
			<point x="148" y="720"/>
			<point x="50" y="612"/>
			<point x="50" y="449" type="curve"/>
			<point x="50" y="254" type="line" smooth="yes"/>
			<point x="50" y="85"/>
			<point x="134" y="-20"/>
			<point x="346" y="-20" type="curve" smooth="yes"/>
			<point x="435" y="-20"/>
			<point x="531" y="15"/>
			<point x="569" y="63" type="curve" smooth="yes"/>
			<point x="574" y="70"/>
			<point x="575" y="73"/>
			<point x="575" y="83" type="curve"/>
			<point x="575" y="154"/>
			<point x="575" y="211"/>
			<point x="575" y="279" type="curve"/>
			<point x="580" y="305" type="line"/>
			<point x="435" y="305" type="line"/>
			<point x="435" y="250"/>
			<point x="435" y="206"/>
			<point x="435" y="145" type="curve"/>
			<point x="416" y="128"/>
			<point x="376" y="120"/>
			<point x="332" y="120" type="curve"/>
			<point x="280" y="120"/>
			<point x="251" y="130"/>
			<point x="232" y="149" type="curve" smooth="yes"/>
			<point x="213" y="168"/>
			<point x="200" y="200"/>
			<point x="200" y="246" type="curve" smooth="yes"/>
			<point x="200" y="444" type="line" smooth="yes"/>
			<point x="200" y="535"/>
			<point x="248" y="577"/>
			<point x="337" y="577" type="curve"/>
			<point x="388" y="577"/>
			<point x="426" y="570"/>
			<point x="459" y="555" type="curve"/>
			<point x="431" y="596" type="line"/>
			<point x="431" y="554"/>
			<point x="431" y="528"/>
			<point x="431" y="506" type="curve"/>
			<point x="431" y="499"/>
			<point x="435" y="495"/>
			<point x="442" y="495" type="curve"/>
			<point x="485" y="495"/>
			<point x="528" y="495"/>
			<point x="571" y="495" type="curve"/>
			<point x="571" y="540"/>
			<point x="571" y="601"/>
			<point x="571" y="640" type="curve"/>
			<point x="571" y="648"/>
			<point x="570" y="653"/>
			<point x="565" y="658" type="curve" smooth="yes"/>
			<point x="535" y="688"/>
			<point x="459" y="720"/>
		</contour>
		<contour>
			<point x="271" y="-60" type="curve"/>
			<point x="258" y="-120"/>
			<point x="244" y="-187"/>
			<point x="230" y="-253" type="curve"/>
			<point x="278" y="-253"/>
			<point x="322" y="-253"/>
			<point x="351" y="-253" type="curve" smooth="yes"/>
			<point x="360" y="-253"/>
			<point x="364" y="-248"/>
			<point x="366" y="-243" type="curve" smooth="yes"/>
			<point x="389" y="-182"/>
			<point x="408" y="-131"/>
			<point x="430" y="-73" type="curve" smooth="yes"/>
			<point x="433" y="-65"/>
			<point x="427" y="-60"/>
			<point x="419" y="-60" type="curve" smooth="yes"/>
			<point x="370" y="-60"/>
			<point x="321" y="-60"/>
		</contour>
	</outline>
</glyph>
<glyph name="hcircumflex" format="2">
	<unicode hex="0125"/>
	<advance width="600"/>
	<outline>
		<contour>
			<point x="81" y="0" type="curve"/>
			<point x="131" y="0"/>
			<point x="170" y="0"/>
			<point x="220" y="0" type="curve"/>
			<point x="220" y="246"/>
			<point x="220" y="493"/>
			<point x="220" y="739" type="curve" smooth="yes"/>
			<point x="220" y="746"/>
			<point x="216" y="750"/>
			<point x="209" y="750" type="curve"/>
			<point x="164" y="750"/>
			<point x="125" y="750"/>
			<point x="70" y="750" type="curve"/>
			<point x="70" y="722"/>
			<point x="70" y="688"/>
			<point x="70" y="652" type="curve" smooth="yes"/>
			<point x="70" y="439"/>
			<point x="70" y="224"/>
			<point x="70" y="11" type="curve" smooth="yes"/>
			<point x="70" y="4"/>
			<point x="74" y="0"/>
		</contour>
		<contour>
			<point x="203" y="328" type="line"/>
			<point x="240" y="380"/>
			<point x="305" y="407"/>
			<point x="348" y="407" type="curve" smooth="yes"/>
			<point x="379" y="407"/>
			<point x="390" y="393"/>
			<point x="390" y="363" type="curve"/>
			<point x="390" y="246"/>
			<point x="390" y="128"/>
			<point x="390" y="11" type="curve" smooth="yes"/>
			<point x="390" y="4"/>
			<point x="394" y="0"/>
			<point x="401" y="0" type="curve"/>
			<point x="451" y="0"/>
			<point x="490" y="0"/>
			<point x="540" y="0" type="curve"/>
			<point x="540" y="33"/>
			<point x="540" y="66"/>
			<point x="540" y="99" type="curve" smooth="yes"/>
			<point x="540" y="199"/>
			<point x="540" y="297"/>
			<point x="540" y="394" type="curve" smooth="yes"/>
			<point x="540" y="493"/>
			<point x="484" y="552"/>
			<point x="398" y="552" type="curve" smooth="yes"/>
			<point x="332" y="552"/>
			<point x="277" y="512"/>
			<point x="240" y="454" type="curve"/>
			<point x="203" y="454" type="line"/>
		</contour>
		<contour>
			<point x="86" y="991" type="curve"/>
			<point x="60" y="959"/>
			<point x="-20" y="862"/>
			<point x="-49" y="826" type="curve" smooth="yes"/>
			<point x="-65" y="806"/>
			<point x="-67" y="804"/>
			<point x="-67" y="798" type="curve" smooth="yes"/>
			<point x="-67" y="793"/>
			<point x="-64" y="789"/>
			<point x="-56" y="789" type="curve" smooth="yes"/>
			<point x="51" y="789" type="line"/>
			<point x="78" y="815"/>
			<point x="107" y="846"/>
			<point x="157" y="899" type="curve"/>
			<point x="107" y="876" type="line"/>
			<point x="173" y="876" type="line"/>
			<point x="121" y="897" type="line"/>
			<point x="174" y="843"/>
			<point x="203" y="813"/>
			<point x="216" y="800" type="curve" smooth="yes"/>
			<point x="225" y="791"/>
			<point x="230" y="789"/>
			<point x="245" y="789" type="curve" smooth="yes"/>
			<point x="282" y="789"/>
			<point x="320" y="789"/>
			<point x="357" y="789" type="curve"/>
			<point x="310" y="847"/>
			<point x="229" y="946"/>
			<point x="210" y="969" type="curve" smooth="yes"/>
			<point x="194" y="988"/>
			<point x="190" y="991"/>
			<point x="180" y="991" type="curve" smooth="yes"/>
			<point x="149" y="991"/>
			<point x="117" y="991"/>
		</contour>
	</outline>
</glyph>
<glyph name="Itilde" format="2">
	<unicode hex="0128"/>
	<advance width="500"/>
	<outline>
		<contour>
			<point x="330" y="85" type="line"/>
			<point x="330" y="220"/>
			<point x="330" y="359"/>
			<point x="330" y="495" type="curve"/>
			<point x="330" y="517"/>
			<point x="330" y="547"/>
			<point x="330" y="569" type="curve"/>
			<point x="334" y="615" type="line"/>
			<point x="170" y="615" type="line"/>
			<point x="170" y="479"/>
			<point x="170" y="340"/>
			<point x="170" y="205" type="curve"/>
			<point x="170" y="184"/>
			<point x="170" y="152"/>
			<point x="170" y="131" type="curve"/>
			<point x="166" y="85" type="line"/>
		</contour>
		<contour>
			<point x="430" y="0" type="line"/>
			<point x="430" y="44"/>
			<point x="430" y="80"/>
			<point x="430" y="124" type="curve" smooth="yes"/>
			<point x="430" y="130"/>
			<point x="425" y="135"/>
			<point x="419" y="135" type="curve" smooth="yes"/>
			<point x="70" y="135" type="line"/>
			<point x="70" y="91"/>
			<point x="70" y="55"/>
			<point x="70" y="11" type="curve" smooth="yes"/>
			<point x="70" y="5"/>
			<point x="75" y="0"/>
			<point x="81" y="0" type="curve" smooth="yes"/>
		</contour>
		<contour>
			<point x="70" y="700" type="line"/>
			<point x="70" y="656"/>
			<point x="70" y="620"/>
			<point x="70" y="576" type="curve"/>
			<point x="70" y="570"/>
			<point x="75" y="565"/>
			<point x="81" y="565" type="curve" smooth="yes"/>
			<point x="430" y="565" type="line"/>
			<point x="430" y="609"/>
			<point x="430" y="645"/>
			<point x="430" y="689" type="curve" smooth="yes"/>
			<point x="430" y="695"/>
			<point x="425" y="700"/>
			<point x="419" y="700" type="curve" smooth="yes"/>
		</contour>
		<contour>
			<point x="360" y="907" type="curve" smooth="yes"/>
			<point x="287" y="907"/>
			<point x="236" y="962"/>
			<point x="146" y="962" type="curve" smooth="yes"/>
			<point x="101" y="962"/>
			<point x="71" y="948"/>
			<point x="50" y="925" type="curve" smooth="yes"/>
			<point x="43" y="917"/>
			<point x="43" y="913"/>
			<point x="43" y="902" type="curve" smooth="yes"/>
			<point x="43" y="873"/>
			<point x="43" y="817"/>
			<point x="43" y="780" type="curve"/>
			<point x="63" y="780" type="line"/>
			<point x="83" y="808"/>
			<point x="109" y="820"/>
			<point x="140" y="820" type="curve" smooth="yes"/>
			<point x="213" y="820"/>
			<point x="264" y="765"/>
			<point x="354" y="765" type="curve" smooth="yes"/>
			<point x="399" y="765"/>
			<point x="429" y="779"/>
			<point x="450" y="802" type="curve" smooth="yes"/>
			<point x="457" y="809"/>
			<point x="457" y="813"/>
			<point x="457" y="825" type="curve" smooth="yes"/>
			<point x="457" y="853"/>
			<point x="457" y="910"/>
			<point x="457" y="947" type="curve"/>
			<point x="437" y="947" type="line"/>
			<point x="417" y="918"/>
			<point x="391" y="907"/>
		</contour>
	</outline>
</glyph>
<glyph name="Ibreve" format="2">
	<unicode hex="012C"/>
	<advance width="500"/>
	<outline>
		<contour>
			<point x="330" y="85" type="line"/>
			<point x="330" y="220"/>
			<point x="330" y="359"/>
			<point x="330" y="495" type="curve"/>
			<point x="330" y="517"/>
			<point x="330" y="547"/>
			<point x="330" y="569" type="curve"/>
			<point x="334" y="615" type="line"/>
			<point x="170" y="615" type="line"/>
			<point x="170" y="479"/>
			<point x="170" y="340"/>
			<point x="170" y="205" type="curve"/>
			<point x="170" y="184"/>
			<point x="170" y="152"/>
			<point x="170" y="131" type="curve"/>
			<point x="166" y="85" type="line"/>
		</contour>
		<contour>
			<point x="430" y="0" type="line"/>
			<point x="430" y="44"/>
			<point x="430" y="80"/>
			<point x="430" y="124" type="curve" smooth="yes"/>
			<point x="430" y="130"/>
			<point x="425" y="135"/>
			<point x="419" y="135" type="curve" smooth="yes"/>
			<point x="70" y="135" type="line"/>
			<point x="70" y="91"/>
			<point x="70" y="55"/>
			<point x="70" y="11" type="curve" smooth="yes"/>
			<point x="70" y="5"/>
			<point x="75" y="0"/>
			<point x="81" y="0" type="curve" smooth="yes"/>
		</contour>
		<contour>
			<point x="70" y="700" type="line"/>
			<point x="70" y="656"/>
			<point x="70" y="620"/>
			<point x="70" y="576" type="curve"/>
			<point x="70" y="570"/>
			<point x="75" y="565"/>
			<point x="81" y="565" type="curve" smooth="yes"/>
			<point x="430" y="565" type="line"/>
			<point x="430" y="609"/>
			<point x="430" y="645"/>
			<point x="430" y="689" type="curve" smooth="yes"/>
			<point x="430" y="695"/>
			<point x="425" y="700"/>
			<point x="419" y="700" type="curve" smooth="yes"/>
		</contour>
		<contour>
			<point x="337" y="949" type="curve"/>
			<point x="321" y="909"/>
			<point x="295" y="895"/>
			<point x="250" y="895" type="curve"/>
			<point x="205" y="895"/>
			<point x="179" y="909"/>
			<point x="163" y="949" type="curve"/>
			<point x="132" y="949"/>
			<point x="101" y="949"/>
			<point x="70" y="949" type="curve" smooth="yes"/>
			<point x="57" y="949"/>
			<point x="54" y="946"/>
			<point x="56" y="930" type="curve" smooth="yes"/>
			<point x="66" y="853"/>
			<point x="133" y="778"/>
			<point x="223" y="778" type="curve" smooth="yes"/>
			<point x="277" y="778" type="line" smooth="yes"/>
			<point x="367" y="778"/>
			<point x="434" y="853"/>
			<point x="444" y="930" type="curve" smooth="yes"/>
			<point x="446" y="946"/>
			<point x="443" y="949"/>
			<point x="430" y="949" type="curve" smooth="yes"/>
			<point x="399" y="949"/>
			<point x="368" y="949"/>
		</contour>
	</outline>
</glyph>
<glyph name="ibreve" format="2">
	<unicode hex="012D"/>
	<advance width="350"/>
	<outline>
		<contour>
			<point x="110" y="11" type="curve"/>
			<point x="110" y="4"/>
			<point x="114" y="0"/>
			<point x="121" y="0" type="curve"/>
			<point x="171" y="0"/>
			<point x="210" y="0"/>
			<point x="260" y="0" type="curve"/>
			<point x="260" y="33"/>
			<point x="260" y="66"/>
			<point x="260" y="99" type="curve"/>
			<point x="260" y="223"/>
			<point x="260" y="405"/>
			<point x="260" y="529" type="curve" smooth="yes"/>
			<point x="260" y="536"/>
			<point x="256" y="540"/>
			<point x="249" y="540" type="curve" smooth="yes"/>
			<point x="207" y="540"/>
			<point x="88" y="540"/>
			<point x="30" y="540" type="curve"/>
			<point x="30" y="500"/>
			<point x="30" y="457"/>
			<point x="30" y="417" type="curve" smooth="yes"/>
			<point x="30" y="410"/>
			<point x="34" y="406"/>
			<point x="41" y="406" type="curve" smooth="yes"/>
			<point x="61" y="406"/>
			<point x="92" y="406"/>
			<point x="105" y="406" type="curve"/>
			<point x="110" y="406" type="line"/>
			<point x="110" y="325"/>
			<point x="110" y="90"/>
		</contour>
		<contour>
			<point x="177" y="750" type="curve"/>
			<point x="132" y="750"/>
			<point x="106" y="766"/>
			<point x="90" y="813" type="curve"/>
			<point x="62" y="813"/>
			<point x="35" y="813"/>
			<point x="7" y="813" type="curve" smooth="yes"/>
			<point x="-6" y="813"/>
			<point x="-9" y="810"/>
			<point x="-7" y="791" type="curve" smooth="yes"/>
			<point x="3" y="700"/>
			<point x="80" y="638"/>
			<point x="170" y="638" type="curve" smooth="yes"/>
			<point x="184" y="638" type="line" smooth="yes"/>
			<point x="274" y="638"/>
			<point x="351" y="700"/>
			<point x="361" y="791" type="curve" smooth="yes"/>
			<point x="363" y="810"/>
			<point x="360" y="813"/>
			<point x="347" y="813" type="curve" smooth="yes"/>
			<point x="319" y="813"/>
			<point x="292" y="813"/>
			<point x="264" y="813" type="curve"/>
			<point x="248" y="766"/>
			<point x="222" y="750"/>
		</contour>
	</outline>
</glyph>
<glyph name="Lcommaaccent" format="2">
	<unicode hex="013B"/>
	<advance width="550"/>
	<outline>
		<contour>
			<point x="81" y="0" type="curve" smooth="yes"/>
			<point x="500" y="0" type="line"/>
			<point x="484" y="100"/>
			<point x="458" y="135"/>
			<point x="379" y="135" type="curve"/>
			<point x="230" y="135" type="line"/>
			<point x="230" y="317"/>
			<point x="230" y="507"/>
			<point x="230" y="689" type="curve"/>
			<point x="230" y="695"/>
			<point x="225" y="700"/>
			<point x="219" y="700" type="curve"/>
			<point x="169" y="700"/>
			<point x="120" y="700"/>
			<point x="70" y="700" type="curve"/>
			<point x="70" y="673"/>
			<point x="70" y="647"/>
			<point x="70" y="620" type="curve"/>
			<point x="70" y="417"/>
			<point x="70" y="214"/>
			<point x="70" y="11" type="curve" smooth="yes"/>
			<point x="70" y="5"/>
			<point x="75" y="0"/>
		</contour>
		<contour>
			<point x="360" y="205" type="curve"/>
			<point x="360" y="182"/>
			<point x="360" y="146"/>
			<point x="360" y="121" type="curve" smooth="yes"/>
			<point x="360" y="55"/>
			<point x="393" y="10"/>
			<point x="500" y="0" type="curve"/>
			<point x="500" y="51"/>
			<point x="500" y="144"/>
			<point x="500" y="194" type="curve" smooth="yes"/>
			<point x="500" y="200"/>
			<point x="495" y="205"/>
			<point x="489" y="205" type="curve" smooth="yes"/>
			<point x="443" y="205"/>
			<point x="406" y="205"/>
		</contour>
		<contour>
			<point x="226" y="-60" type="curve"/>
			<point x="213" y="-120"/>
			<point x="199" y="-187"/>
			<point x="185" y="-253" type="curve"/>
			<point x="233" y="-253"/>
			<point x="277" y="-253"/>
			<point x="306" y="-253" type="curve" smooth="yes"/>
			<point x="315" y="-253"/>
			<point x="319" y="-248"/>
			<point x="321" y="-243" type="curve" smooth="yes"/>
			<point x="344" y="-182"/>
			<point x="363" y="-131"/>
			<point x="385" y="-73" type="curve" smooth="yes"/>
			<point x="388" y="-65"/>
			<point x="382" y="-60"/>
			<point x="374" y="-60" type="curve" smooth="yes"/>
			<point x="325" y="-60"/>
			<point x="276" y="-60"/>
		</contour>
	</outline>
</glyph>
<glyph name="Ncommaaccent" format="2">
	<unicode hex="0145"/>
	<advance width="650"/>
	<outline>
		<contour>
			<point x="200" y="0" type="curve"/>
			<point x="200" y="54"/>
			<point x="200" y="109"/>
			<point x="200" y="163" type="curve"/>
			<point x="200" y="231"/>
			<point x="196" y="341"/>
			<point x="167" y="490" type="curve"/>
			<point x="148" y="480" type="line"/>
			<point x="221" y="480" type="line"/>
			<point x="174" y="513" type="line"/>
			<point x="248" y="359"/>
			<point x="308" y="241"/>
			<point x="448" y="8" type="curve" smooth="yes"/>
			<point x="452" y="1"/>
			<point x="455" y="0"/>
			<point x="463" y="0" type="curve" smooth="yes"/>
			<point x="501" y="0"/>
			<point x="558" y="0"/>
			<point x="600" y="0" type="curve"/>
			<point x="600" y="33"/>
			<point x="600" y="67"/>
			<point x="600" y="100" type="curve" smooth="yes"/>
			<point x="600" y="296"/>
			<point x="600" y="493"/>
			<point x="600" y="689" type="curve" smooth="yes"/>
			<point x="600" y="695"/>
			<point x="595" y="700"/>
			<point x="589" y="700" type="curve" smooth="yes"/>
			<point x="543" y="700"/>
			<point x="496" y="700"/>
			<point x="450" y="700" type="curve"/>
			<point x="450" y="651"/>
			<point x="450" y="603"/>
			<point x="450" y="567" type="curve" smooth="yes"/>
			<point x="450" y="464"/>
			<point x="457" y="379"/>
			<point x="488" y="233" type="curve"/>
			<point x="509" y="243" type="line"/>
			<point x="439" y="243" type="line"/>
			<point x="479" y="217" type="line"/>
			<point x="405" y="369"/>
			<point x="343" y="482"/>
			<point x="230" y="690" type="curve" smooth="yes"/>
			<point x="225" y="700"/>
			<point x="225" y="700"/>
			<point x="213" y="700" type="curve" smooth="yes"/>
			<point x="168" y="700"/>
			<point x="95" y="700"/>
			<point x="50" y="700" type="curve"/>
			<point x="50" y="667"/>
			<point x="50" y="633"/>
			<point x="50" y="600" type="curve" smooth="yes"/>
			<point x="50" y="404"/>
			<point x="50" y="207"/>
			<point x="50" y="11" type="curve"/>
			<point x="50" y="5"/>
			<point x="55" y="0"/>
			<point x="61" y="0" type="curve" smooth="yes"/>
			<point x="107" y="0"/>
			<point x="154" y="0"/>
		</contour>
		<contour>
			<point x="291" y="-60" type="curve"/>
			<point x="278" y="-120"/>
			<point x="264" y="-187"/>
			<point x="250" y="-253" type="curve"/>
			<point x="298" y="-253"/>
			<point x="342" y="-253"/>
			<point x="371" y="-253" type="curve" smooth="yes"/>
			<point x="380" y="-253"/>
			<point x="384" y="-248"/>
			<point x="386" y="-243" type="curve" smooth="yes"/>
			<point x="409" y="-182"/>
			<point x="428" y="-131"/>
			<point x="450" y="-73" type="curve" smooth="yes"/>
			<point x="453" y="-65"/>
			<point x="447" y="-60"/>
			<point x="439" y="-60" type="curve" smooth="yes"/>
			<point x="390" y="-60"/>
			<point x="341" y="-60"/>
		</contour>
	</outline>
</glyph>
<glyph name="Ncaron" format="2">
	<unicode hex="0147"/>
	<advance width="650"/>
	<outline>
		<contour>
			<point x="200" y="0" type="curve"/>
			<point x="200" y="54"/>
			<point x="200" y="109"/>
			<point x="200" y="163" type="curve"/>
			<point x="200" y="231"/>
			<point x="196" y="341"/>
			<point x="167" y="490" type="curve"/>
			<point x="148" y="480" type="line"/>
			<point x="221" y="480" type="line"/>
			<point x="174" y="513" type="line"/>
			<point x="248" y="359"/>
			<point x="308" y="241"/>
			<point x="448" y="8" type="curve" smooth="yes"/>
			<point x="452" y="1"/>
			<point x="455" y="0"/>
			<point x="463" y="0" type="curve" smooth="yes"/>
			<point x="501" y="0"/>
			<point x="558" y="0"/>
			<point x="600" y="0" type="curve"/>
			<point x="600" y="33"/>
			<point x="600" y="67"/>
			<point x="600" y="100" type="curve" smooth="yes"/>
			<point x="600" y="296"/>
			<point x="600" y="493"/>
			<point x="600" y="689" type="curve" smooth="yes"/>
			<point x="600" y="695"/>
			<point x="595" y="700"/>
			<point x="589" y="700" type="curve" smooth="yes"/>
			<point x="543" y="700"/>
			<point x="496" y="700"/>
			<point x="450" y="700" type="curve"/>
			<point x="450" y="651"/>
			<point x="450" y="603"/>
			<point x="450" y="567" type="curve" smooth="yes"/>
			<point x="450" y="464"/>
			<point x="457" y="379"/>
			<point x="488" y="233" type="curve"/>
			<point x="509" y="243" type="line"/>
			<point x="439" y="243" type="line"/>
			<point x="479" y="217" type="line"/>
			<point x="405" y="369"/>
			<point x="343" y="482"/>
			<point x="230" y="690" type="curve" smooth="yes"/>
			<point x="225" y="700"/>
			<point x="225" y="700"/>
			<point x="213" y="700" type="curve" smooth="yes"/>
			<point x="168" y="700"/>
			<point x="95" y="700"/>
			<point x="50" y="700" type="curve"/>
			<point x="50" y="667"/>
			<point x="50" y="633"/>
			<point x="50" y="600" type="curve" smooth="yes"/>
			<point x="50" y="404"/>
			<point x="50" y="207"/>
			<point x="50" y="11" type="curve"/>
			<point x="50" y="5"/>
			<point x="55" y="0"/>
			<point x="61" y="0" type="curve" smooth="yes"/>
			<point x="107" y="0"/>
			<point x="154" y="0"/>
		</contour>
		<contour>
			<point x="433" y="775" type="curve"/>
			<point x="470" y="813"/>
			<point x="532" y="878"/>
			<point x="566" y="914" type="curve" smooth="yes"/>
			<point x="584" y="933"/>
			<point x="586" y="935"/>
			<point x="586" y="940" type="curve" smooth="yes"/>
			<point x="586" y="945"/>
			<point x="583" y="947"/>
			<point x="575" y="947" type="curve" smooth="yes"/>
			<point x="448" y="947" type="line"/>
			<point x="417" y="920"/>
			<point x="378" y="888"/>
			<point x="331" y="842" type="curve"/>
			<point x="381" y="865" type="line"/>
			<point x="359" y="865"/>
			<point x="337" y="865"/>
			<point x="315" y="865" type="curve"/>
			<point x="367" y="844" type="line"/>
			<point x="316" y="893"/>
			<point x="283" y="921"/>
			<point x="263" y="937" type="curve" smooth="yes"/>
			<point x="252" y="945"/>
			<point x="250" y="947"/>
			<point x="235" y="947" type="curve" smooth="yes"/>
			<point x="198" y="947"/>
			<point x="139" y="947"/>
			<point x="102" y="947" type="curve"/>
			<point x="157" y="889"/>
			<point x="228" y="815"/>
			<point x="249" y="794" type="curve" smooth="yes"/>
			<point x="266" y="777"/>
			<point x="271" y="775"/>
			<point x="280" y="775" type="curve" smooth="yes"/>
			<point x="310" y="775"/>
			<point x="402" y="775"/>
		</contour>
	</outline>
</glyph>
<glyph name="ncaron" format="2">
	<unicode hex="0148"/>
	<advance width="600"/>
	<outline>
		<contour>
			<point x="540" y="0" type="curve"/>
			<point x="540" y="33"/>
			<point x="540" y="66"/>
			<point x="540" y="99" type="curve" smooth="yes"/>
			<point x="540" y="199"/>
			<point x="540" y="297"/>
			<point x="540" y="394" type="curve" smooth="yes"/>
			<point x="540" y="493"/>
			<point x="484" y="552"/>
			<point x="398" y="552" type="curve" smooth="yes"/>
			<point x="332" y="552"/>
			<point x="277" y="512"/>
			<point x="240" y="454" type="curve"/>
			<point x="203" y="454" type="line"/>
			<point x="203" y="328" type="line"/>
			<point x="240" y="380"/>
			<point x="305" y="407"/>
			<point x="348" y="407" type="curve" smooth="yes"/>
			<point x="379" y="407"/>
			<point x="390" y="393"/>
			<point x="390" y="363" type="curve"/>
			<point x="390" y="246"/>
			<point x="390" y="128"/>
			<point x="390" y="11" type="curve" smooth="yes"/>
			<point x="390" y="4"/>
			<point x="394" y="0"/>
			<point x="401" y="0" type="curve"/>
			<point x="451" y="0"/>
			<point x="490" y="0"/>
		</contour>
		<contour>
			<point x="220" y="0" type="curve"/>
			<point x="220" y="176"/>
			<point x="220" y="353"/>
			<point x="220" y="529" type="curve"/>
			<point x="220" y="536"/>
			<point x="216" y="540"/>
			<point x="209" y="540" type="curve"/>
			<point x="164" y="540"/>
			<point x="125" y="540"/>
			<point x="70" y="540" type="curve"/>
			<point x="70" y="512"/>
			<point x="70" y="478"/>
			<point x="70" y="442" type="curve"/>
			<point x="70" y="298"/>
			<point x="70" y="155"/>
			<point x="70" y="11" type="curve"/>
			<point x="70" y="4"/>
			<point x="74" y="0"/>
			<point x="81" y="0" type="curve"/>
			<point x="131" y="0"/>
			<point x="170" y="0"/>
		</contour>
		<contour>
			<point x="353" y="639" type="curve"/>
			<point x="379" y="671"/>
			<point x="459" y="768"/>
			<point x="488" y="804" type="curve" smooth="yes"/>
			<point x="504" y="824"/>
			<point x="506" y="826"/>
			<point x="506" y="832" type="curve" smooth="yes"/>
			<point x="506" y="837"/>
			<point x="503" y="841"/>
			<point x="495" y="841" type="curve" smooth="yes"/>
			<point x="388" y="841" type="line"/>
			<point x="361" y="815"/>
			<point x="332" y="784"/>
			<point x="282" y="731" type="curve"/>
			<point x="332" y="754" type="line"/>
			<point x="266" y="754" type="line"/>
			<point x="318" y="733" type="line"/>
			<point x="265" y="787"/>
			<point x="236" y="817"/>
			<point x="223" y="830" type="curve" smooth="yes"/>
			<point x="214" y="839"/>
			<point x="209" y="841"/>
			<point x="194" y="841" type="curve" smooth="yes"/>
			<point x="157" y="841"/>
			<point x="119" y="841"/>
			<point x="82" y="841" type="curve"/>
			<point x="129" y="783"/>
			<point x="210" y="684"/>
			<point x="229" y="661" type="curve" smooth="yes"/>
			<point x="245" y="642"/>
			<point x="249" y="639"/>
			<point x="259" y="639" type="curve" smooth="yes"/>
			<point x="290" y="639"/>
			<point x="322" y="639"/>
		</contour>
	</outline>
</glyph>
<glyph name="Ohungarumlaut" format="2">
	<unicode hex="0150"/>
	<advance width="650"/>
	<outline>
		<contour>
			<point x="325" y="720" type="curve" smooth="yes"/>
			<point x="184" y="720"/>
			<point x="55" y="623"/>
			<point x="55" y="438" type="curve" smooth="yes"/>
			<point x="55" y="250" type="line" smooth="yes"/>
			<point x="55" y="79"/>
			<point x="172" y="-20"/>
			<point x="325" y="-20" type="curve" smooth="yes"/>
			<point x="482" y="-20"/>
			<point x="595" y="79"/>
			<point x="595" y="250" type="curve" smooth="yes"/>
			<point x="595" y="438" type="line" smooth="yes"/>
			<point x="595" y="623"/>
			<point x="476" y="720"/>
		</contour>
		<contour>
			<point x="205" y="262" type="curve" smooth="yes"/>
			<point x="205" y="450" type="line" smooth="yes"/>
			<point x="205" y="533"/>
			<point x="245" y="585"/>
			<point x="327" y="585" type="curve" smooth="yes"/>
			<point x="368" y="585"/>
			<point x="395" y="575"/>
			<point x="414" y="557" type="curve" smooth="yes"/>
			<point x="436" y="537"/>
			<point x="445" y="510"/>
			<point x="445" y="450" type="curve" smooth="yes"/>
			<point x="445" y="262" type="line" smooth="yes"/>
			<point x="445" y="166"/>
			<point x="397" y="117"/>
			<point x="330" y="117" type="curve" smooth="yes"/>
			<point x="293" y="117"/>
			<point x="262" y="127"/>
			<point x="245" y="141" type="curve" smooth="yes"/>
			<point x="228" y="155"/>
			<point x="205" y="185"/>
		</contour>
		<contour>
			<point x="259" y="967" type="curve"/>
			<point x="224" y="906"/>
			<point x="188" y="846"/>
			<point x="153" y="785" type="curve"/>
			<point x="191" y="785"/>
			<point x="210" y="785"/>
			<point x="273" y="785" type="curve" smooth="yes"/>
			<point x="281" y="785"/>
			<point x="286" y="788"/>
			<point x="289" y="791" type="curve" smooth="yes"/>
			<point x="361" y="868"/>
			<point x="386" y="897"/>
			<point x="437" y="953" type="curve" smooth="yes"/>
			<point x="442" y="959"/>
			<point x="439" y="967"/>
			<point x="431" y="967" type="curve" smooth="yes"/>
			<point x="360" y="967"/>
			<point x="342" y="967"/>
		</contour>
		<contour>
			<point x="479" y="967" type="curve"/>
			<point x="444" y="906"/>
			<point x="408" y="846"/>
			<point x="373" y="785" type="curve"/>
			<point x="411" y="785"/>
			<point x="430" y="785"/>
			<point x="493" y="785" type="curve" smooth="yes"/>
			<point x="501" y="785"/>
			<point x="506" y="788"/>
			<point x="509" y="791" type="curve" smooth="yes"/>
			<point x="581" y="868"/>
			<point x="606" y="897"/>
			<point x="657" y="953" type="curve" smooth="yes"/>
			<point x="662" y="959"/>
			<point x="659" y="967"/>
			<point x="651" y="967" type="curve" smooth="yes"/>
			<point x="580" y="967"/>
			<point x="562" y="967"/>
		</contour>
	</outline>
</glyph>
<glyph name="ohungarumlaut" format="2">
	<unicode hex="0151"/>
	<advance width="600"/>
	<outline>
		<contour>
			<point x="300" y="552" type="curve" smooth="yes"/>
			<point x="153" y="552"/>
			<point x="53" y="457"/>
			<point x="53" y="319" type="curve" smooth="yes"/>
			<point x="53" y="221" type="line" smooth="yes"/>
			<point x="53" y="83.1829787234"/>
			<point x="153" y="-12"/>
			<point x="300" y="-12" type="curve" smooth="yes"/>
			<point x="447" y="-12"/>
			<point x="547" y="83.1829787234"/>
			<point x="547" y="221" type="curve" smooth="yes"/>
			<point x="547" y="319" type="line" smooth="yes"/>
			<point x="547" y="457"/>
			<point x="446" y="552"/>
		</contour>
		<contour>
			<point x="300" y="417" type="curve" smooth="yes"/>
			<point x="332" y="417"/>
			<point x="356" y="410"/>
			<point x="372" y="394" type="curve" smooth="yes"/>
			<point x="389" y="377"/>
			<point x="397" y="351"/>
			<point x="397" y="312" type="curve" smooth="yes"/>
			<point x="397" y="228" type="line" smooth="yes"/>
			<point x="397" y="160"/>
			<point x="362" y="123"/>
			<point x="300" y="123" type="curve" smooth="yes"/>
			<point x="270" y="123"/>
			<point x="246" y="132"/>
			<point x="230" y="148" type="curve" smooth="yes"/>
			<point x="212" y="166"/>
			<point x="203" y="193"/>
			<point x="203" y="228" type="curve" smooth="yes"/>
			<point x="203" y="312" type="line" smooth="yes"/>
			<point x="203" y="380"/>
			<point x="238" y="417"/>
		</contour>
		<contour>
			<point x="206" y="805" type="curve"/>
			<point x="170" y="741"/>
			<point x="135" y="679"/>
			<point x="100" y="617" type="curve"/>
			<point x="138" y="617"/>
			<point x="175" y="617"/>
			<point x="218" y="617" type="curve" smooth="yes"/>
			<point x="226" y="617"/>
			<point x="232" y="621"/>
			<point x="235" y="625" type="curve" smooth="yes"/>
			<point x="294" y="690"/>
			<point x="333" y="733"/>
			<point x="384" y="790" type="curve" smooth="yes"/>
			<point x="390" y="797"/>
			<point x="385" y="805"/>
			<point x="377" y="805" type="curve" smooth="yes"/>
			<point x="316" y="805"/>
			<point x="269" y="805"/>
		</contour>
		<contour>
			<point x="446" y="805" type="curve"/>
			<point x="410" y="741"/>
			<point x="375" y="679"/>
			<point x="340" y="617" type="curve"/>
			<point x="378" y="617"/>
			<point x="415" y="617"/>
			<point x="458" y="617" type="curve" smooth="yes"/>
			<point x="466" y="617"/>
			<point x="472" y="621"/>
			<point x="475" y="625" type="curve" smooth="yes"/>
			<point x="534" y="690"/>
			<point x="573" y="733"/>
			<point x="624" y="790" type="curve" smooth="yes"/>
			<point x="630" y="797"/>
			<point x="625" y="805"/>
			<point x="617" y="805" type="curve" smooth="yes"/>
			<point x="556" y="805"/>
			<point x="509" y="805"/>
		</contour>
	</outline>
</glyph>
<glyph name="Scircumflex" format="2">
	<unicode hex="015C"/>
	<advance width="600"/>
	<outline>
		<contour>
			<point x="322" y="720" type="curve" smooth="yes"/>
			<point x="165" y="720"/>
			<point x="67" y="639"/>
			<point x="67" y="530" type="curve" smooth="yes"/>
			<point x="67" y="479" type="line" smooth="yes"/>
			<point x="67" y="407"/>
			<point x="96" y="342"/>
			<point x="230" y="301" type="curve" smooth="yes"/>
			<point x="324" y="272" type="line" smooth="yes"/>
			<point x="393" y="251"/>
			<point x="399" y="236"/>
			<point x="399" y="209" type="curve" smooth="yes"/>
			<point x="399" y="172" type="line" smooth="yes"/>
			<point x="399" y="144"/>
			<point x="369" y="116"/>
			<point x="290" y="116" type="curve" smooth="yes"/>
			<point x="200" y="116"/>
			<point x="140" y="135"/>
			<point x="80" y="174" type="curve"/>
			<point x="60" y="174" type="line"/>
			<point x="60" y="127"/>
			<point x="60" y="89"/>
			<point x="60" y="52" type="curve"/>
			<point x="60" y="39"/>
			<point x="62" y="36"/>
			<point x="66" y="32" type="curve"/>
			<point x="99" y="-1"/>
			<point x="182" y="-20"/>
			<point x="279" y="-20" type="curve" smooth="yes"/>
			<point x="447" y="-20"/>
			<point x="546" y="51"/>
			<point x="546" y="170" type="curve" smooth="yes"/>
			<point x="546" y="218" type="line" smooth="yes"/>
			<point x="546" y="311"/>
			<point x="511" y="361"/>
			<point x="386" y="399" type="curve" smooth="yes"/>
			<point x="291" y="428" type="line" smooth="yes"/>
			<point x="225" y="448"/>
			<point x="214" y="462"/>
			<point x="214" y="498" type="curve" smooth="yes"/>
			<point x="214" y="519" type="line" smooth="yes"/>
			<point x="214" y="567"/>
			<point x="250" y="585"/>
			<point x="322" y="585" type="curve"/>
			<point x="354" y="585"/>
			<point x="376" y="581"/>
			<point x="407" y="571" type="curve"/>
			<point x="379" y="604" type="line"/>
			<point x="379" y="562"/>
			<point x="379" y="538"/>
			<point x="379" y="516" type="curve"/>
			<point x="379" y="509"/>
			<point x="383" y="505"/>
			<point x="390" y="505" type="curve"/>
			<point x="433" y="505"/>
			<point x="478" y="505"/>
			<point x="521" y="505" type="curve"/>
			<point x="521" y="550"/>
			<point x="521" y="606"/>
			<point x="521" y="645" type="curve"/>
			<point x="521" y="653"/>
			<point x="520" y="658"/>
			<point x="515" y="663" type="curve" smooth="yes"/>
			<point x="484" y="694"/>
			<point x="416" y="720"/>
		</contour>
		<contour>
			<point x="237" y="947" type="curve"/>
			<point x="200" y="909"/>
			<point x="138" y="844"/>
			<point x="104" y="808" type="curve" smooth="yes"/>
			<point x="86" y="789"/>
			<point x="84" y="787"/>
			<point x="84" y="782" type="curve" smooth="yes"/>
			<point x="84" y="777"/>
			<point x="87" y="775"/>
			<point x="95" y="775" type="curve" smooth="yes"/>
			<point x="222" y="775" type="line"/>
			<point x="253" y="802"/>
			<point x="292" y="834"/>
			<point x="339" y="880" type="curve"/>
			<point x="289" y="857" type="line"/>
			<point x="311" y="857"/>
			<point x="333" y="857"/>
			<point x="355" y="857" type="curve"/>
			<point x="303" y="878" type="line"/>
			<point x="354" y="829"/>
			<point x="387" y="801"/>
			<point x="407" y="785" type="curve" smooth="yes"/>
			<point x="418" y="777"/>
			<point x="420" y="775"/>
			<point x="435" y="775" type="curve" smooth="yes"/>
			<point x="472" y="775"/>
			<point x="531" y="775"/>
			<point x="568" y="775" type="curve"/>
			<point x="513" y="833"/>
			<point x="442" y="907"/>
			<point x="421" y="928" type="curve" smooth="yes"/>
			<point x="404" y="945"/>
			<point x="399" y="947"/>
			<point x="390" y="947" type="curve" smooth="yes"/>
			<point x="360" y="947"/>
			<point x="268" y="947"/>
		</contour>
	</outline>
</glyph>
<glyph name="scedilla" format="2">
	<unicode hex="015F"/>
	<advance width="550"/>
	<outline>
		<contour>
			<point x="268" y="135" type="curve" smooth="yes"/>
			<point x="185" y="135"/>
			<point x="130" y="142"/>
			<point x="66" y="165" type="curve"/>
			<point x="46" y="165" type="line"/>
			<point x="46" y="121"/>
			<point x="46" y="69"/>
			<point x="46" y="36" type="curve" smooth="yes"/>
			<point x="46" y="24"/>
			<point x="47" y="22"/>
			<point x="57" y="18" type="curve" smooth="yes"/>
			<point x="97" y="3"/>
			<point x="172" y="-10"/>
			<point x="267" y="-10" type="curve" smooth="yes"/>
			<point x="425" y="-10"/>
			<point x="509" y="61"/>
			<point x="509" y="172" type="curve" smooth="yes"/>
			<point x="509" y="263"/>
			<point x="450" y="314"/>
			<point x="351" y="327" type="curve" smooth="yes"/>
			<point x="258" y="339" type="line" smooth="yes"/>
			<point x="219" y="344"/>
			<point x="207" y="354"/>
			<point x="207" y="373" type="curve" smooth="yes"/>
			<point x="207" y="392"/>
			<point x="225" y="405"/>
			<point x="301" y="405" type="curve" smooth="yes"/>
			<point x="359" y="405"/>
			<point x="406" y="399"/>
			<point x="460" y="385" type="curve"/>
			<point x="480" y="385" type="line"/>
			<point x="480" y="425"/>
			<point x="480" y="478"/>
			<point x="480" y="510" type="curve" smooth="yes"/>
			<point x="480" y="525"/>
			<point x="478" y="530"/>
			<point x="463" y="534" type="curve" smooth="yes"/>
			<point x="426" y="544"/>
			<point x="378" y="550"/>
			<point x="316" y="550" type="curve" smooth="yes"/>
			<point x="153" y="550"/>
			<point x="58" y="484"/>
			<point x="58" y="368" type="curve" smooth="yes"/>
			<point x="58" y="292"/>
			<point x="105" y="235"/>
			<point x="202" y="222" type="curve" smooth="yes"/>
			<point x="306" y="208" type="line" smooth="yes"/>
			<point x="351" y="202"/>
			<point x="362" y="188"/>
			<point x="362" y="170" type="curve" smooth="yes"/>
			<point x="362" y="152"/>
			<point x="343" y="135"/>
		</contour>
		<contour>
			<point x="313" y="55" type="curve"/>
			<point x="261" y="55"/>
			<point x="253" y="50"/>
			<point x="248" y="40" type="curve" smooth="yes"/>
			<point x="235" y="11"/>
			<point x="222" y="-20"/>
			<point x="207" y="-56" type="curve" smooth="yes"/>
			<point x="203" y="-65"/>
			<point x="208" y="-71"/>
			<point x="215" y="-71" type="curve" smooth="yes"/>
			<point x="246" y="-71"/>
			<point x="265" y="-83"/>
			<point x="265" y="-107" type="curve" smooth="yes"/>
			<point x="265" y="-132"/>
			<point x="244" y="-141"/>
			<point x="220" y="-141" type="curve" smooth="yes"/>
			<point x="195" y="-141"/>
			<point x="176" y="-136"/>
			<point x="157" y="-129" type="curve"/>
			<point x="145" y="-129" type="line"/>
			<point x="145" y="-154"/>
			<point x="145" y="-185"/>
			<point x="145" y="-219" type="curve" smooth="yes"/>
			<point x="145" y="-240"/>
			<point x="167" y="-251"/>
			<point x="243" y="-251" type="curve" smooth="yes"/>
			<point x="346" y="-251"/>
			<point x="396" y="-209"/>
			<point x="396" y="-128" type="curve" smooth="yes"/>
			<point x="396" y="-68"/>
			<point x="355" y="-33"/>
			<point x="291" y="-31" type="curve"/>
			<point x="293" y="-22" type="line"/>
			<point x="298" y="-3"/>
			<point x="306" y="27"/>
		</contour>
	</outline>
</glyph>
<glyph name="Tcedilla" format="2">
	<unicode hex="0162"/>
	<advance width="600"/>
	<outline>
		<contour>
			<point x="50" y="700" type="line"/>
			<point x="50" y="654"/>
			<point x="50" y="622"/>
			<point x="50" y="576" type="curve" smooth="yes"/>
			<point x="50" y="569"/>
			<point x="54" y="565"/>
			<point x="61" y="565" type="curve"/>
			<point x="550" y="565" type="line"/>
			<point x="550" y="611"/>
			<point x="550" y="643"/>
			<point x="550" y="689" type="curve"/>
			<point x="550" y="696"/>
			<point x="546" y="700"/>
			<point x="539" y="700" type="curve"/>
		</contour>
		<contour>
			<point x="380" y="0" type="curve"/>
			<point x="380" y="28"/>
			<point x="380" y="62"/>
			<point x="380" y="98" type="curve"/>
			<point x="380" y="237"/>
			<point x="380" y="348"/>
			<point x="380" y="475" type="curve" smooth="yes"/>
			<point x="380" y="510"/>
			<point x="380" y="554"/>
			<point x="380" y="593" type="curve"/>
			<point x="392" y="623" type="line"/>
			<point x="220" y="623" type="line"/>
			<point x="220" y="411"/>
			<point x="220" y="223"/>
			<point x="220" y="11" type="curve"/>
			<point x="220" y="4"/>
			<point x="224" y="0"/>
			<point x="231" y="0" type="curve" smooth="yes"/>
			<point x="281" y="0"/>
			<point x="330" y="0"/>
		</contour>
		<contour>
			<point x="419" y="-128" type="curve" smooth="yes"/>
			<point x="419" y="-68"/>
			<point x="378" y="-33"/>
			<point x="314" y="-31" type="curve"/>
			<point x="316" y="-22" type="line"/>
			<point x="321" y="-3"/>
			<point x="329" y="27"/>
			<point x="336" y="55" type="curve"/>
			<point x="284" y="55"/>
			<point x="276" y="50"/>
			<point x="271" y="40" type="curve" smooth="yes"/>
			<point x="258" y="11"/>
			<point x="245" y="-20"/>
			<point x="230" y="-56" type="curve" smooth="yes"/>
			<point x="226" y="-65"/>
			<point x="231" y="-71"/>
			<point x="238" y="-71" type="curve" smooth="yes"/>
			<point x="269" y="-71"/>
			<point x="288" y="-83"/>
			<point x="288" y="-107" type="curve" smooth="yes"/>
			<point x="288" y="-132"/>
			<point x="267" y="-141"/>
			<point x="243" y="-141" type="curve" smooth="yes"/>
			<point x="218" y="-141"/>
			<point x="199" y="-136"/>
			<point x="180" y="-129" type="curve"/>
			<point x="168" y="-129" type="line"/>
			<point x="168" y="-154"/>
			<point x="168" y="-185"/>
			<point x="168" y="-219" type="curve" smooth="yes"/>
			<point x="168" y="-240"/>
			<point x="190" y="-251"/>
			<point x="266" y="-251" type="curve" smooth="yes"/>
			<point x="369" y="-251"/>
			<point x="419" y="-209"/>
		</contour>
	</outline>
	<note>
		T cedilla
	</note>
</glyph>
<glyph name="Tcaron" format="2">
	<unicode hex="0164"/>
	<advance width="600"/>
	<outline>
		<contour>
			<point x="50" y="700" type="line"/>
			<point x="50" y="654"/>
			<point x="50" y="622"/>
			<point x="50" y="576" type="curve" smooth="yes"/>
			<point x="50" y="569"/>
			<point x="54" y="565"/>
			<point x="61" y="565" type="curve"/>
			<point x="550" y="565" type="line"/>
			<point x="550" y="611"/>
			<point x="550" y="643"/>
			<point x="550" y="689" type="curve"/>
			<point x="550" y="696"/>
			<point x="546" y="700"/>
			<point x="539" y="700" type="curve"/>
		</contour>
		<contour>
			<point x="380" y="0" type="curve"/>
			<point x="380" y="28"/>
			<point x="380" y="62"/>
			<point x="380" y="98" type="curve"/>
			<point x="380" y="237"/>
			<point x="380" y="348"/>
			<point x="380" y="475" type="curve" smooth="yes"/>
			<point x="380" y="510"/>
			<point x="380" y="554"/>
			<point x="380" y="593" type="curve"/>
			<point x="392" y="623" type="line"/>
			<point x="220" y="623" type="line"/>
			<point x="220" y="411"/>
			<point x="220" y="223"/>
			<point x="220" y="11" type="curve"/>
			<point x="220" y="4"/>
			<point x="224" y="0"/>
			<point x="231" y="0" type="curve" smooth="yes"/>
			<point x="281" y="0"/>
			<point x="330" y="0"/>
		</contour>
		<contour>
			<point x="383" y="775" type="curve"/>
			<point x="420" y="813"/>
			<point x="482" y="878"/>
			<point x="516" y="914" type="curve" smooth="yes"/>
			<point x="534" y="933"/>
			<point x="536" y="935"/>
			<point x="536" y="940" type="curve" smooth="yes"/>
			<point x="536" y="945"/>
			<point x="533" y="947"/>
			<point x="525" y="947" type="curve" smooth="yes"/>
			<point x="398" y="947" type="line"/>
			<point x="367" y="920"/>
			<point x="328" y="888"/>
			<point x="281" y="842" type="curve"/>
			<point x="331" y="865" type="line"/>
			<point x="309" y="865"/>
			<point x="287" y="865"/>
			<point x="265" y="865" type="curve"/>
			<point x="317" y="844" type="line"/>
			<point x="266" y="893"/>
			<point x="233" y="921"/>
			<point x="213" y="937" type="curve" smooth="yes"/>
			<point x="202" y="945"/>
			<point x="200" y="947"/>
			<point x="185" y="947" type="curve" smooth="yes"/>
			<point x="148" y="947"/>
			<point x="89" y="947"/>
			<point x="52" y="947" type="curve"/>
			<point x="107" y="889"/>
			<point x="178" y="815"/>
			<point x="199" y="794" type="curve" smooth="yes"/>
			<point x="216" y="777"/>
			<point x="221" y="775"/>
			<point x="230" y="775" type="curve" smooth="yes"/>
			<point x="260" y="775"/>
			<point x="352" y="775"/>
		</contour>
	</outline>
</glyph>
<glyph name="Utilde" format="2">
	<unicode hex="0168"/>
	<advance width="650"/>
	<outline>
		<contour>
			<point x="580" y="0" type="curve"/>
			<point x="580" y="32"/>
			<point x="580" y="70"/>
			<point x="580" y="110" type="curve"/>
			<point x="580" y="303"/>
			<point x="580" y="496"/>
			<point x="580" y="689" type="curve"/>
			<point x="580" y="695"/>
			<point x="575" y="700"/>
			<point x="569" y="700" type="curve" smooth="yes"/>
			<point x="519" y="700"/>
			<point x="470" y="700"/>
			<point x="420" y="700" type="curve"/>
			<point x="420" y="471"/>
			<point x="420" y="240"/>
			<point x="420" y="11" type="curve" smooth="yes"/>
			<point x="420" y="4"/>
			<point x="424" y="0"/>
			<point x="431" y="0" type="curve" smooth="yes"/>
			<point x="481" y="0"/>
			<point x="530" y="0"/>
		</contour>
		<contour>
			<point x="232" y="-10" type="curve" smooth="yes"/>
			<point x="310" y="-10"/>
			<point x="364" y="25"/>
			<point x="400" y="91" type="curve"/>
			<point x="442" y="91" type="line"/>
			<point x="442" y="233" type="line"/>
			<point x="393" y="164"/>
			<point x="343" y="130"/>
			<point x="283" y="130" type="curve" smooth="yes"/>
			<point x="243" y="130"/>
			<point x="230" y="144"/>
			<point x="230" y="184" type="curve" smooth="yes"/>
			<point x="230" y="338"/>
			<point x="230" y="523"/>
			<point x="230" y="689" type="curve" smooth="yes"/>
			<point x="230" y="696"/>
			<point x="226" y="700"/>
			<point x="219" y="700" type="curve" smooth="yes"/>
			<point x="169" y="700"/>
			<point x="120" y="700"/>
			<point x="70" y="700" type="curve"/>
			<point x="70" y="667"/>
			<point x="70" y="633"/>
			<point x="70" y="600" type="curve" smooth="yes"/>
			<point x="70" y="453"/>
			<point x="70" y="305"/>
			<point x="70" y="174" type="curve" smooth="yes"/>
			<point x="70" y="55"/>
			<point x="118" y="-10"/>
		</contour>
		<contour>
			<point x="435" y="907" type="curve" smooth="yes"/>
			<point x="362" y="907"/>
			<point x="311" y="962"/>
			<point x="221" y="962" type="curve" smooth="yes"/>
			<point x="176" y="962"/>
			<point x="146" y="948"/>
			<point x="125" y="925" type="curve" smooth="yes"/>
			<point x="118" y="917"/>
			<point x="118" y="913"/>
			<point x="118" y="902" type="curve" smooth="yes"/>
			<point x="118" y="873"/>
			<point x="118" y="817"/>
			<point x="118" y="780" type="curve"/>
			<point x="138" y="780" type="line"/>
			<point x="158" y="808"/>
			<point x="184" y="820"/>
			<point x="215" y="820" type="curve" smooth="yes"/>
			<point x="288" y="820"/>
			<point x="339" y="765"/>
			<point x="429" y="765" type="curve" smooth="yes"/>
			<point x="474" y="765"/>
			<point x="504" y="779"/>
			<point x="525" y="802" type="curve" smooth="yes"/>
			<point x="532" y="809"/>
			<point x="532" y="813"/>
			<point x="532" y="825" type="curve" smooth="yes"/>
			<point x="532" y="853"/>
			<point x="532" y="910"/>
			<point x="532" y="947" type="curve"/>
			<point x="512" y="947" type="line"/>
			<point x="492" y="918"/>
			<point x="466" y="907"/>
		</contour>
	</outline>
</glyph>
<glyph name="utilde" format="2">
	<unicode hex="0169"/>
	<advance width="600"/>
	<outline>
		<contour>
			<point x="209" y="540" type="curve"/>
			<point x="163" y="540"/>
			<point x="116" y="540"/>
			<point x="70" y="540" type="curve"/>
			<point x="70" y="497"/>
			<point x="70" y="453"/>
			<point x="70" y="410" type="curve" smooth="yes"/>
			<point x="70" y="320"/>
			<point x="70" y="230"/>
			<point x="70" y="140" type="curve" smooth="yes"/>
			<point x="70" y="46"/>
			<point x="130" y="-12"/>
			<point x="211" y="-12" type="curve" smooth="yes"/>
			<point x="285" y="-12"/>
			<point x="326" y="24"/>
			<point x="361" y="86" type="curve"/>
			<point x="397" y="86" type="line"/>
			<point x="397" y="212" type="line"/>
			<point x="361" y="162"/>
			<point x="314" y="141"/>
			<point x="254" y="141" type="curve" smooth="yes"/>
			<point x="233" y="141"/>
			<point x="220" y="155"/>
			<point x="220" y="177" type="curve"/>
			<point x="220" y="277.3111111111"/>
			<point x="220" y="410.8125"/>
			<point x="220" y="529" type="curve" smooth="yes"/>
			<point x="220" y="536"/>
			<point x="216" y="540"/>
		</contour>
		<contour>
			<point x="519" y="540" type="curve"/>
			<point x="472" y="540"/>
			<point x="427" y="540"/>
			<point x="380" y="540" type="curve"/>
			<point x="380" y="364"/>
			<point x="380" y="187"/>
			<point x="380" y="11" type="curve"/>
			<point x="380" y="4"/>
			<point x="384" y="0"/>
			<point x="391" y="0" type="curve"/>
			<point x="433" y="0"/>
			<point x="479" y="0"/>
			<point x="530" y="0" type="curve"/>
			<point x="530" y="28"/>
			<point x="530" y="62"/>
			<point x="530" y="98" type="curve"/>
			<point x="530" y="242"/>
			<point x="530" y="385"/>
			<point x="530" y="529" type="curve"/>
			<point x="530" y="536"/>
			<point x="526" y="540"/>
		</contour>
		<contour>
			<point x="395" y="767" type="curve" smooth="yes"/>
			<point x="322" y="767"/>
			<point x="301" y="817"/>
			<point x="211" y="817" type="curve" smooth="yes"/>
			<point x="163" y="817"/>
			<point x="120" y="799"/>
			<point x="100" y="772" type="curve" smooth="yes"/>
			<point x="93" y="763"/>
			<point x="93" y="759"/>
			<point x="93" y="748" type="curve" smooth="yes"/>
			<point x="93" y="719"/>
			<point x="93" y="663"/>
			<point x="93" y="626" type="curve"/>
			<point x="113" y="626" type="line"/>
			<point x="136" y="658"/>
			<point x="168" y="675"/>
			<point x="205" y="675" type="curve" smooth="yes"/>
			<point x="278" y="675"/>
			<point x="299" y="625"/>
			<point x="389" y="625" type="curve" smooth="yes"/>
			<point x="437" y="625"/>
			<point x="480" y="643"/>
			<point x="500" y="670" type="curve" smooth="yes"/>
			<point x="507" y="679"/>
			<point x="507" y="683"/>
			<point x="507" y="694" type="curve" smooth="yes"/>
			<point x="507" y="723"/>
			<point x="507" y="779"/>
			<point x="507" y="816" type="curve"/>
			<point x="487" y="816" type="line"/>
			<point x="464" y="784"/>
			<point x="432" y="767"/>
		</contour>
	</outline>
</glyph>
